<svg width="244" height="82" viewBox="0 0 244 82" fill="none" xmlns="http://www.w3.org/2000/svg">
<path d="M25.4981 23.6224C25.4981 22.247 25.9213 21.1184 26.7677 20.2368C27.6494 19.3198 28.725 18.8614 29.9947 18.8614H34.1738C35.4434 18.8614 36.5014 19.3022 37.3478 20.1839C38.1942 21.0655 38.6174 22.1588 38.6174 23.4637V34.8902H42.7437C42.9553 34.8902 43.0611 34.996 43.0611 35.2076C43.0611 35.4192 42.9553 35.525 42.7437 35.525H38.3C38.0884 35.525 37.9826 35.4192 37.9826 35.2076V23.4637C37.9826 22.3351 37.6123 21.4006 36.8717 20.66C36.1664 19.8841 35.2671 19.4962 34.1738 19.4962H29.9947C28.9014 19.4962 27.9844 19.8841 27.2438 20.66C26.5032 21.4358 26.1329 22.4233 26.1329 23.6224C26.1329 23.834 26.0271 23.9398 25.8155 23.9398C25.6039 23.9398 25.4981 23.834 25.4981 23.6224ZM42.9553 65.4667C42.9553 65.2551 43.0611 65.1493 43.2727 65.1493C44.4012 65.1493 45.3181 64.779 46.0235 64.0384C46.7289 63.2977 47.0815 62.3633 47.0815 61.2346V23.6753C47.0815 22.5467 46.7289 21.6122 46.0235 20.8716C45.3181 20.0957 44.4012 19.7078 43.2727 19.7078C43.0611 19.7078 42.9553 19.602 42.9553 19.3904C42.9553 19.1788 43.0611 19.073 43.2727 19.073C44.5775 19.073 45.6355 19.5138 46.4467 20.3955C47.2931 21.2771 47.7163 22.3528 47.7163 23.6224V61.2875C47.7163 62.5922 47.2755 63.668 46.3938 64.5145C45.5474 65.3609 44.507 65.7841 43.2727 65.7841C43.0611 65.7841 42.9553 65.6783 42.9553 65.4667ZM29.7831 65.837C28.5134 65.837 27.4554 65.3787 26.609 64.4616C25.7626 63.5444 25.3394 62.4162 25.3394 61.0759V56.2091C23.7171 56.174 22.1125 55.7859 20.5255 55.0453C18.9385 54.3047 17.5454 53.1586 16.3463 51.6067C15.0767 53.1231 13.7895 54.1811 12.4846 54.7808C11.1797 55.3805 9.76903 55.6094 8.25257 55.4685C5.9955 55.2569 4.23213 54.4283 2.96252 52.9822C1.69291 51.5009 1.05811 49.6494 1.05811 47.4276C1.05811 46.0522 1.28734 44.9413 1.74581 44.0949C2.20428 43.2132 2.82146 42.4902 3.59733 41.926C4.3732 41.3264 5.23724 40.7621 6.18945 40.2331C7.52961 39.4925 8.37602 38.5403 8.72867 37.3765C9.08133 36.2127 9.25768 34.9607 9.25768 33.6206L9.31058 26.479C9.31058 24.9273 9.80433 23.5518 10.7918 22.3528C11.8145 21.1537 13.4016 20.5542 15.5528 20.5542C17.6336 20.5542 19.1853 21.0832 20.2081 22.1412C21.2661 23.1992 21.8127 24.4688 21.848 25.95C21.848 26.1264 21.7422 26.2145 21.5306 26.2145C21.319 26.2145 21.2132 26.1264 21.2132 25.95C21.1779 24.6452 20.7018 23.5342 19.7849 22.6173C18.9032 21.6651 17.4925 21.189 15.5528 21.189C14.2127 21.189 13.1194 21.4535 12.273 21.9825C11.4618 22.5115 10.8623 23.1815 10.4744 23.9927C10.0864 24.7686 9.89248 25.5974 9.89248 26.479V33.6206C9.89248 35.0312 9.68088 36.3891 9.25768 37.6939C8.86972 38.9635 7.93516 40.0039 6.45395 40.8151C5.53699 41.3088 4.72587 41.8202 4.02053 42.3492C3.31519 42.8782 2.75092 43.5306 2.32772 44.3065C1.93978 45.0823 1.72818 46.1227 1.69291 47.4276C1.65765 49.4378 2.22192 51.1306 3.38573 52.506C4.54954 53.8464 6.1718 54.6221 8.25257 54.8337C9.73378 54.9746 11.1092 54.7457 12.3788 54.146C13.6484 53.5112 14.8828 52.4354 16.0818 50.919C16.1524 50.8132 16.2405 50.7603 16.3463 50.7603C16.4874 50.7603 16.5756 50.8132 16.6108 50.919C17.7747 52.5412 19.1501 53.7228 20.7371 54.4634C22.3593 55.204 23.9993 55.5743 25.6568 55.5743C25.8684 55.5743 25.9742 55.6801 25.9742 55.8917V61.0759C25.9742 62.2748 26.3269 63.2626 27.0322 64.0384C27.7728 64.8141 28.6898 65.2022 29.7831 65.2022H34.1738C35.2671 65.2022 36.184 64.8141 36.9246 64.0384C37.6652 63.2977 38.0355 62.3455 38.0355 61.1817V48.0095C38.0355 47.939 38.0532 47.8508 38.0884 47.745C38.1237 47.6392 38.1942 47.5863 38.3 47.5863C39.4286 47.4453 40.2926 47.216 40.8922 46.8986C41.527 46.5459 42.0736 46.0169 42.5321 45.3116C42.6731 45.1352 42.8318 45.1 43.0082 45.2058C43.1845 45.3116 43.2021 45.4703 43.0611 45.6819C42.6026 46.3519 42.0383 46.8986 41.3683 47.3218C40.6982 47.745 39.7989 48.0272 38.6703 48.1682V61.1817C38.6703 62.4864 38.2295 63.58 37.3478 64.4616C36.4662 65.3787 35.4082 65.837 34.1738 65.837H29.7831ZM84.5206 53.8815C84.309 53.8815 84.2032 53.7757 84.2032 53.5641C84.2032 53.3525 84.309 53.2467 84.5206 53.2467C85.8253 53.2467 86.954 52.8412 87.9062 52.0299C88.8584 51.2186 89.3345 49.949 89.3345 48.2211C89.3345 46.7751 88.9291 45.5232 88.1178 44.4652C87.3421 43.4072 86.1254 42.8782 84.4677 42.8782H81.5053C81.2937 42.8782 81.1701 42.79 81.135 42.6137C80.5709 40.8503 79.7418 39.5807 78.6487 38.8048C77.5555 37.9937 76.1623 37.5352 74.4695 37.4294C73.7996 38.6285 72.8118 39.4925 71.5071 40.0215C70.2024 40.5153 68.8972 40.7621 67.5925 40.7621H59.1813C58.2642 40.7621 57.3649 40.9738 56.4834 41.397C55.637 41.8202 54.9492 42.4373 54.4202 43.2485C53.8912 44.0243 53.6267 44.9413 53.6267 45.9993V46.1051C53.6267 48.0448 54.1557 49.4907 55.2137 50.4429C56.3069 51.3951 57.6472 51.8712 59.2342 51.8712H65.8467C66.0583 51.8712 66.1641 51.977 66.1641 52.1886C66.1641 52.4002 66.0583 52.506 65.8467 52.506H59.2342C57.4707 52.506 55.9895 51.977 54.7905 50.919C53.5916 49.8259 52.9919 48.2211 52.9919 46.1051V45.9993C52.9919 44.7649 53.3093 43.7069 53.9441 42.8253C54.614 41.9083 55.4076 41.2206 56.3247 40.7621H55.3724C53.5738 40.7621 52.0219 40.2155 50.7172 39.1222C49.4476 37.9937 48.8128 36.5654 48.8128 34.8373V25.7384C48.8128 23.5518 49.4654 21.8767 50.7701 20.7129C52.1104 19.5138 53.7147 18.9143 55.5841 18.9143C57.5592 18.9143 59.1991 19.4785 60.5038 20.6071C61.8085 21.7356 62.514 23.2873 62.6198 25.2623C62.6198 25.4739 62.514 25.5797 62.3024 25.5797C62.0908 25.5797 61.985 25.4739 61.985 25.2623C61.8792 23.4637 61.2444 22.0706 60.0806 21.0832C58.9168 20.0604 57.4178 19.5491 55.5841 19.5491C53.8561 19.5491 52.3922 20.0957 51.1933 21.189C50.0295 22.247 49.4476 23.7635 49.4476 25.7384V34.8373C49.4476 36.4243 50.0117 37.7116 51.1404 38.699C52.3042 39.6512 53.7147 40.1273 55.3724 40.1273H67.5925C68.6154 40.1273 69.6205 39.9686 70.6078 39.6512C71.6307 39.2986 72.5122 38.7696 73.2528 38.0642C73.9934 37.3236 74.4517 36.3538 74.6282 35.1547C74.6989 34.9431 74.8047 34.8373 74.9456 34.8373C75.2279 34.8373 75.3337 34.9783 75.263 35.2605C75.1572 35.7895 74.9985 36.3009 74.7869 36.7946C76.1974 36.9004 77.5377 37.3589 78.8074 38.17C80.077 38.9459 81.0292 40.3037 81.664 42.2434H85.2083C86.4428 42.2434 87.395 41.8731 88.0649 41.1325C88.7348 40.3566 89.07 39.422 89.07 38.3287V23.9927C89.07 22.7936 88.6819 21.718 87.9062 20.7658C87.1656 19.7783 86.2312 19.2846 85.1025 19.2846H80.7118C79.5129 19.2846 78.5251 19.6725 77.7493 20.4484C76.9736 21.189 76.5855 22.1588 76.5855 23.3579V25.8442C76.5855 26.0558 76.4797 26.1616 76.2681 26.1616C76.0565 26.1616 75.9507 26.0558 75.9507 25.8442V25.6855C75.9507 24.0985 75.4395 22.8112 74.4166 21.8238C73.3937 20.801 72.001 20.2897 70.2375 20.2897C70.0259 20.2897 69.9201 20.1839 69.9201 19.9723C69.9201 19.7607 70.0259 19.6549 70.2375 19.6549C71.6129 19.6549 72.7945 19.9546 73.7818 20.5542C74.7691 21.1537 75.4924 21.9825 75.9507 23.0405C76.0214 21.7709 76.4975 20.7305 77.379 19.9194C78.2961 19.073 79.4071 18.6498 80.7118 18.6498H85.1025C85.984 18.6498 86.7602 18.9143 87.4301 19.4433C88.1356 19.9723 88.6819 20.6423 89.07 21.4535C89.4932 22.2646 89.7048 23.111 89.7048 23.9927V38.3287C89.7048 39.3162 89.4403 40.2155 88.9113 41.0266C88.4174 41.8025 87.6946 42.3315 86.7424 42.6137C87.8355 43.1427 88.6468 43.9009 89.1758 44.8884C89.7048 45.8406 89.9694 46.9515 89.9694 48.2211C89.9694 50.1255 89.4052 51.5538 88.2765 52.506C87.1834 53.4231 85.9311 53.8815 84.5206 53.8815ZM53.7325 60.0179C53.7325 59.7356 53.7503 59.4182 53.7854 59.0657C53.8561 58.6776 53.9441 58.3251 54.0499 58.0077C54.1206 57.7961 54.2437 57.6903 54.4202 57.6903C54.5611 57.6903 54.6496 57.7432 54.6847 57.849C54.7198 57.9548 54.7198 58.0428 54.6847 58.1135C54.4731 58.7483 54.3673 59.3831 54.3673 60.0179C54.3673 61.64 55.0902 62.9803 56.5363 64.0384C58.0175 65.0964 59.8868 65.6605 62.1437 65.7312C63.2017 65.7312 64.3304 65.6605 65.5293 65.5196C66.7282 65.4138 67.9277 65.0435 69.1266 64.4086C70.3255 63.7738 71.4364 62.7336 72.4593 61.2875C72.5651 61.1466 72.6709 61.0759 72.7767 61.0759C72.8825 61.0759 72.9883 61.1466 73.0941 61.2875C74.3286 62.8038 75.6155 63.8796 76.9558 64.5145C78.2961 65.1493 79.5831 65.5196 80.8176 65.6254C82.0872 65.7663 83.1981 65.837 84.1503 65.837C86.1605 65.837 87.7475 65.2902 88.9113 64.1971C90.1103 63.1039 90.71 61.7458 90.71 60.1237C90.71 58.6776 90.3574 57.4965 89.6519 56.5794C89.6168 56.5087 89.599 56.4207 89.599 56.3149C89.6341 56.174 89.7226 56.1033 89.8635 56.1033C89.9694 56.1033 90.0751 56.1562 90.181 56.262C90.569 56.7203 90.8509 57.32 91.0274 58.0606C91.239 58.7661 91.3448 59.4538 91.3448 60.1237C91.3448 61.9223 90.6922 63.4035 89.3874 64.5674C88.1178 65.7663 86.3721 66.4011 84.1503 66.4718C83.1981 66.4718 82.0521 66.4011 80.7118 66.2602C79.4071 66.1193 78.049 65.7134 76.6384 65.0435C75.263 64.4087 73.9756 63.3506 72.7767 61.8694C71.7894 63.2448 70.6958 64.25 69.4969 64.8848C68.298 65.5547 67.0634 65.9606 65.7938 66.1015C64.5593 66.278 63.3426 66.366 62.1437 66.366C60.5567 66.3309 59.1284 66.0308 57.8588 65.4667C56.5892 64.9026 55.5841 64.1441 54.8434 63.1919C54.1028 62.2748 53.7325 61.2168 53.7325 60.0179ZM112.014 65.837C109.616 65.837 107.412 65.4667 105.402 64.7261C103.427 63.9854 101.84 62.8038 100.641 61.1817C99.477 59.5947 98.8951 57.4965 98.8951 54.8866V46.7928C98.8951 45.77 99.1245 44.7649 99.5828 43.7775C100.077 42.79 100.712 41.9965 101.487 41.397C100.923 41.4675 100.359 41.5028 99.7944 41.5028C99.2303 41.5028 98.6484 41.4322 98.0487 41.2912C96.4266 40.9032 95.1392 40.145 94.187 39.0164C93.2348 37.8879 92.7587 36.442 92.7587 34.6786C92.7587 33.021 93.1467 31.6985 93.9225 30.7111C94.6982 29.6883 95.7562 28.9124 97.0965 28.3834C98.331 27.8897 99.1947 27.2725 99.6886 26.5319C100.183 25.7561 100.5 24.9097 100.641 23.9927C100.817 23.0757 101.117 22.1941 101.54 21.3477C101.998 20.5013 102.686 19.7959 103.603 19.2317C104.52 18.6674 105.737 18.3853 107.253 18.3853C108.594 18.3853 109.722 18.6674 110.639 19.2317C111.591 19.7607 112.332 20.4484 112.861 21.2948C113.39 22.1412 113.672 23.0228 113.707 23.9398C113.707 24.1514 113.601 24.2572 113.39 24.2572C113.178 24.2572 113.072 24.1514 113.072 23.9398C113.002 22.7054 112.473 21.5769 111.485 20.5542C110.498 19.5314 109.087 19.0201 107.253 19.0201C105.878 19.0201 104.767 19.2669 103.921 19.7607C103.109 20.2544 102.492 20.8892 102.069 21.6651C101.681 22.4409 101.417 23.2521 101.276 24.0985C101.135 25.086 100.764 26.0206 100.165 26.9022C99.6006 27.7839 98.6484 28.4892 97.3081 29.0182C96.0736 29.512 95.1041 30.1997 94.3986 31.0814C93.7286 31.963 93.3934 33.1621 93.3934 34.6786C93.3934 36.2656 93.8167 37.5881 94.6631 38.6461C95.5095 39.6689 96.6733 40.3389 98.1545 40.6563C99.918 41.0443 101.593 40.9208 103.18 40.286C104.802 39.6512 106.107 38.6285 107.095 37.2178C107.2 37.0768 107.306 37.0062 107.412 37.0062C107.483 37.0062 107.571 37.0768 107.677 37.2178C108.594 38.6285 109.634 39.6336 110.798 40.2331C111.962 40.8327 113.619 41.1325 115.77 41.1325H116.723C116.934 41.1325 117.04 41.2383 117.04 41.4499C117.04 41.6615 116.934 41.7673 116.723 41.7673H115.77C113.619 41.7673 111.909 41.4851 110.639 40.9208C109.404 40.3213 108.311 39.3162 107.359 37.9055C106.301 39.3515 104.926 40.3742 103.233 40.9737C102.069 41.5028 101.152 42.3315 100.482 43.4601C99.8473 44.5533 99.5299 45.6995 99.5299 46.8986V54.8866C99.5299 57.32 100.077 59.2951 101.17 60.8114C102.299 62.3277 103.797 63.4387 105.666 64.1442C107.571 64.8497 109.687 65.2022 112.014 65.2022H125.451C127.955 65.2022 130.247 64.6554 132.328 63.5622C134.444 62.4691 135.925 60.9523 136.772 59.0128C136.843 58.8719 136.948 58.8012 137.089 58.8012C137.23 58.8012 137.319 58.8541 137.354 58.9599C137.389 59.0657 137.389 59.1537 137.354 59.2244C136.754 60.6349 135.837 61.8343 134.603 62.8216C133.404 63.809 132.011 64.5496 130.424 65.0435C128.837 65.5725 127.179 65.837 125.451 65.837H112.014ZM121.325 43.6188C121.325 43.4072 121.431 43.3014 121.642 43.3014C121.854 43.3014 121.96 43.4072 121.96 43.6188C121.96 44.712 122.312 45.629 123.018 46.3696C123.723 47.1102 124.711 47.4805 125.98 47.4805H130.265C131.535 47.4805 132.522 47.1102 133.227 46.3696C133.933 45.629 134.286 44.712 134.286 43.6188V41.2383C134.286 40.9561 134.426 40.8151 134.709 40.8151H137.777C138.976 40.8151 139.999 40.4095 140.845 39.5983C141.692 38.7872 142.115 37.7645 142.115 36.5301V29.4944H134.55C134.338 29.4944 134.233 29.3885 134.233 29.1769V23.7811C134.233 22.582 133.862 21.5769 133.122 20.7658C132.381 19.9194 131.429 19.4962 130.265 19.4962H126.033C124.799 19.4962 123.811 19.937 123.071 20.8187C122.33 21.6651 121.96 22.7054 121.96 23.9398V24.2043C121.96 24.4159 121.854 24.5217 121.642 24.5217C121.431 24.5217 121.325 24.4159 121.325 24.2043V23.9398C121.325 22.5291 121.748 21.33 122.595 20.3426C123.476 19.3551 124.623 18.8614 126.033 18.8614H130.265C131.605 18.8614 132.698 19.3551 133.545 20.3426C134.426 21.2948 134.867 22.4409 134.867 23.7811V28.8595H142.432C142.644 28.8595 142.75 28.9653 142.75 29.1769V36.5301C142.75 37.9408 142.256 39.1222 141.268 40.0744C140.316 40.9914 139.152 41.4499 137.777 41.4499H134.92V43.6188C134.92 44.8884 134.497 45.964 133.651 46.8457C132.839 47.6921 131.711 48.1153 130.265 48.1153H125.98C124.57 48.1153 123.441 47.6921 122.595 46.8457C121.748 45.964 121.325 44.8884 121.325 43.6188ZM144.904 60.8643C143.529 60.8643 142.347 60.406 141.36 59.4889C140.372 58.5367 139.879 57.408 139.879 56.1033V52.2944C139.879 50.9897 140.372 49.8788 141.36 48.9617C142.347 48.0095 143.529 47.5334 144.904 47.5334C145.116 47.5334 145.221 47.6392 145.221 47.8508C145.221 48.0624 145.116 48.1682 144.904 48.1682C143.67 48.1682 142.629 48.5736 141.783 49.3849C140.937 50.1962 140.513 51.1657 140.513 52.2944V56.1033C140.513 57.2671 140.937 58.2544 141.783 59.0657C142.629 59.8414 143.67 60.2295 144.904 60.2295H182.516C183.75 60.2295 184.773 59.8414 185.585 59.0657C186.431 58.2544 186.854 57.2671 186.854 56.1033V52.2944C186.854 51.1657 186.431 50.1962 185.585 49.3849C184.773 48.5736 183.75 48.1682 182.516 48.1682H173.841C173.629 48.1682 173.523 48.0624 173.523 47.8508C173.523 47.7098 173.611 47.604 173.788 47.5334C175.198 47.2866 176.539 46.6693 177.808 45.6819C179.078 44.6944 180.1 43.3719 180.876 41.7144C181.687 40.0568 182.058 38.0995 181.987 35.8424C181.952 33.1974 181.352 30.8169 180.189 28.7008C179.025 26.5496 177.314 24.8391 175.057 23.5695C172.836 22.2999 170.067 21.6474 166.752 21.6122L160.616 21.5593C157.124 21.524 154.232 22.1412 151.94 23.4108C149.647 24.6452 147.937 26.3027 146.808 28.3834C145.68 30.4642 145.116 32.7389 145.116 35.2076C145.116 38.3464 145.909 40.9914 147.496 43.1427C149.083 45.2587 151.622 46.7222 155.114 47.5334C155.29 47.604 155.378 47.7098 155.378 47.8508C155.378 48.1331 155.255 48.2389 155.008 48.1682C151.375 47.3218 148.713 45.77 147.02 43.513C145.327 41.2206 144.481 38.4522 144.481 35.2076C144.481 32.6684 145.063 30.3055 146.227 28.1189C147.425 25.9324 149.224 24.1867 151.622 22.8818C154.02 21.5416 157.018 20.8892 160.616 20.9245L166.752 20.9774C170.173 21.0126 173.047 21.7003 175.375 23.0405C177.737 24.3807 179.518 26.1793 180.718 28.4363C181.952 30.6582 182.587 33.1268 182.622 35.8424C182.692 37.8174 182.41 39.5983 181.776 41.1854C181.176 42.7371 180.365 44.0596 179.342 45.1529C178.319 46.2109 177.191 47.0044 175.957 47.5334H182.516C183.856 47.5334 185.02 48.0095 186.008 48.9617C186.995 49.8788 187.489 50.9897 187.489 52.2944V56.1033C187.489 57.408 186.995 58.5367 186.008 59.4889C185.02 60.406 183.856 60.8643 182.516 60.8643H144.904ZM190.913 62.2397C189.538 62.2397 188.356 61.7814 187.369 60.8643C186.381 59.9121 185.887 58.7834 185.887 57.4787V53.6699C185.887 52.3651 186.381 51.2542 187.369 50.3371C188.356 49.3849 189.538 48.9088 190.913 48.9088H196.309C194.722 48.2389 193.487 47.1455 192.606 45.629C191.759 44.0772 191.336 42.3315 191.336 40.3918C191.336 37.7116 192.165 35.4545 193.823 33.6206C192.941 32.9152 192.236 32.1041 191.707 31.1872C191.178 30.235 190.913 29.1769 190.913 28.0131C190.913 26.2498 191.53 24.7333 192.765 23.4637C193.999 22.1941 195.586 21.5593 197.526 21.5593H218.21C220.184 21.5593 221.877 22.053 223.288 23.0405C224.734 23.9927 225.845 25.2976 226.621 26.9551C227.432 28.5774 227.838 30.376 227.838 32.351C227.838 33.8674 227.608 35.2605 227.15 36.5301C226.727 37.7997 226.092 38.8754 225.245 39.757C225.986 40.1802 226.568 40.8503 226.991 41.7673C227.414 42.6489 227.59 43.5835 227.52 44.571C227.485 45.3116 227.291 46.0698 226.938 46.8457C226.585 47.6216 226.021 48.274 225.245 48.803C224.469 49.2969 223.429 49.5436 222.124 49.5436H215.512C215.3 49.5436 215.194 49.4378 215.194 49.2262V44.7826C215.194 43.5482 214.771 42.5255 213.925 41.7144C213.113 40.8679 212.055 40.4447 210.751 40.4447H203.08C202.869 40.4447 202.763 40.3389 202.763 40.1273C202.763 39.9157 202.869 39.8099 203.08 39.8099H210.751C212.196 39.8099 213.396 40.3037 214.348 41.2912C215.335 42.2434 215.829 43.4072 215.829 44.7826V48.9088H222.124C223.852 48.9088 225.069 48.4505 225.774 47.5334C226.479 46.5812 226.85 45.5937 226.885 44.571C226.956 43.6188 226.797 42.7371 226.409 41.926C226.021 41.1148 225.474 40.5505 224.769 40.2331C223.606 41.2912 222.195 41.8731 220.537 41.9789C220.326 41.9789 220.22 41.8731 220.22 41.6615C220.22 41.4499 220.326 41.3441 220.537 41.3441C221.348 41.2735 222.071 41.0972 222.706 40.8151C223.376 40.4976 223.976 40.1097 224.505 39.6512C225.386 38.8401 226.056 37.7997 226.515 36.5301C226.973 35.2605 227.203 33.8674 227.203 32.351C227.203 30.4466 226.832 28.7361 226.092 27.2196C225.386 25.6679 224.363 24.4512 223.024 23.5695C221.683 22.6525 220.078 22.1941 218.21 22.1941H197.526C195.727 22.1941 194.281 22.7583 193.188 23.8869C192.094 24.9802 191.548 26.3556 191.548 28.0131C191.548 29.1064 191.777 30.0763 192.236 30.9227C192.729 31.7691 193.417 32.5273 194.299 33.1974C194.933 32.5978 195.656 32.1217 196.468 31.7691C197.314 31.4164 198.213 31.2401 199.166 31.2401C199.377 31.2401 199.483 31.3459 199.483 31.5575C199.483 31.7691 199.377 31.8749 199.166 31.8749C197.755 31.8749 196.503 32.2804 195.41 33.0916C194.316 33.8674 193.47 34.8902 192.87 36.1598C192.271 37.4294 191.971 38.8401 191.971 40.3918C191.971 42.7547 192.623 44.7649 193.928 46.4225C195.268 48.0801 197.173 48.9088 199.642 48.9088H203.768C203.979 48.9088 204.085 49.0146 204.085 49.2262C204.085 49.4378 203.979 49.5436 203.768 49.5436H190.913C189.679 49.5436 188.638 49.949 187.792 50.7603C186.945 51.5716 186.522 52.5412 186.522 53.6699V57.4787C186.522 58.6425 186.945 59.6298 187.792 60.4411C188.638 61.2168 189.679 61.6049 190.913 61.6049H228.525C229.759 61.6049 230.782 61.2168 231.593 60.4411C232.44 59.6298 232.863 58.6425 232.863 57.4787V53.6699C232.863 52.506 232.528 51.536 231.858 50.7603C231.188 49.949 230.253 49.5436 229.054 49.5436C228.843 49.5436 228.737 49.4378 228.737 49.2262C228.737 49.0146 228.843 48.9088 229.054 48.9088C230.43 48.9088 231.505 49.3849 232.281 50.3371C233.092 51.2542 233.498 52.3651 233.498 53.6699V57.4787C233.498 58.7834 233.004 59.9121 232.017 60.8643C231.029 61.7814 229.865 62.2397 228.525 62.2397H190.913Z" fill="black"/>
<path d="M164.696 31.7637C167.276 30.5569 170.158 32.6522 169.845 35.4485L169.828 35.5824C169.525 37.6339 167.576 39.0026 165.565 38.6228L165.37 38.5806L164.451 38.3552C163.836 38.2045 163.196 38.1884 162.576 38.3077L162.452 38.3336L161.038 38.6478C159.215 39.0532 157.543 37.5743 157.684 35.7454L157.703 35.5674C157.853 34.4938 158.617 33.6108 159.65 33.3032L159.751 33.2755L163.132 32.4057C163.344 32.3513 163.551 32.2823 163.753 32.1991L163.953 32.1113L164.696 31.7637Z" fill="black" stroke="black" stroke-width="1.3"/>
<path d="M25.9692 31.7402V49.0531" stroke="black" stroke-width="1.3" stroke-linecap="round"/>
<path d="M70.034 19.958C67.5684 20.1985 66.0141 21.7118 65.4043 23.0839C64.7945 24.4561 65.6144 25.4714 65.6871 25.4027" stroke="black" stroke-width="1.3" stroke-linecap="round"/>
<path d="M108.446 53.6218C108.205 56.2668 109.692 56.8295 111.015 57.4706C112.338 58.1116 118.856 58.0159 118.785 57.95" stroke="black" stroke-width="1.3" stroke-linecap="round"/>
<path d="M202.869 40.095C200.712 40.2885 201.022 43.1157 201.022 44.244C201.021 45.3722 201.022 45.4462 201.022 46.1676" stroke="black" stroke-width="1.3" stroke-linecap="round"/>
<path d="M59.6826 31.5744L59.8192 31.588C59.8668 31.5927 59.9144 31.5993 59.9616 31.6077L60.102 31.6387L67.1964 33.4924C67.4643 33.5624 67.6918 33.7357 67.8312 33.9714L67.8856 34.0761L67.9067 34.1236C67.9529 34.2269 67.9769 34.3387 67.9769 34.4519C67.9769 34.901 67.6086 35.2628 67.1594 35.255L59.4758 35.1206C58.9757 35.1119 58.5034 34.8927 58.1745 34.52L58.1105 34.4434C57.1708 33.251 58.0634 31.5311 59.5379 31.5654L59.6826 31.5744Z" fill="black" stroke="black" stroke-width="1.3"/>
<path d="M76.2248 26.2097C77.1866 31.9806 76.4653 37.2707 76.2248 37.7516M65.8852 25.4883C65.8852 25.4883 65.6447 27.6524 64.202 27.6524C62.7592 27.6524 62.2783 25.7287 62.2783 25.7287" stroke="black" stroke-width="1.3" stroke-linecap="round"/>
<path d="M26.8702 23.6224C26.8702 22.247 27.2934 21.1184 28.1398 20.2368C29.0215 19.3198 30.0971 18.8614 31.3667 18.8614H35.5459C36.8155 18.8614 37.8735 19.3022 38.7199 20.1839C39.5663 21.0655 39.9895 22.1588 39.9895 23.4637V34.8902H44.1157C44.3273 34.8902 44.4331 34.996 44.4331 35.2076C44.4331 35.4192 44.3273 35.525 44.1157 35.525H39.6721C39.4605 35.525 39.3547 35.4192 39.3547 35.2076V23.4637C39.3547 22.3351 38.9844 21.4006 38.2438 20.66C37.5384 19.8841 36.6391 19.4962 35.5459 19.4962H31.3667C30.2735 19.4962 29.3565 19.8841 28.6159 20.66C27.8753 21.4358 27.505 22.4233 27.505 23.6224C27.505 23.834 27.3992 23.9398 27.1876 23.9398C26.976 23.9398 26.8702 23.834 26.8702 23.6224ZM44.3273 65.4667C44.3273 65.2551 44.4331 65.1493 44.6447 65.1493C45.7733 65.1493 46.6902 64.779 47.3956 64.0384C48.1009 63.2977 48.4536 62.3633 48.4536 61.2346V23.6753C48.4536 22.5467 48.1009 21.6122 47.3956 20.8716C46.6902 20.0957 45.7733 19.7078 44.6447 19.7078C44.4331 19.7078 44.3273 19.602 44.3273 19.3904C44.3273 19.1788 44.4331 19.073 44.6447 19.073C45.9496 19.073 47.0076 19.5138 47.8188 20.3955C48.6652 21.2771 49.0884 22.3528 49.0884 23.6224V61.2875C49.0884 62.5922 48.6475 63.668 47.7659 64.5145C46.9195 65.3609 45.8791 65.7841 44.6447 65.7841C44.4331 65.7841 44.3273 65.6783 44.3273 65.4667ZM31.1551 65.837C29.8855 65.837 28.8275 65.3787 27.9811 64.4616C27.1347 63.5444 26.7115 62.4162 26.7115 61.0759V56.2091C25.0892 56.174 23.4846 55.7859 21.8975 55.0453C20.3105 54.3047 18.9175 53.1586 17.7184 51.6067C16.4488 53.1231 15.1615 54.1811 13.8567 54.7808C12.5518 55.3805 11.1411 55.6094 9.62464 55.4685C7.36757 55.2569 5.6042 54.4283 4.33459 52.9822C3.06498 51.5009 2.43018 49.6494 2.43018 47.4276C2.43018 46.0522 2.65941 44.9413 3.11788 44.0949C3.57635 43.2132 4.19353 42.4902 4.9694 41.926C5.74527 41.3264 6.60931 40.7621 7.56152 40.2331C8.90168 39.4925 9.74809 38.5403 10.1007 37.3765C10.4534 36.2127 10.6297 34.9607 10.6297 33.6206L10.6826 26.479C10.6826 24.9273 11.1764 23.5518 12.1639 22.3528C13.1866 21.1537 14.7736 20.5542 16.9249 20.5542C19.0057 20.5542 20.5574 21.0832 21.5801 22.1412C22.6382 23.1992 23.1848 24.4688 23.2201 25.95C23.2201 26.1264 23.1143 26.2145 22.9027 26.2145C22.6911 26.2145 22.5853 26.1264 22.5853 25.95C22.55 24.6452 22.0739 23.5342 21.1569 22.6173C20.2753 21.6651 18.8646 21.189 16.9249 21.189C15.5847 21.189 14.4915 21.4535 13.6451 21.9825C12.8339 22.5115 12.2344 23.1815 11.8465 23.9927C11.4585 24.7686 11.2646 25.5974 11.2646 26.479V33.6206C11.2646 35.0312 11.0529 36.3891 10.6297 37.6939C10.2418 38.9635 9.30724 40.0039 7.82602 40.8151C6.90907 41.3088 6.09794 41.8202 5.3926 42.3492C4.68726 42.8782 4.12299 43.5306 3.69979 44.3065C3.31185 45.0823 3.10025 46.1227 3.06498 47.4276C3.02972 49.4378 3.59399 51.1306 4.7578 52.506C5.92161 53.8464 7.54387 54.6221 9.62464 54.8337C11.1059 54.9746 12.4813 54.7457 13.7509 54.146C15.0205 53.5112 16.2548 52.4354 17.4539 50.919C17.5245 50.8132 17.6126 50.7603 17.7184 50.7603C17.8595 50.7603 17.9477 50.8132 17.9829 50.919C19.1467 52.5412 20.5221 53.7228 22.1091 54.4634C23.7314 55.204 25.3713 55.5743 27.0289 55.5743C27.2405 55.5743 27.3463 55.6801 27.3463 55.8917V61.0759C27.3463 62.2748 27.6989 63.2626 28.4043 64.0384C29.1449 64.8141 30.0619 65.2022 31.1551 65.2022H35.5459C36.6391 65.2022 37.5561 64.8141 38.2967 64.0384C39.0373 63.2977 39.4076 62.3455 39.4076 61.1817V48.0095C39.4076 47.939 39.4252 47.8508 39.4605 47.745C39.4957 47.6392 39.5663 47.5863 39.6721 47.5863C40.8007 47.4453 41.6647 47.216 42.2642 46.8986C42.899 46.5459 43.4457 46.0169 43.9041 45.3116C44.0452 45.1352 44.2039 45.1 44.3802 45.2058C44.5566 45.3116 44.5742 45.4703 44.4331 45.6819C43.9747 46.3519 43.4104 46.8986 42.7403 47.3218C42.0703 47.745 41.171 48.0272 40.0424 48.1682V61.1817C40.0424 62.4864 39.6016 63.58 38.7199 64.4616C37.8382 65.3787 36.7802 65.837 35.5459 65.837H31.1551ZM85.8927 53.8815C85.6811 53.8815 85.5753 53.7757 85.5753 53.5641C85.5753 53.3525 85.6811 53.2467 85.8927 53.2467C87.1974 53.2467 88.3261 52.8412 89.2783 52.0299C90.2305 51.2186 90.7066 49.949 90.7066 48.2211C90.7066 46.7751 90.3012 45.5232 89.4899 44.4652C88.7142 43.4072 87.4975 42.8782 85.8398 42.8782H82.8773C82.6657 42.8782 82.5422 42.79 82.507 42.6137C81.9429 40.8503 81.1138 39.5807 80.0207 38.8048C78.9276 37.9937 77.5344 37.5352 75.8416 37.4294C75.1717 38.6285 74.1839 39.4925 72.8792 40.0215C71.5744 40.5153 70.2692 40.7621 68.9645 40.7621H60.5534C59.6362 40.7621 58.7369 40.9738 57.8554 41.397C57.009 41.8202 56.3213 42.4373 55.7923 43.2485C55.2633 44.0243 54.9988 44.9413 54.9988 45.9993V46.1051C54.9988 48.0448 55.5278 49.4907 56.5858 50.4429C57.6789 51.3951 59.0192 51.8712 60.6063 51.8712H67.2188C67.4304 51.8712 67.5362 51.977 67.5362 52.1886C67.5362 52.4002 67.4304 52.506 67.2188 52.506H60.6063C58.8427 52.506 57.3615 51.977 56.1626 50.919C54.9637 49.8259 54.364 48.2211 54.364 46.1051V45.9993C54.364 44.7649 54.6814 43.7069 55.3162 42.8253C55.9861 41.9083 56.7796 41.2206 57.6967 40.7621H56.7445C54.9459 40.7621 53.394 40.2155 52.0893 39.1222C50.8197 37.9937 50.1849 36.5654 50.1849 34.8373V25.7384C50.1849 23.5518 50.8375 21.8767 52.1422 20.7129C53.4825 19.5138 55.0868 18.9143 56.9561 18.9143C58.9312 18.9143 60.5711 19.4785 61.8759 20.6071C63.1806 21.7356 63.8861 23.2873 63.9919 25.2623C63.9919 25.4739 63.8861 25.5797 63.6745 25.5797C63.4629 25.5797 63.3571 25.4739 63.3571 25.2623C63.2513 23.4637 62.6165 22.0706 61.4527 21.0832C60.2888 20.0604 58.7898 19.5491 56.9561 19.5491C55.2282 19.5491 53.7643 20.0957 52.5654 21.189C51.4016 22.247 50.8197 23.7635 50.8197 25.7384V34.8373C50.8197 36.4243 51.3838 37.7116 52.5125 38.699C53.6763 39.6512 55.0868 40.1273 56.7445 40.1273H68.9645C69.9874 40.1273 70.9925 39.9686 71.9799 39.6512C73.0028 39.2986 73.8843 38.7696 74.6249 38.0642C75.3655 37.3236 75.8238 36.3538 76.0003 35.1547C76.071 34.9431 76.1768 34.8373 76.3177 34.8373C76.6 34.8373 76.7058 34.9783 76.6351 35.2605C76.5293 35.7895 76.3706 36.3009 76.159 36.7946C77.5695 36.9004 78.9098 37.3589 80.1794 38.17C81.449 38.9459 82.4012 40.3037 83.036 42.2434H86.5804C87.8149 42.2434 88.7671 41.8731 89.437 41.1325C90.1069 40.3566 90.4421 39.422 90.4421 38.3287V23.9927C90.4421 22.7936 90.054 21.718 89.2783 20.7658C88.5377 19.7783 87.6033 19.2846 86.4746 19.2846H82.0838C80.8849 19.2846 79.8971 19.6725 79.1214 20.4484C78.3457 21.189 77.9576 22.1588 77.9576 23.3579V25.8442C77.9576 26.0558 77.8518 26.1616 77.6402 26.1616C77.4286 26.1616 77.3228 26.0558 77.3228 25.8442V25.6855C77.3228 24.0985 76.8116 22.8112 75.7887 21.8238C74.7658 20.801 73.3731 20.2897 71.6096 20.2897C71.3979 20.2897 71.2921 20.1839 71.2921 19.9723C71.2921 19.7607 71.3979 19.6549 71.6096 19.6549C72.985 19.6549 74.1666 19.9546 75.1539 20.5542C76.1412 21.1537 76.8645 21.9825 77.3228 23.0405C77.3935 21.7709 77.8696 20.7305 78.7511 19.9194C79.6682 19.073 80.7791 18.6498 82.0838 18.6498H86.4746C87.3561 18.6498 88.1323 18.9143 88.8022 19.4433C89.5077 19.9723 90.054 20.6423 90.4421 21.4535C90.8653 22.2646 91.0769 23.111 91.0769 23.9927V38.3287C91.0769 39.3162 90.8124 40.2155 90.2834 41.0266C89.7895 41.8025 89.0667 42.3315 88.1145 42.6137C89.2076 43.1427 90.0189 43.9009 90.5479 44.8884C91.0769 45.8406 91.3414 46.9515 91.3414 48.2211C91.3414 50.1255 90.7773 51.5538 89.6486 52.506C88.5555 53.4231 87.3032 53.8815 85.8927 53.8815ZM55.1046 60.0179C55.1046 59.7356 55.1224 59.4182 55.1575 59.0657C55.2282 58.6776 55.3162 58.3251 55.422 58.0077C55.4927 57.7961 55.6158 57.6903 55.7923 57.6903C55.9332 57.6903 56.0217 57.7432 56.0568 57.849C56.0919 57.9548 56.0919 58.0428 56.0568 58.1135C55.8452 58.7483 55.7394 59.3831 55.7394 60.0179C55.7394 61.64 56.4622 62.9803 57.9083 64.0384C59.3895 65.0964 61.2589 65.6605 63.5158 65.7312C64.5738 65.7312 65.7025 65.6605 66.9014 65.5196C68.1003 65.4138 69.2997 65.0435 70.4986 64.4086C71.6976 63.7738 72.8085 62.7336 73.8314 61.2875C73.9372 61.1466 74.043 61.0759 74.1488 61.0759C74.2546 61.0759 74.3604 61.1466 74.4662 61.2875C75.7007 62.8038 76.9876 63.8796 78.3279 64.5145C79.6682 65.1493 80.9551 65.5196 82.1896 65.6254C83.4593 65.7663 84.5702 65.837 85.5224 65.837C87.5326 65.837 89.1196 65.2902 90.2834 64.1971C91.4823 63.1039 92.082 61.7458 92.082 60.1237C92.082 58.6776 91.7295 57.4965 91.024 56.5794C90.9889 56.5087 90.9711 56.4207 90.9711 56.3149C91.0062 56.174 91.0947 56.1033 91.2356 56.1033C91.3414 56.1033 91.4472 56.1562 91.553 56.262C91.9411 56.7203 92.2229 57.32 92.3994 58.0606C92.611 58.7661 92.7168 59.4538 92.7168 60.1237C92.7168 61.9223 92.0642 63.4035 90.7595 64.5674C89.4899 65.7663 87.7442 66.4011 85.5224 66.4718C84.5702 66.4718 83.4241 66.4011 82.0838 66.2602C80.7791 66.1193 79.421 65.7134 78.0105 65.0435C76.6351 64.4087 75.3477 63.3506 74.1488 61.8694C73.1615 63.2448 72.0679 64.25 70.8689 64.8848C69.67 65.5547 68.4355 65.9606 67.1659 66.1015C65.9314 66.278 64.7147 66.366 63.5158 66.366C61.9288 66.3309 60.5005 66.0308 59.2308 65.4667C57.9612 64.9026 56.9561 64.1441 56.2155 63.1919C55.4749 62.2748 55.1046 61.2168 55.1046 60.0179ZM113.386 65.837C110.988 65.837 108.784 65.4667 106.774 64.7261C104.799 63.9854 103.212 62.8038 102.013 61.1817C100.849 59.5947 100.267 57.4965 100.267 54.8866V46.7928C100.267 45.77 100.497 44.7649 100.955 43.7775C101.449 42.79 102.084 41.9965 102.859 41.397C102.295 41.4675 101.731 41.5028 101.166 41.5028C100.602 41.5028 100.02 41.4322 99.4208 41.2912C97.7986 40.9032 96.5112 40.145 95.559 39.0164C94.6068 37.8879 94.1307 36.442 94.1307 34.6786C94.1307 33.021 94.5188 31.6985 95.2945 30.7111C96.0702 29.6883 97.1282 28.9124 98.4686 28.3834C99.7031 27.8897 100.567 27.2725 101.061 26.5319C101.555 25.7561 101.872 24.9097 102.013 23.9927C102.189 23.0757 102.489 22.1941 102.912 21.3477C103.37 20.5013 104.058 19.7959 104.975 19.2317C105.892 18.6674 107.109 18.3853 108.625 18.3853C109.966 18.3853 111.094 18.6674 112.011 19.2317C112.963 19.7607 113.704 20.4484 114.233 21.2948C114.762 22.1412 115.044 23.0228 115.079 23.9398C115.079 24.1514 114.973 24.2572 114.762 24.2572C114.55 24.2572 114.444 24.1514 114.444 23.9398C114.374 22.7054 113.845 21.5769 112.857 20.5542C111.87 19.5314 110.459 19.0201 108.625 19.0201C107.25 19.0201 106.139 19.2669 105.293 19.7607C104.481 20.2544 103.864 20.8892 103.441 21.6651C103.053 22.4409 102.789 23.2521 102.648 24.0985C102.507 25.086 102.136 26.0206 101.537 26.9022C100.973 27.7839 100.02 28.4892 98.6802 29.0182C97.4456 29.512 96.4761 30.1997 95.7706 31.0814C95.1007 31.963 94.7655 33.1621 94.7655 34.6786C94.7655 36.2656 95.1887 37.5881 96.0351 38.6461C96.8815 39.6689 98.0453 40.3389 99.5266 40.6563C101.29 41.0443 102.965 40.9208 104.552 40.286C106.174 39.6512 107.479 38.6285 108.467 37.2178C108.573 37.0768 108.678 37.0062 108.784 37.0062C108.855 37.0062 108.943 37.0768 109.049 37.2178C109.966 38.6285 111.006 39.6336 112.17 40.2331C113.334 40.8327 114.991 41.1325 117.142 41.1325H118.095C118.306 41.1325 118.412 41.2383 118.412 41.4499C118.412 41.6615 118.306 41.7673 118.095 41.7673H117.142C114.991 41.7673 113.281 41.4851 112.011 40.9208C110.777 40.3213 109.683 39.3162 108.731 37.9055C107.673 39.3515 106.298 40.3742 104.605 40.9737C103.441 41.5028 102.524 42.3315 101.854 43.4601C101.219 44.5533 100.902 45.6995 100.902 46.8986V54.8866C100.902 57.32 101.449 59.2951 102.542 60.8114C103.671 62.3277 105.169 63.4387 107.038 64.1442C108.943 64.8497 111.059 65.2022 113.386 65.2022H126.823C129.327 65.2022 131.619 64.6554 133.7 63.5622C135.816 62.4691 137.297 60.9523 138.144 59.0128C138.215 58.8719 138.32 58.8012 138.461 58.8012C138.602 58.8012 138.691 58.8541 138.726 58.9599C138.761 59.0657 138.761 59.1537 138.726 59.2244C138.126 60.6349 137.209 61.8343 135.975 62.8216C134.776 63.809 133.383 64.5496 131.796 65.0435C130.209 65.5725 128.551 65.837 126.823 65.837H113.386ZM122.697 43.6188C122.697 43.4072 122.803 43.3014 123.014 43.3014C123.226 43.3014 123.332 43.4072 123.332 43.6188C123.332 44.712 123.684 45.629 124.39 46.3696C125.095 47.1102 126.083 47.4805 127.352 47.4805H131.637C132.907 47.4805 133.894 47.1102 134.6 46.3696C135.305 45.629 135.658 44.712 135.658 43.6188V41.2383C135.658 40.9561 135.798 40.8151 136.081 40.8151H139.149C140.348 40.8151 141.371 40.4095 142.217 39.5983C143.064 38.7872 143.487 37.7645 143.487 36.5301V29.4944H135.922C135.71 29.4944 135.605 29.3885 135.605 29.1769V23.7811C135.605 22.582 135.234 21.5769 134.494 20.7658C133.753 19.9194 132.801 19.4962 131.637 19.4962H127.405C126.171 19.4962 125.183 19.937 124.443 20.8187C123.702 21.6651 123.332 22.7054 123.332 23.9398V24.2043C123.332 24.4159 123.226 24.5217 123.014 24.5217C122.803 24.5217 122.697 24.4159 122.697 24.2043V23.9398C122.697 22.5291 123.12 21.33 123.967 20.3426C124.848 19.3551 125.995 18.8614 127.405 18.8614H131.637C132.977 18.8614 134.071 19.3551 134.917 20.3426C135.798 21.2948 136.239 22.4409 136.239 23.7811V28.8595H143.804C144.016 28.8595 144.122 28.9653 144.122 29.1769V36.5301C144.122 37.9408 143.628 39.1222 142.64 40.0744C141.688 40.9914 140.524 41.4499 139.149 41.4499H136.292V43.6188C136.292 44.8884 135.869 45.964 135.023 46.8457C134.211 47.6921 133.083 48.1153 131.637 48.1153H127.352C125.942 48.1153 124.813 47.6921 123.967 46.8457C123.12 45.964 122.697 44.8884 122.697 43.6188ZM146.276 60.8643C144.901 60.8643 143.719 60.406 142.732 59.4889C141.744 58.5367 141.251 57.408 141.251 56.1033V52.2944C141.251 50.9897 141.744 49.8788 142.732 48.9617C143.719 48.0095 144.901 47.5334 146.276 47.5334C146.488 47.5334 146.594 47.6392 146.594 47.8508C146.594 48.0624 146.488 48.1682 146.276 48.1682C145.042 48.1682 144.001 48.5736 143.155 49.3849C142.309 50.1962 141.885 51.1657 141.885 52.2944V56.1033C141.885 57.2671 142.309 58.2544 143.155 59.0657C144.001 59.8414 145.042 60.2295 146.276 60.2295H183.888C185.122 60.2295 186.145 59.8414 186.957 59.0657C187.803 58.2544 188.226 57.2671 188.226 56.1033V52.2944C188.226 51.1657 187.803 50.1962 186.957 49.3849C186.145 48.5736 185.122 48.1682 183.888 48.1682H175.213C175.001 48.1682 174.895 48.0624 174.895 47.8508C174.895 47.7098 174.983 47.604 175.16 47.5334C176.57 47.2866 177.911 46.6693 179.18 45.6819C180.45 44.6944 181.472 43.3719 182.248 41.7144C183.059 40.0568 183.43 38.0995 183.359 35.8424C183.324 33.1974 182.725 30.8169 181.561 28.7008C180.397 26.5496 178.686 24.8391 176.429 23.5695C174.208 22.2999 171.439 21.6474 168.124 21.6122L161.988 21.5593C158.496 21.524 155.604 22.1412 153.312 23.4108C151.019 24.6452 149.309 26.3027 148.181 28.3834C147.052 30.4642 146.488 32.7389 146.488 35.2076C146.488 38.3464 147.281 40.9914 148.868 43.1427C150.455 45.2587 152.994 46.7222 156.486 47.5334C156.662 47.604 156.75 47.7098 156.75 47.8508C156.75 48.1331 156.627 48.2389 156.38 48.1682C152.747 47.3218 150.085 45.77 148.392 43.513C146.699 41.2206 145.853 38.4522 145.853 35.2076C145.853 32.6684 146.435 30.3055 147.599 28.1189C148.798 25.9324 150.596 24.1867 152.994 22.8818C155.392 21.5416 158.39 20.8892 161.988 20.9245L168.124 20.9774C171.545 21.0126 174.419 21.7003 176.747 23.0405C179.11 24.3807 180.89 26.1793 182.09 28.4363C183.324 30.6582 183.959 33.1268 183.994 35.8424C184.064 37.8174 183.783 39.5983 183.148 41.1854C182.548 42.7371 181.737 44.0596 180.714 45.1529C179.691 46.2109 178.563 47.0044 177.329 47.5334H183.888C185.228 47.5334 186.392 48.0095 187.38 48.9617C188.367 49.8788 188.861 50.9897 188.861 52.2944V56.1033C188.861 57.408 188.367 58.5367 187.38 59.4889C186.392 60.406 185.228 60.8643 183.888 60.8643H146.276ZM192.285 62.2397C190.91 62.2397 189.728 61.7814 188.741 60.8643C187.753 59.9121 187.26 58.7834 187.26 57.4787V53.6699C187.26 52.3651 187.753 51.2542 188.741 50.3371C189.728 49.3849 190.91 48.9088 192.285 48.9088H197.681C196.094 48.2389 194.859 47.1455 193.978 45.629C193.132 44.0772 192.708 42.3315 192.708 40.3918C192.708 37.7116 193.537 35.4545 195.195 33.6206C194.313 32.9152 193.608 32.1041 193.079 31.1872C192.55 30.235 192.285 29.1769 192.285 28.0131C192.285 26.2498 192.902 24.7333 194.137 23.4637C195.371 22.1941 196.958 21.5593 198.898 21.5593H219.582C221.556 21.5593 223.249 22.053 224.66 23.0405C226.106 23.9927 227.217 25.2976 227.993 26.9551C228.804 28.5774 229.21 30.376 229.21 32.351C229.21 33.8674 228.98 35.2605 228.522 36.5301C228.099 37.7997 227.464 38.8754 226.617 39.757C227.358 40.1802 227.94 40.8503 228.363 41.7673C228.786 42.6489 228.962 43.5835 228.892 44.571C228.857 45.3116 228.663 46.0698 228.31 46.8457C227.957 47.6216 227.393 48.274 226.617 48.803C225.841 49.2969 224.801 49.5436 223.496 49.5436H216.884C216.672 49.5436 216.566 49.4378 216.566 49.2262V44.7826C216.566 43.5482 216.143 42.5255 215.297 41.7144C214.485 40.8679 213.428 40.4447 212.123 40.4447H204.452C204.241 40.4447 204.135 40.3389 204.135 40.1273C204.135 39.9157 204.241 39.8099 204.452 39.8099H212.123C213.568 39.8099 214.768 40.3037 215.72 41.2912C216.707 42.2434 217.201 43.4072 217.201 44.7826V48.9088H223.496C225.224 48.9088 226.441 48.4505 227.146 47.5334C227.852 46.5812 228.222 45.5937 228.257 44.571C228.328 43.6188 228.169 42.7371 227.781 41.926C227.393 41.1148 226.846 40.5505 226.141 40.2331C224.978 41.2912 223.567 41.8731 221.909 41.9789C221.698 41.9789 221.592 41.8731 221.592 41.6615C221.592 41.4499 221.698 41.3441 221.909 41.3441C222.72 41.2735 223.443 41.0972 224.078 40.8151C224.748 40.4976 225.348 40.1097 225.877 39.6512C226.758 38.8401 227.428 37.7997 227.887 36.5301C228.345 35.2605 228.575 33.8674 228.575 32.351C228.575 30.4466 228.205 28.7361 227.464 27.2196C226.758 25.6679 225.736 24.4512 224.396 23.5695C223.055 22.6525 221.451 22.1941 219.582 22.1941H198.898C197.099 22.1941 195.653 22.7583 194.56 23.8869C193.466 24.9802 192.92 26.3556 192.92 28.0131C192.92 29.1064 193.149 30.0763 193.608 30.9227C194.101 31.7691 194.789 32.5273 195.671 33.1974C196.306 32.5978 197.028 32.1217 197.84 31.7691C198.686 31.4164 199.585 31.2401 200.538 31.2401C200.749 31.2401 200.855 31.3459 200.855 31.5575C200.855 31.7691 200.749 31.8749 200.538 31.8749C199.127 31.8749 197.875 32.2804 196.782 33.0916C195.688 33.8674 194.842 34.8902 194.242 36.1598C193.643 37.4294 193.343 38.8401 193.343 40.3918C193.343 42.7547 193.995 44.7649 195.3 46.4225C196.64 48.0801 198.545 48.9088 201.014 48.9088H205.14C205.352 48.9088 205.457 49.0146 205.457 49.2262C205.457 49.4378 205.352 49.5436 205.14 49.5436H192.285C191.051 49.5436 190.01 49.949 189.164 50.7603C188.318 51.5716 187.894 52.5412 187.894 53.6699V57.4787C187.894 58.6425 188.318 59.6298 189.164 60.4411C190.01 61.2168 191.051 61.6049 192.285 61.6049H229.897C231.131 61.6049 232.154 61.2168 232.966 60.4411C233.812 59.6298 234.235 58.6425 234.235 57.4787V53.6699C234.235 52.506 233.9 51.536 233.23 50.7603C232.56 49.949 231.625 49.5436 230.426 49.5436C230.215 49.5436 230.109 49.4378 230.109 49.2262C230.109 49.0146 230.215 48.9088 230.426 48.9088C231.802 48.9088 232.877 49.3849 233.653 50.3371C234.464 51.2542 234.87 52.3651 234.87 53.6699V57.4787C234.87 58.7834 234.376 59.9121 233.389 60.8643C232.401 61.7814 231.237 62.2397 229.897 62.2397H192.285Z" fill="black"/>
<path d="M166.068 31.7637C168.648 30.5569 171.53 32.6522 171.217 35.4485L171.2 35.5824C170.897 37.6339 168.949 39.0026 166.937 38.6228L166.742 38.5806L165.823 38.3552C165.208 38.2045 164.568 38.1884 163.948 38.3077L163.824 38.3336L162.411 38.6478C160.587 39.0532 158.915 37.5743 159.056 35.7454L159.075 35.5674C159.225 34.4938 159.989 33.6108 161.022 33.3032L161.123 33.2755L164.504 32.4057C164.716 32.3513 164.923 32.2823 165.125 32.1991L165.325 32.1113L166.068 31.7637Z" fill="black" stroke="black" stroke-width="1.3"/>
<path d="M27.3413 31.7402V49.0531" stroke="black" stroke-width="1.3" stroke-linecap="round"/>
<path d="M71.4061 19.958C68.9405 20.1985 67.3862 21.7118 66.7764 23.0839C66.1666 24.4561 66.9865 25.4714 67.0591 25.4027" stroke="black" stroke-width="1.3" stroke-linecap="round"/>
<path d="M109.818 53.6218C109.577 56.2668 111.064 56.8295 112.387 57.4706C113.71 58.1116 120.228 58.0159 120.157 57.95" stroke="black" stroke-width="1.3" stroke-linecap="round"/>
<path d="M204.241 40.095C202.084 40.2885 202.394 43.1157 202.394 44.244C202.393 45.3722 202.394 45.4462 202.394 46.1676" stroke="black" stroke-width="1.3" stroke-linecap="round"/>
<path d="M61.0547 31.5744L61.1913 31.588C61.2389 31.5927 61.2865 31.5993 61.3336 31.6077L61.4741 31.6387L68.5685 33.4924C68.8364 33.5624 69.0638 33.7357 69.2033 33.9714L69.2576 34.0761L69.2788 34.1236C69.325 34.2269 69.349 34.3387 69.349 34.4519C69.349 34.901 68.9806 35.2628 68.5315 35.255L60.8479 35.1206C60.3478 35.1119 59.8755 34.8927 59.5466 34.52L59.4826 34.4434C58.5429 33.251 59.4355 31.5311 60.9099 31.5654L61.0547 31.5744Z" fill="black" stroke="black" stroke-width="1.3"/>
<path d="M77.5969 26.2097C78.5587 31.9806 77.8373 37.2707 77.5969 37.7516M67.2572 25.4883C67.2572 25.4883 67.0168 27.6524 65.574 27.6524C64.1313 27.6524 63.6504 25.7287 63.6504 25.7287" stroke="black" stroke-width="1.3" stroke-linecap="round"/>
<path d="M26.2266 24.348C26.2266 22.9726 26.6498 21.844 27.4962 20.9624C28.3779 20.0454 29.4536 19.5869 30.7232 19.5869H34.9023C36.1719 19.5869 37.2299 20.0278 38.0763 20.9095C38.9227 21.7911 39.3459 22.8844 39.3459 24.1893V35.6158H43.4722C43.6838 35.6158 43.7896 35.7216 43.7896 35.9332C43.7896 36.1448 43.6838 36.2506 43.4722 36.2506H39.0285C38.8169 36.2506 38.7111 36.1448 38.7111 35.9332V24.1893C38.7111 23.0607 38.3408 22.1262 37.6002 21.3856C36.8949 20.6097 35.9956 20.2218 34.9023 20.2218H30.7232C29.6299 20.2218 28.713 20.6097 27.9723 21.3856C27.2317 22.1614 26.8614 23.1489 26.8614 24.348C26.8614 24.5596 26.7556 24.6654 26.544 24.6654C26.3324 24.6654 26.2266 24.5596 26.2266 24.348ZM43.6838 66.1923C43.6838 65.9806 43.7896 65.8748 44.0012 65.8748C45.1297 65.8748 46.0467 65.5045 46.752 64.7639C47.4574 64.0233 47.81 63.0889 47.81 61.9602V24.4009C47.81 23.2723 47.4574 22.3378 46.752 21.5972C46.0467 20.8213 45.1297 20.4334 44.0012 20.4334C43.7896 20.4334 43.6838 20.3276 43.6838 20.1159C43.6838 19.9043 43.7896 19.7985 44.0012 19.7985C45.3061 19.7985 46.3641 20.2394 47.1752 21.1211C48.0216 22.0027 48.4448 23.0784 48.4448 24.348V62.0131C48.4448 63.3178 48.004 64.3936 47.1223 65.24C46.2759 66.0864 45.2355 66.5096 44.0012 66.5096C43.7896 66.5096 43.6838 66.4039 43.6838 66.1923ZM30.5116 66.5625C29.242 66.5625 28.184 66.1042 27.3375 65.1871C26.4911 64.27 26.0679 63.1418 26.0679 61.8015V56.9347C24.4457 56.8996 22.841 56.5115 21.254 55.7709C19.667 55.0302 18.2739 53.8842 17.0749 52.3323C15.8052 53.8486 14.518 54.9067 13.2131 55.5064C11.9083 56.1061 10.4975 56.335 8.98108 56.1941C6.72401 55.9825 4.96065 55.1538 3.69104 53.7077C2.42143 52.2265 1.78662 50.375 1.78662 48.1532C1.78662 46.7778 2.01586 45.6669 2.47433 44.8205C2.9328 43.9388 3.54997 43.2158 4.32584 42.6515C5.10171 42.052 5.96576 41.4877 6.91797 40.9587C8.25813 40.2181 9.10453 39.2659 9.45719 38.1021C9.80984 36.9383 9.98619 35.6863 9.98619 34.3462L10.0391 27.2046C10.0391 25.6528 10.5328 24.2774 11.5203 23.0784C12.5431 21.8793 14.1301 21.2798 16.2813 21.2798C18.3621 21.2798 19.9138 21.8088 20.9366 22.8668C21.9946 23.9248 22.5413 25.1944 22.5765 26.6756C22.5765 26.852 22.4707 26.9401 22.2591 26.9401C22.0475 26.9401 21.9417 26.852 21.9417 26.6756C21.9064 25.3707 21.4303 24.2598 20.5134 23.3429C19.6317 22.3907 18.221 21.9146 16.2813 21.9146C14.9412 21.9146 13.8479 22.1791 13.0015 22.7081C12.1904 23.2371 11.5909 23.9071 11.2029 24.7183C10.8149 25.4941 10.621 26.323 10.621 27.2046V34.3462C10.621 35.7568 10.4094 37.1146 9.98619 38.4195C9.59824 39.6891 8.66368 40.7295 7.18247 41.5406C6.26551 42.0344 5.45439 42.5457 4.74905 43.0747C4.04371 43.6038 3.47944 44.2562 3.05623 45.0321C2.66829 45.8079 2.45669 46.8483 2.42143 48.1532C2.38616 50.1634 2.95043 51.8562 4.11424 53.2316C5.27805 54.5719 6.90032 55.3476 8.98108 55.5593C10.4623 55.7002 11.8377 55.4712 13.1073 54.8715C14.3769 54.2367 15.6113 53.1609 16.8104 51.6446C16.8809 51.5388 16.9691 51.4859 17.0749 51.4859C17.2159 51.4859 17.3041 51.5388 17.3394 51.6446C18.5032 53.2667 19.8786 54.4483 21.4656 55.189C23.0879 55.9296 24.7278 56.2999 26.3853 56.2999C26.5969 56.2999 26.7027 56.4057 26.7027 56.6173V61.8015C26.7027 63.0004 27.0554 63.9882 27.7607 64.7639C28.5014 65.5396 29.4183 65.9277 30.5116 65.9277H34.9023C35.9956 65.9277 36.9125 65.5396 37.6531 64.7639C38.3937 64.0233 38.764 63.0711 38.764 61.9073V48.7351C38.764 48.6645 38.7817 48.5764 38.8169 48.4706C38.8522 48.3648 38.9227 48.3119 39.0285 48.3119C40.1571 48.1708 41.0211 47.9416 41.6207 47.6242C42.2555 47.2715 42.8021 46.7425 43.2606 46.0372C43.4016 45.8608 43.5603 45.8256 43.7367 45.9314C43.913 46.0372 43.9306 46.1959 43.7896 46.4075C43.3311 47.0775 42.7668 47.6242 42.0968 48.0474C41.4267 48.4706 40.5274 48.7527 39.3988 48.8938V61.9073C39.3988 63.212 38.958 64.3056 38.0763 65.1871C37.1947 66.1042 36.1367 66.5625 34.9023 66.5625H30.5116ZM85.2491 54.607C85.0375 54.607 84.9317 54.5012 84.9317 54.2896C84.9317 54.078 85.0375 53.9722 85.2491 53.9722C86.5538 53.9722 87.6825 53.5668 88.6347 52.7555C89.587 51.9442 90.0631 50.6746 90.0631 48.9467C90.0631 47.5007 89.6576 46.2488 88.8463 45.1908C88.0706 44.1328 86.8539 43.6038 85.1962 43.6038H82.2338C82.0222 43.6038 81.8986 43.5156 81.8635 43.3393C81.2994 41.5759 80.4703 40.3063 79.3772 39.5304C78.284 38.7193 76.8908 38.2608 75.198 38.155C74.5281 39.3541 73.5403 40.2181 72.2356 40.7471C70.9309 41.2409 69.6257 41.4877 68.321 41.4877H59.9098C58.9927 41.4877 58.0934 41.6993 57.2119 42.1225C56.3655 42.5457 55.6778 43.1629 55.1488 43.9741C54.6198 44.7499 54.3553 45.6669 54.3553 46.7249V46.8307C54.3553 48.7703 54.8843 50.2163 55.9423 51.1685C57.0354 52.1207 58.3757 52.5968 59.9627 52.5968H66.5753C66.7869 52.5968 66.8927 52.7026 66.8927 52.9142C66.8927 53.1258 66.7869 53.2316 66.5753 53.2316H59.9627C58.1992 53.2316 56.718 52.7026 55.5191 51.6446C54.3201 50.5515 53.7204 48.9467 53.7204 46.8307V46.7249C53.7204 45.4905 54.0378 44.4325 54.6727 43.5509C55.3426 42.6339 56.1361 41.9462 57.0532 41.4877H56.101C54.3023 41.4877 52.7504 40.9411 51.4457 39.8478C50.1761 38.7193 49.5413 37.2909 49.5413 35.5629V26.464C49.5413 24.2774 50.1939 22.6023 51.4986 21.4385C52.8389 20.2394 54.4433 19.6398 56.3126 19.6398C58.2877 19.6398 59.9276 20.2041 61.2323 21.3327C62.537 22.4612 63.2425 24.0129 63.3483 25.9879C63.3483 26.1995 63.2425 26.3053 63.0309 26.3053C62.8193 26.3053 62.7135 26.1995 62.7135 25.9879C62.6077 24.1893 61.9729 22.7962 60.8091 21.8088C59.6453 20.786 58.1463 20.2747 56.3126 20.2747C54.5846 20.2747 53.1207 20.8213 51.9218 21.9146C50.758 22.9726 50.1761 24.489 50.1761 26.464V35.5629C50.1761 37.1499 50.7402 38.4372 51.8689 39.4246C53.0327 40.3768 54.4433 40.8529 56.101 40.8529H68.321C69.3439 40.8529 70.349 40.6942 71.3363 40.3768C72.3592 40.0242 73.2407 39.4952 73.9813 38.7898C74.7219 38.0492 75.1802 37.0793 75.3567 35.8803C75.4274 35.6687 75.5332 35.5629 75.6741 35.5629C75.9564 35.5629 76.0622 35.7039 75.9915 35.9861C75.8857 36.5151 75.727 37.0264 75.5154 37.5202C76.9259 37.626 78.2663 38.0845 79.5359 38.8956C80.8055 39.6715 81.7577 41.0293 82.3925 42.9689H85.9368C87.1713 42.9689 88.1235 42.5986 88.7934 41.858C89.4634 41.0822 89.7986 40.1476 89.7986 39.0543V24.7183C89.7986 23.5192 89.4105 22.4436 88.6347 21.4914C87.8941 20.5039 86.9597 20.0101 85.831 20.0101H81.4403C80.2414 20.0101 79.2536 20.3981 78.4779 21.174C77.7021 21.9146 77.314 22.8844 77.314 24.0835V26.5698C77.314 26.7814 77.2082 26.8872 76.9966 26.8872C76.785 26.8872 76.6792 26.7814 76.6792 26.5698V26.4111C76.6792 24.8241 76.168 23.5368 75.1451 22.5494C74.1222 21.5266 72.7295 21.0153 70.966 21.0153C70.7544 21.0153 70.6486 20.9095 70.6486 20.6979C70.6486 20.4863 70.7544 20.3805 70.966 20.3805C72.3414 20.3805 73.523 20.6802 74.5103 21.2798C75.4976 21.8793 76.2209 22.7081 76.6792 23.7661C76.7499 22.4965 77.226 21.4561 78.1076 20.645C79.0247 19.7985 80.1356 19.3753 81.4403 19.3753H85.831C86.7125 19.3753 87.4887 19.6398 88.1586 20.1688C88.8641 20.6979 89.4105 21.3679 89.7986 22.1791C90.2218 22.9902 90.4334 23.8366 90.4334 24.7183V39.0543C90.4334 40.0418 90.1689 40.9411 89.6399 41.7522C89.146 42.5281 88.4231 43.0571 87.4709 43.3393C88.564 43.8683 89.3754 44.6265 89.9044 45.614C90.4334 46.5662 90.6979 47.6771 90.6979 48.9467C90.6979 50.8511 90.1338 52.2794 89.0051 53.2316C87.9119 54.1487 86.6596 54.607 85.2491 54.607ZM54.4611 60.7435C54.4611 60.4612 54.4788 60.1438 54.514 59.7913C54.5846 59.4032 54.6727 59.0507 54.7785 58.7333C54.8491 58.5217 54.9723 58.4159 55.1488 58.4159C55.2897 58.4159 55.3782 58.4688 55.4133 58.5746C55.4484 58.6804 55.4484 58.7684 55.4133 58.8391C55.2017 59.4739 55.0959 60.1087 55.0959 60.7435C55.0959 62.3656 55.8187 63.7059 57.2648 64.7639C58.746 65.8219 60.6153 66.3861 62.8722 66.4567C63.9302 66.4567 65.0589 66.3861 66.2579 66.2452C67.4568 66.1394 68.6562 65.769 69.8551 65.1342C71.054 64.4994 72.1649 63.4592 73.1878 62.0131C73.2936 61.8722 73.3994 61.8015 73.5052 61.8015C73.611 61.8015 73.7168 61.8722 73.8226 62.0131C75.0571 63.5294 76.344 64.6052 77.6844 65.24C79.0247 65.8748 80.3116 66.2452 81.5461 66.351C82.8157 66.4919 83.9266 66.5625 84.8788 66.5625C86.889 66.5625 88.4761 66.0158 89.6399 64.9226C90.8388 63.8295 91.4385 62.4714 91.4385 60.8493C91.4385 59.4032 91.086 58.2221 90.3805 57.305C90.3454 57.2343 90.3276 57.1463 90.3276 57.0405C90.3627 56.8996 90.4512 56.8289 90.5921 56.8289C90.6979 56.8289 90.8037 56.8818 90.9095 56.9876C91.2976 57.4459 91.5794 58.0456 91.7559 58.7862C91.9675 59.4917 92.0733 60.1794 92.0733 60.8493C92.0733 62.6479 91.4207 64.1291 90.116 65.2929C88.8463 66.4919 87.1006 67.1267 84.8788 67.1974C83.9266 67.1974 82.7806 67.1267 81.4403 66.9858C80.1356 66.8448 78.7775 66.439 77.367 65.769C75.9915 65.1342 74.7041 64.0762 73.5052 62.595C72.5179 63.9704 71.4243 64.9755 70.2254 65.6103C69.0265 66.2803 67.792 66.6861 66.5224 66.8271C65.2878 67.0035 64.0711 67.0916 62.8722 67.0916C61.2852 67.0564 59.8569 66.7564 58.5873 66.1923C57.3177 65.6281 56.3126 64.8697 55.572 63.9175C54.8314 63.0004 54.4611 61.9424 54.4611 60.7435ZM112.743 66.5625C110.345 66.5625 108.141 66.1922 106.13 65.4516C104.155 64.711 102.568 63.5294 101.369 61.9073C100.206 60.3203 99.6236 58.2221 99.6236 55.6122V47.5184C99.6236 46.4956 99.853 45.4905 100.311 44.5031C100.805 43.5156 101.44 42.7221 102.216 42.1225C101.652 42.1931 101.087 42.2283 100.523 42.2283C99.9588 42.2283 99.3769 42.1578 98.7772 42.0167C97.1551 41.6288 95.8677 40.8706 94.9155 39.742C93.9633 38.6135 93.4872 37.1675 93.4872 35.4042C93.4872 33.7466 93.8753 32.4241 94.651 31.4366C95.4267 30.4139 96.4847 29.638 97.825 29.109C99.0595 28.6153 99.9232 27.9981 100.417 27.2575C100.911 26.4817 101.228 25.6352 101.369 24.7183C101.546 23.8013 101.845 22.9197 102.269 22.0733C102.727 21.2269 103.415 20.5215 104.332 19.9572C105.249 19.393 106.466 19.1108 107.982 19.1108C109.322 19.1108 110.45 19.393 111.368 19.9572C112.32 20.4863 113.06 21.174 113.589 22.0204C114.118 22.8668 114.401 23.7484 114.436 24.6654C114.436 24.877 114.33 24.9828 114.118 24.9828C113.907 24.9828 113.801 24.877 113.801 24.6654C113.73 23.431 113.201 22.3025 112.214 21.2798C111.227 20.257 109.816 19.7456 107.982 19.7456C106.606 19.7456 105.496 19.9925 104.649 20.4863C103.838 20.98 103.221 21.6148 102.798 22.3907C102.41 23.1665 102.145 23.9777 102.004 24.8241C101.863 25.8115 101.493 26.7462 100.893 27.6278C100.329 28.5095 99.3769 29.2148 98.0366 29.7438C96.8021 30.2376 95.8326 30.9253 95.1271 31.8069C94.4572 32.6886 94.122 33.8877 94.122 35.4042C94.122 36.9912 94.5452 38.3137 95.3916 39.3717C96.238 40.3945 97.4018 41.0645 98.883 41.3819C100.647 41.7699 102.322 41.6464 103.909 41.0116C105.531 40.3768 106.836 39.3541 107.823 37.9434C107.929 37.8024 108.035 37.7318 108.141 37.7318C108.211 37.7318 108.299 37.8024 108.405 37.9434C109.322 39.3541 110.362 40.3592 111.526 40.9587C112.69 41.5583 114.348 41.858 116.499 41.858H117.451C117.663 41.858 117.768 41.9638 117.768 42.1754C117.768 42.387 117.663 42.4928 117.451 42.4928H116.499C114.348 42.4928 112.637 42.2107 111.368 41.6464C110.133 41.0469 109.04 40.0418 108.088 38.6311C107.03 40.0771 105.654 41.0998 103.961 41.6993C102.798 42.2283 101.881 43.0571 101.211 44.1857C100.576 45.2789 100.258 46.4251 100.258 47.6242V55.6122C100.258 58.0456 100.805 60.0207 101.898 61.537C103.027 63.0533 104.526 64.1642 106.395 64.8697C108.299 65.5752 110.415 65.9277 112.743 65.9277H126.18C128.684 65.9277 130.976 65.3809 133.057 64.2878C135.173 63.1947 136.654 61.6779 137.5 59.7384C137.571 59.5975 137.677 59.5268 137.818 59.5268C137.959 59.5268 138.047 59.5797 138.082 59.6855C138.117 59.7913 138.117 59.8793 138.082 59.95C137.483 61.3605 136.566 62.5599 135.331 63.5472C134.133 64.5345 132.739 65.2751 131.152 65.769C129.565 66.298 127.908 66.5625 126.18 66.5625H112.743ZM122.053 44.3444C122.053 44.1328 122.159 44.027 122.371 44.027C122.582 44.027 122.688 44.1328 122.688 44.3444C122.688 45.4376 123.041 46.3546 123.746 47.0952C124.452 47.8358 125.439 48.2061 126.709 48.2061H130.994C132.263 48.2061 133.251 47.8358 133.956 47.0952C134.661 46.3546 135.014 45.4376 135.014 44.3444V41.9638C135.014 41.6817 135.155 41.5406 135.437 41.5406H138.505C139.704 41.5406 140.727 41.1351 141.574 40.3239C142.42 39.5128 142.843 38.4901 142.843 37.2557V30.2199H135.279C135.067 30.2199 134.961 30.1141 134.961 29.9025V24.5067C134.961 23.3076 134.591 22.3025 133.85 21.4914C133.11 20.645 132.157 20.2218 130.994 20.2218H126.762C125.527 20.2218 124.54 20.6626 123.799 21.5443C123.059 22.3907 122.688 23.431 122.688 24.6654V24.9299C122.688 25.1415 122.582 25.2473 122.371 25.2473C122.159 25.2473 122.053 25.1415 122.053 24.9299V24.6654C122.053 23.2547 122.477 22.0556 123.323 21.0682C124.205 20.0807 125.351 19.5869 126.762 19.5869H130.994C132.334 19.5869 133.427 20.0807 134.273 21.0682C135.155 22.0204 135.596 23.1665 135.596 24.5067V29.5851H143.161C143.372 29.5851 143.478 29.6909 143.478 29.9025V37.2557C143.478 38.6664 142.984 39.8478 141.997 40.8C141.045 41.717 139.881 42.1754 138.505 42.1754H135.649V44.3444C135.649 45.614 135.226 46.6896 134.379 47.5713C133.568 48.4177 132.44 48.8409 130.994 48.8409H126.709C125.298 48.8409 124.169 48.4177 123.323 47.5713C122.477 46.6896 122.053 45.614 122.053 44.3444ZM145.633 61.5899C144.257 61.5899 143.076 61.1316 142.088 60.2145C141.1 59.2623 140.607 58.1336 140.607 56.8289V53.02C140.607 51.7153 141.1 50.6044 142.088 49.6873C143.076 48.7351 144.257 48.259 145.633 48.259C145.844 48.259 145.95 48.3648 145.95 48.5764C145.95 48.788 145.844 48.8938 145.633 48.8938C144.398 48.8938 143.358 49.2992 142.511 50.1105C141.665 50.9218 141.242 51.8913 141.242 53.02V56.8289C141.242 57.9927 141.665 58.98 142.511 59.7913C143.358 60.567 144.398 60.9551 145.633 60.9551H183.245C184.479 60.9551 185.502 60.567 186.313 59.7913C187.159 58.98 187.583 57.9927 187.583 56.8289V53.02C187.583 51.8913 187.159 50.9218 186.313 50.1105C185.502 49.2992 184.479 48.8938 183.245 48.8938H174.569C174.358 48.8938 174.252 48.788 174.252 48.5764C174.252 48.4353 174.34 48.3295 174.516 48.259C175.927 48.0121 177.267 47.3949 178.537 46.4075C179.806 45.42 180.829 44.0975 181.605 42.4399C182.416 40.7824 182.786 38.8251 182.716 36.568C182.68 33.923 182.081 31.5424 180.917 29.4264C179.753 27.2752 178.043 25.5647 175.786 24.2951C173.564 23.0255 170.795 22.373 167.48 22.3378L161.344 22.2849C157.853 22.2496 154.96 22.8668 152.668 24.1364C150.376 25.3707 148.665 27.0283 147.537 29.109C146.408 31.1898 145.844 33.4645 145.844 35.9332C145.844 39.072 146.638 41.717 148.225 43.8683C149.812 45.9843 152.351 47.4478 155.842 48.259C156.018 48.3295 156.107 48.4353 156.107 48.5764C156.107 48.8587 155.983 48.9645 155.737 48.8938C152.104 48.0474 149.441 46.4956 147.749 44.2386C146.056 41.9462 145.209 39.1778 145.209 35.9332C145.209 33.394 145.791 31.0311 146.955 28.8445C148.154 26.658 149.953 24.9122 152.351 23.6074C154.749 22.2672 157.747 21.6148 161.344 21.6501L167.48 21.703C170.901 21.7382 173.776 22.4259 176.103 23.7661C178.466 25.1062 180.247 26.9049 181.446 29.1619C182.68 31.3837 183.315 33.8524 183.351 36.568C183.421 38.543 183.139 40.3239 182.504 41.9109C181.905 43.4627 181.093 44.7852 180.071 45.8785C179.048 46.9365 177.919 47.73 176.685 48.259H183.245C184.585 48.259 185.748 48.7351 186.736 49.6873C187.724 50.6044 188.217 51.7153 188.217 53.02V56.8289C188.217 58.1336 187.724 59.2623 186.736 60.2145C185.748 61.1316 184.585 61.5899 183.245 61.5899H145.633ZM191.642 62.9653C190.266 62.9653 189.085 62.507 188.097 61.5899C187.109 60.6377 186.616 59.509 186.616 58.2043V54.3954C186.616 53.0907 187.109 51.9798 188.097 51.0627C189.085 50.1105 190.266 49.6344 191.642 49.6344H197.037C195.45 48.9645 194.216 47.871 193.334 46.3546C192.488 44.8028 192.065 43.0571 192.065 41.1174C192.065 38.4372 192.893 36.18 194.551 34.3462C193.669 33.6408 192.964 32.8297 192.435 31.9128C191.906 30.9605 191.642 29.9025 191.642 28.7387C191.642 26.9754 192.259 25.4589 193.493 24.1893C194.727 22.9197 196.314 22.2849 198.254 22.2849H218.938C220.913 22.2849 222.606 22.7786 224.017 23.7661C225.462 24.7183 226.573 26.0231 227.349 27.6807C228.16 29.303 228.566 31.1016 228.566 33.0766C228.566 34.593 228.337 35.9861 227.878 37.2557C227.455 38.5253 226.82 39.601 225.974 40.4826C226.715 40.9058 227.296 41.5759 227.72 42.4928C228.143 43.3745 228.319 44.3091 228.249 45.2966C228.213 46.0372 228.019 46.7954 227.667 47.5713C227.314 48.3471 226.75 48.9996 225.974 49.5286C225.198 50.0225 224.158 50.2692 222.853 50.2692H216.24C216.029 50.2692 215.923 50.1634 215.923 49.9518V45.5082C215.923 44.2738 215.5 43.2511 214.653 42.4399C213.842 41.5935 212.784 41.1703 211.479 41.1703H203.809C203.597 41.1703 203.491 41.0645 203.491 40.8529C203.491 40.6413 203.597 40.5355 203.809 40.5355H211.479C212.925 40.5355 214.124 41.0293 215.076 42.0167C216.064 42.9689 216.558 44.1328 216.558 45.5082V49.6344H222.853C224.581 49.6344 225.797 49.1761 226.503 48.259C227.208 47.3068 227.578 46.3193 227.614 45.2966C227.684 44.3444 227.525 43.4627 227.138 42.6515C226.75 41.8404 226.203 41.2761 225.498 40.9587C224.334 42.0167 222.923 42.5986 221.266 42.7044C221.054 42.7044 220.948 42.5986 220.948 42.387C220.948 42.1754 221.054 42.0696 221.266 42.0696C222.077 41.9991 222.8 41.8228 223.435 41.5406C224.105 41.2232 224.704 40.8353 225.233 40.3768C226.115 39.5657 226.785 38.5253 227.244 37.2557C227.702 35.9861 227.931 34.593 227.931 33.0766C227.931 31.1721 227.561 29.4617 226.82 27.9452C226.115 26.3935 225.092 25.1767 223.752 24.2951C222.412 23.3781 220.807 22.9197 218.938 22.9197H198.254C196.455 22.9197 195.009 23.4839 193.916 24.6125C192.823 25.7057 192.276 27.0812 192.276 28.7387C192.276 29.832 192.505 30.8018 192.964 31.6482C193.457 32.4947 194.145 33.2529 195.027 33.923C195.662 33.3234 196.385 32.8473 197.196 32.4947C198.043 32.142 198.942 31.9657 199.894 31.9657C200.106 31.9657 200.211 32.0715 200.211 32.2831C200.211 32.4947 200.106 32.6005 199.894 32.6005C198.483 32.6005 197.231 33.006 196.138 33.8172C195.044 34.593 194.198 35.6158 193.599 36.8854C192.999 38.155 192.7 39.5657 192.7 41.1174C192.7 43.4803 193.352 45.4905 194.657 47.1481C195.997 48.8056 197.901 49.6344 200.37 49.6344H204.496C204.708 49.6344 204.814 49.7402 204.814 49.9518C204.814 50.1634 204.708 50.2692 204.496 50.2692H191.642C190.407 50.2692 189.367 50.6746 188.52 51.4859C187.674 52.2972 187.251 53.2667 187.251 54.3954V58.2043C187.251 59.3681 187.674 60.3554 188.52 61.1667C189.367 61.9424 190.407 62.3305 191.642 62.3305H229.254C230.488 62.3305 231.511 61.9424 232.322 61.1667C233.168 60.3554 233.592 59.3681 233.592 58.2043V54.3954C233.592 53.2316 233.256 52.2616 232.587 51.4859C231.916 50.6746 230.982 50.2692 229.783 50.2692C229.571 50.2692 229.465 50.1634 229.465 49.9518C229.465 49.7402 229.571 49.6344 229.783 49.6344C231.158 49.6344 232.234 50.1105 233.01 51.0627C233.821 51.9798 234.226 53.0907 234.226 54.3954V58.2043C234.226 59.509 233.733 60.6377 232.745 61.5899C231.757 62.507 230.594 62.9653 229.254 62.9653H191.642Z" fill="black"/>
<path d="M165.424 32.4893C168.004 31.2825 170.886 33.3778 170.573 36.1741L170.556 36.308C170.254 38.3595 168.305 39.7282 166.293 39.3484L166.099 39.3062L165.179 39.0808C164.564 38.9301 163.925 38.914 163.304 39.0333L163.18 39.0592L161.767 39.3733C159.944 39.7788 158.271 38.2998 158.412 36.4709L158.431 36.293C158.582 35.2194 159.346 34.3364 160.379 34.0288L160.48 34.0011L163.861 33.1313C164.072 33.0769 164.28 33.0079 164.482 32.9247L164.681 32.8369L165.424 32.4893Z" fill="black" stroke="black" stroke-width="1.3"/>
<path d="M26.6978 32.4658V49.7787" stroke="black" stroke-width="1.3" stroke-linecap="round"/>
<path d="M70.7626 20.6836C68.2969 20.9241 66.7426 22.4373 66.1328 23.8095C65.523 25.1817 66.343 26.197 66.4156 26.1283" stroke="black" stroke-width="1.3" stroke-linecap="round"/>
<path d="M109.174 54.3474C108.934 56.9924 110.421 57.5551 111.744 58.1962C113.067 58.8372 119.584 58.7415 119.514 58.6756" stroke="black" stroke-width="1.3" stroke-linecap="round"/>
<path d="M203.598 40.8206C201.44 41.0141 201.751 43.8413 201.75 44.9695C201.75 46.0978 201.75 46.1718 201.75 46.8932" stroke="black" stroke-width="1.3" stroke-linecap="round"/>
<path d="M60.4111 32.3L60.5477 32.3136C60.5953 32.3183 60.6429 32.3249 60.6901 32.3333L60.8305 32.3643L67.9249 34.218C68.1928 34.288 68.4203 34.4613 68.5597 34.697L68.6141 34.8017L68.6352 34.8492C68.6814 34.9525 68.7055 35.0643 68.7055 35.1775C68.7055 35.6266 68.3371 35.9884 67.8879 35.9806L60.2044 35.8462C59.7042 35.8375 59.2319 35.6183 58.903 35.2456L58.839 35.169C57.8993 33.9765 58.7919 32.2567 60.2664 32.291L60.4111 32.3Z" fill="black" stroke="black" stroke-width="1.3"/>
<path d="M76.9533 26.9352C77.9151 32.7062 77.1938 37.9962 76.9533 38.4772M66.6137 26.2139C66.6137 26.2139 66.3732 28.378 64.9305 28.378C63.4877 28.378 63.0068 26.4543 63.0068 26.4543" stroke="black" stroke-width="1.3" stroke-linecap="round"/>
<path d="M27.5987 24.348C27.5987 22.9726 28.0219 21.844 28.8683 20.9624C29.75 20.0454 30.8256 19.5869 32.0952 19.5869H36.2744C37.544 19.5869 38.602 20.0278 39.4484 20.9095C40.2948 21.7911 40.718 22.8844 40.718 24.1893V35.6158H44.8443C45.0559 35.6158 45.1617 35.7216 45.1617 35.9332C45.1617 36.1448 45.0559 36.2506 44.8443 36.2506H40.4006C40.189 36.2506 40.0832 36.1448 40.0832 35.9332V24.1893C40.0832 23.0607 39.7129 22.1262 38.9723 21.3856C38.2669 20.6097 37.3676 20.2218 36.2744 20.2218H32.0952C31.002 20.2218 30.085 20.6097 29.3444 21.3856C28.6038 22.1614 28.2335 23.1489 28.2335 24.348C28.2335 24.5596 28.1277 24.6654 27.9161 24.6654C27.7045 24.6654 27.5987 24.5596 27.5987 24.348ZM45.0559 66.1923C45.0559 65.9806 45.1617 65.8748 45.3733 65.8748C46.5018 65.8748 47.4187 65.5045 48.1241 64.7639C48.8294 64.0233 49.1821 63.0889 49.1821 61.9602V24.4009C49.1821 23.2723 48.8294 22.3378 48.1241 21.5972C47.4187 20.8213 46.5018 20.4334 45.3733 20.4334C45.1617 20.4334 45.0559 20.3276 45.0559 20.1159C45.0559 19.9043 45.1617 19.7985 45.3733 19.7985C46.6781 19.7985 47.7361 20.2394 48.5473 21.1211C49.3937 22.0027 49.8169 23.0784 49.8169 24.348V62.0131C49.8169 63.3178 49.376 64.3936 48.4944 65.24C47.648 66.0864 46.6076 66.5096 45.3733 66.5096C45.1617 66.5096 45.0559 66.4039 45.0559 66.1923ZM31.8836 66.5625C30.614 66.5625 29.556 66.1042 28.7096 65.1871C27.8632 64.27 27.44 63.1418 27.44 61.8015V56.9347C25.8177 56.8996 24.2131 56.5115 22.6261 55.7709C21.039 55.0302 19.646 53.8842 18.4469 52.3323C17.1773 53.8486 15.8901 54.9067 14.5852 55.5064C13.2803 56.1061 11.8696 56.335 10.3532 56.1941C8.09608 55.9825 6.33272 55.1538 5.06311 53.7077C3.7935 52.2265 3.15869 50.375 3.15869 48.1532C3.15869 46.7778 3.38793 45.6669 3.8464 44.8205C4.30487 43.9388 4.92204 43.2158 5.69791 42.6515C6.47378 42.052 7.33783 41.4877 8.29004 40.9587C9.6302 40.2181 10.4766 39.2659 10.8293 38.1021C11.1819 36.9383 11.3583 35.6863 11.3583 34.3462L11.4112 27.2046C11.4112 25.6528 11.9049 24.2774 12.8924 23.0784C13.9151 21.8793 15.5021 21.2798 17.6534 21.2798C19.7342 21.2798 21.2859 21.8088 22.3087 22.8668C23.3667 23.9248 23.9133 25.1944 23.9486 26.6756C23.9486 26.852 23.8428 26.9401 23.6312 26.9401C23.4196 26.9401 23.3138 26.852 23.3138 26.6756C23.2785 25.3707 22.8024 24.2598 21.8855 23.3429C21.0038 22.3907 19.5931 21.9146 17.6534 21.9146C16.3133 21.9146 15.22 22.1791 14.3736 22.7081C13.5624 23.2371 12.9629 23.9071 12.575 24.7183C12.187 25.4941 11.9931 26.323 11.9931 27.2046V34.3462C11.9931 35.7568 11.7815 37.1146 11.3583 38.4195C10.9703 39.6891 10.0358 40.7295 8.55454 41.5406C7.63758 42.0344 6.82646 42.5457 6.12112 43.0747C5.41578 43.6038 4.85151 44.2562 4.4283 45.0321C4.04036 45.8079 3.82876 46.8483 3.7935 48.1532C3.75823 50.1634 4.3225 51.8562 5.48631 53.2316C6.65012 54.5719 8.27239 55.3476 10.3532 55.5593C11.8344 55.7002 13.2098 55.4712 14.4794 54.8715C15.749 54.2367 16.9834 53.1609 18.1824 51.6446C18.253 51.5388 18.3411 51.4859 18.4469 51.4859C18.588 51.4859 18.6762 51.5388 18.7114 51.6446C19.8752 53.2667 21.2506 54.4483 22.8377 55.189C24.4599 55.9296 26.0998 56.2999 27.7574 56.2999C27.969 56.2999 28.0748 56.4057 28.0748 56.6173V61.8015C28.0748 63.0004 28.4275 63.9882 29.1328 64.7639C29.8734 65.5396 30.7904 65.9277 31.8836 65.9277H36.2744C37.3676 65.9277 38.2846 65.5396 39.0252 64.7639C39.7658 64.0233 40.1361 63.0711 40.1361 61.9073V48.7351C40.1361 48.6645 40.1538 48.5764 40.189 48.4706C40.2243 48.3648 40.2948 48.3119 40.4006 48.3119C41.5292 48.1708 42.3932 47.9416 42.9927 47.6242C43.6275 47.2715 44.1742 46.7425 44.6327 46.0372C44.7737 45.8608 44.9324 45.8256 45.1088 45.9314C45.2851 46.0372 45.3027 46.1959 45.1617 46.4075C44.7032 47.0775 44.1389 47.6242 43.4688 48.0474C42.7988 48.4706 41.8995 48.7527 40.7709 48.8938V61.9073C40.7709 63.212 40.3301 64.3056 39.4484 65.1871C38.5667 66.1042 37.5087 66.5625 36.2744 66.5625H31.8836ZM86.6212 54.607C86.4096 54.607 86.3038 54.5012 86.3038 54.2896C86.3038 54.078 86.4096 53.9722 86.6212 53.9722C87.9259 53.9722 89.0546 53.5668 90.0068 52.7555C90.959 51.9442 91.4351 50.6746 91.4351 48.9467C91.4351 47.5007 91.0297 46.2488 90.2184 45.1908C89.4427 44.1328 88.226 43.6038 86.5683 43.6038H83.6059C83.3943 43.6038 83.2707 43.5156 83.2356 43.3393C82.6714 41.5759 81.8423 40.3063 80.7492 39.5304C79.6561 38.7193 78.2629 38.2608 76.5701 38.155C75.9002 39.3541 74.9124 40.2181 73.6077 40.7471C72.303 41.2409 70.9978 41.4877 69.693 41.4877H61.2819C60.3648 41.4877 59.4655 41.6993 58.5839 42.1225C57.7375 42.5457 57.0498 43.1629 56.5208 43.9741C55.9918 44.7499 55.7273 45.6669 55.7273 46.7249V46.8307C55.7273 48.7703 56.2563 50.2163 57.3143 51.1685C58.4074 52.1207 59.7478 52.5968 61.3348 52.5968H67.9473C68.1589 52.5968 68.2647 52.7026 68.2647 52.9142C68.2647 53.1258 68.1589 53.2316 67.9473 53.2316H61.3348C59.5713 53.2316 58.09 52.7026 56.8911 51.6446C55.6922 50.5515 55.0925 48.9467 55.0925 46.8307V46.7249C55.0925 45.4905 55.4099 44.4325 56.0447 43.5509C56.7146 42.6339 57.5081 41.9462 58.4252 41.4877H57.473C55.6744 41.4877 54.1225 40.9411 52.8178 39.8478C51.5482 38.7193 50.9134 37.2909 50.9134 35.5629V26.464C50.9134 24.2774 51.566 22.6023 52.8707 21.4385C54.211 20.2394 55.8153 19.6398 57.6846 19.6398C59.6597 19.6398 61.2997 20.2041 62.6044 21.3327C63.9091 22.4612 64.6146 24.0129 64.7204 25.9879C64.7204 26.1995 64.6146 26.3053 64.403 26.3053C64.1914 26.3053 64.0856 26.1995 64.0856 25.9879C63.9798 24.1893 63.345 22.7962 62.1812 21.8088C61.0174 20.786 59.5184 20.2747 57.6846 20.2747C55.9567 20.2747 54.4928 20.8213 53.2939 21.9146C52.1301 22.9726 51.5482 24.489 51.5482 26.464V35.5629C51.5482 37.1499 52.1123 38.4372 53.241 39.4246C54.4048 40.3768 55.8153 40.8529 57.473 40.8529H69.693C70.7159 40.8529 71.7211 40.6942 72.7084 40.3768C73.7313 40.0242 74.6128 39.4952 75.3534 38.7898C76.094 38.0492 76.5523 37.0793 76.7288 35.8803C76.7995 35.6687 76.9053 35.5629 77.0462 35.5629C77.3285 35.5629 77.4343 35.7039 77.3636 35.9861C77.2578 36.5151 77.0991 37.0264 76.8875 37.5202C78.298 37.626 79.6383 38.0845 80.9079 38.8956C82.1775 39.6715 83.1298 41.0293 83.7646 42.9689H87.3089C88.5434 42.9689 89.4956 42.5986 90.1655 41.858C90.8354 41.0822 91.1706 40.1476 91.1706 39.0543V24.7183C91.1706 23.5192 90.7825 22.4436 90.0068 21.4914C89.2662 20.5039 88.3318 20.0101 87.2031 20.0101H82.8124C81.6134 20.0101 80.6256 20.3981 79.8499 21.174C79.0742 21.9146 78.6861 22.8844 78.6861 24.0835V26.5698C78.6861 26.7814 78.5803 26.8872 78.3687 26.8872C78.1571 26.8872 78.0513 26.7814 78.0513 26.5698V26.4111C78.0513 24.8241 77.5401 23.5368 76.5172 22.5494C75.4943 21.5266 74.1016 21.0153 72.3381 21.0153C72.1265 21.0153 72.0207 20.9095 72.0207 20.6979C72.0207 20.4863 72.1265 20.3805 72.3381 20.3805C73.7135 20.3805 74.8951 20.6802 75.8824 21.2798C76.8697 21.8793 77.593 22.7081 78.0513 23.7661C78.122 22.4965 78.5981 21.4561 79.4796 20.645C80.3967 19.7985 81.5076 19.3753 82.8124 19.3753H87.2031C88.0846 19.3753 88.8608 19.6398 89.5307 20.1688C90.2362 20.6979 90.7825 21.3679 91.1706 22.1791C91.5938 22.9902 91.8054 23.8366 91.8054 24.7183V39.0543C91.8054 40.0418 91.5409 40.9411 91.0119 41.7522C90.518 42.5281 89.7952 43.0571 88.843 43.3393C89.9361 43.8683 90.7474 44.6265 91.2764 45.614C91.8054 46.5662 92.0699 47.6771 92.0699 48.9467C92.0699 50.8511 91.5058 52.2794 90.3771 53.2316C89.284 54.1487 88.0317 54.607 86.6212 54.607ZM55.8331 60.7435C55.8331 60.4612 55.8509 60.1438 55.886 59.7913C55.9567 59.4032 56.0447 59.0507 56.1505 58.7333C56.2212 58.5217 56.3443 58.4159 56.5208 58.4159C56.6617 58.4159 56.7502 58.4688 56.7853 58.5746C56.8204 58.6804 56.8204 58.7684 56.7853 58.8391C56.5737 59.4739 56.4679 60.1087 56.4679 60.7435C56.4679 62.3656 57.1907 63.7059 58.6368 64.7639C60.1181 65.8219 61.9874 66.3861 64.2443 66.4567C65.3023 66.4567 66.431 66.3861 67.6299 66.2452C68.8288 66.1394 70.0282 65.769 71.2272 65.1342C72.4261 64.4994 73.537 63.4592 74.5599 62.0131C74.6657 61.8722 74.7715 61.8015 74.8773 61.8015C74.9831 61.8015 75.0889 61.8722 75.1947 62.0131C76.4292 63.5294 77.7161 64.6052 79.0564 65.24C80.3967 65.8748 81.6837 66.2452 82.9182 66.351C84.1878 66.4919 85.2987 66.5625 86.2509 66.5625C88.2611 66.5625 89.8481 66.0158 91.0119 64.9226C92.2108 63.8295 92.8105 62.4714 92.8105 60.8493C92.8105 59.4032 92.458 58.2221 91.7525 57.305C91.7174 57.2343 91.6996 57.1463 91.6996 57.0405C91.7347 56.8996 91.8232 56.8289 91.9641 56.8289C92.0699 56.8289 92.1757 56.8818 92.2815 56.9876C92.6696 57.4459 92.9514 58.0456 93.1279 58.7862C93.3395 59.4917 93.4454 60.1794 93.4454 60.8493C93.4454 62.6479 92.7927 64.1291 91.488 65.2929C90.2184 66.4919 88.4727 67.1267 86.2509 67.1974C85.2987 67.1974 84.1527 67.1267 82.8124 66.9858C81.5076 66.8448 80.1495 66.439 78.739 65.769C77.3636 65.1342 76.0762 64.0762 74.8773 62.595C73.89 63.9704 72.7964 64.9755 71.5975 65.6103C70.3985 66.2803 69.164 66.6861 67.8944 66.8271C66.6599 67.0035 65.4432 67.0916 64.2443 67.0916C62.6573 67.0564 61.229 66.7564 59.9594 66.1923C58.6897 65.6281 57.6846 64.8697 56.944 63.9175C56.2034 63.0004 55.8331 61.9424 55.8331 60.7435ZM114.115 66.5625C111.717 66.5625 109.513 66.1922 107.502 65.4516C105.527 64.711 103.94 63.5294 102.741 61.9073C101.578 60.3203 100.996 58.2221 100.996 55.6122V47.5184C100.996 46.4956 101.225 45.4905 101.683 44.5031C102.177 43.5156 102.812 42.7221 103.588 42.1225C103.024 42.1931 102.459 42.2283 101.895 42.2283C101.331 42.2283 100.749 42.1578 100.149 42.0167C98.5272 41.6288 97.2398 40.8706 96.2875 39.742C95.3353 38.6135 94.8592 37.1675 94.8592 35.4042C94.8592 33.7466 95.2473 32.4241 96.023 31.4366C96.7988 30.4139 97.8568 29.638 99.1971 29.109C100.432 28.6153 101.295 27.9981 101.789 27.2575C102.283 26.4817 102.6 25.6352 102.741 24.7183C102.918 23.8013 103.218 22.9197 103.641 22.0733C104.099 21.2269 104.787 20.5215 105.704 19.9572C106.621 19.393 107.838 19.1108 109.354 19.1108C110.694 19.1108 111.822 19.393 112.74 19.9572C113.692 20.4863 114.432 21.174 114.961 22.0204C115.49 22.8668 115.773 23.7484 115.808 24.6654C115.808 24.877 115.702 24.9828 115.49 24.9828C115.279 24.9828 115.173 24.877 115.173 24.6654C115.102 23.431 114.573 22.3025 113.586 21.2798C112.599 20.257 111.188 19.7456 109.354 19.7456C107.979 19.7456 106.868 19.9925 106.021 20.4863C105.21 20.98 104.593 21.6148 104.17 22.3907C103.782 23.1665 103.517 23.9777 103.376 24.8241C103.235 25.8115 102.865 26.7462 102.265 27.6278C101.701 28.5095 100.749 29.2148 99.4087 29.7438C98.1742 30.2376 97.2046 30.9253 96.4991 31.8069C95.8292 32.6886 95.494 33.8877 95.494 35.4042C95.494 36.9912 95.9172 38.3137 96.7636 39.3717C97.6101 40.3945 98.7739 41.0645 100.255 41.3819C102.019 41.7699 103.694 41.6464 105.281 41.0116C106.903 40.3768 108.208 39.3541 109.195 37.9434C109.301 37.8024 109.407 37.7318 109.513 37.7318C109.583 37.7318 109.671 37.8024 109.777 37.9434C110.694 39.3541 111.734 40.3592 112.898 40.9587C114.062 41.5583 115.72 41.858 117.871 41.858H118.823C119.035 41.858 119.141 41.9638 119.141 42.1754C119.141 42.387 119.035 42.4928 118.823 42.4928H117.871C115.72 42.4928 114.009 42.2107 112.74 41.6464C111.505 41.0469 110.412 40.0418 109.46 38.6311C108.402 40.0771 107.026 41.0998 105.334 41.6993C104.17 42.2283 103.253 43.0571 102.583 44.1857C101.948 45.2789 101.63 46.4251 101.63 47.6242V55.6122C101.63 58.0456 102.177 60.0207 103.27 61.537C104.399 63.0533 105.898 64.1642 107.767 64.8697C109.671 65.5752 111.787 65.9277 114.115 65.9277H127.552C130.056 65.9277 132.348 65.3809 134.429 64.2878C136.545 63.1947 138.026 61.6779 138.872 59.7384C138.943 59.5975 139.049 59.5268 139.19 59.5268C139.331 59.5268 139.419 59.5797 139.454 59.6855C139.489 59.7913 139.489 59.8793 139.454 59.95C138.855 61.3605 137.938 62.5599 136.703 63.5472C135.505 64.5345 134.111 65.2751 132.524 65.769C130.937 66.298 129.28 66.5625 127.552 66.5625H114.115ZM123.425 44.3444C123.425 44.1328 123.531 44.027 123.743 44.027C123.954 44.027 124.06 44.1328 124.06 44.3444C124.06 45.4376 124.413 46.3546 125.118 47.0952C125.824 47.8358 126.811 48.2061 128.081 48.2061H132.366C133.635 48.2061 134.623 47.8358 135.328 47.0952C136.034 46.3546 136.386 45.4376 136.386 44.3444V41.9638C136.386 41.6817 136.527 41.5406 136.809 41.5406H139.878C141.076 41.5406 142.099 41.1351 142.946 40.3239C143.792 39.5128 144.215 38.4901 144.215 37.2557V30.2199H136.651C136.439 30.2199 136.333 30.1141 136.333 29.9025V24.5067C136.333 23.3076 135.963 22.3025 135.222 21.4914C134.482 20.645 133.529 20.2218 132.366 20.2218H128.134C126.899 20.2218 125.912 20.6626 125.171 21.5443C124.431 22.3907 124.06 23.431 124.06 24.6654V24.9299C124.06 25.1415 123.954 25.2473 123.743 25.2473C123.531 25.2473 123.425 25.1415 123.425 24.9299V24.6654C123.425 23.2547 123.849 22.0556 124.695 21.0682C125.577 20.0807 126.723 19.5869 128.134 19.5869H132.366C133.706 19.5869 134.799 20.0807 135.645 21.0682C136.527 22.0204 136.968 23.1665 136.968 24.5067V29.5851H144.533C144.744 29.5851 144.85 29.6909 144.85 29.9025V37.2557C144.85 38.6664 144.356 39.8478 143.369 40.8C142.417 41.717 141.253 42.1754 139.878 42.1754H137.021V44.3444C137.021 45.614 136.598 46.6896 135.751 47.5713C134.94 48.4177 133.812 48.8409 132.366 48.8409H128.081C126.67 48.8409 125.541 48.4177 124.695 47.5713C123.849 46.6896 123.425 45.614 123.425 44.3444ZM147.005 61.5899C145.629 61.5899 144.448 61.1316 143.46 60.2145C142.473 59.2623 141.979 58.1336 141.979 56.8289V53.02C141.979 51.7153 142.473 50.6044 143.46 49.6873C144.448 48.7351 145.629 48.259 147.005 48.259C147.216 48.259 147.322 48.3648 147.322 48.5764C147.322 48.788 147.216 48.8938 147.005 48.8938C145.77 48.8938 144.73 49.2992 143.884 50.1105C143.037 50.9218 142.614 51.8913 142.614 53.02V56.8289C142.614 57.9927 143.037 58.98 143.884 59.7913C144.73 60.567 145.77 60.9551 147.005 60.9551H184.617C185.851 60.9551 186.874 60.567 187.685 59.7913C188.532 58.98 188.955 57.9927 188.955 56.8289V53.02C188.955 51.8913 188.532 50.9218 187.685 50.1105C186.874 49.2992 185.851 48.8938 184.617 48.8938H175.941C175.73 48.8938 175.624 48.788 175.624 48.5764C175.624 48.4353 175.712 48.3295 175.888 48.259C177.299 48.0121 178.639 47.3949 179.909 46.4075C181.178 45.42 182.201 44.0975 182.977 42.4399C183.788 40.7824 184.158 38.8251 184.088 36.568C184.052 33.923 183.453 31.5424 182.289 29.4264C181.125 27.2752 179.415 25.5647 177.158 24.2951C174.936 23.0255 172.167 22.373 168.853 22.3378L162.716 22.2849C159.225 22.2496 156.332 22.8668 154.04 24.1364C151.748 25.3707 150.037 27.0283 148.909 29.109C147.78 31.1898 147.216 33.4645 147.216 35.9332C147.216 39.072 148.01 41.717 149.597 43.8683C151.184 45.9843 153.723 47.4478 157.214 48.259C157.39 48.3295 157.479 48.4353 157.479 48.5764C157.479 48.8587 157.355 48.9645 157.109 48.8938C153.476 48.0474 150.813 46.4956 149.121 44.2386C147.428 41.9462 146.581 39.1778 146.581 35.9332C146.581 33.394 147.163 31.0311 148.327 28.8445C149.526 26.658 151.325 24.9122 153.723 23.6074C156.121 22.2672 159.119 21.6148 162.716 21.6501L168.853 21.703C172.273 21.7382 175.148 22.4259 177.475 23.7661C179.838 25.1062 181.619 26.9049 182.818 29.1619C184.052 31.3837 184.687 33.8524 184.723 36.568C184.793 38.543 184.511 40.3239 183.876 41.9109C183.277 43.4627 182.465 44.7852 181.443 45.8785C180.42 46.9365 179.291 47.73 178.057 48.259H184.617C185.957 48.259 187.121 48.7351 188.108 49.6873C189.096 50.6044 189.59 51.7153 189.59 53.02V56.8289C189.59 58.1336 189.096 59.2623 188.108 60.2145C187.121 61.1316 185.957 61.5899 184.617 61.5899H147.005ZM193.014 62.9653C191.638 62.9653 190.457 62.507 189.469 61.5899C188.481 60.6377 187.988 59.509 187.988 58.2043V54.3954C187.988 53.0907 188.481 51.9798 189.469 51.0627C190.457 50.1105 191.638 49.6344 193.014 49.6344H198.409C196.822 48.9645 195.588 47.871 194.706 46.3546C193.86 44.8028 193.437 43.0571 193.437 41.1174C193.437 38.4372 194.265 36.18 195.923 34.3462C195.041 33.6408 194.336 32.8297 193.807 31.9128C193.278 30.9605 193.014 29.9025 193.014 28.7387C193.014 26.9754 193.631 25.4589 194.865 24.1893C196.099 22.9197 197.686 22.2849 199.626 22.2849H220.31C222.285 22.2849 223.978 22.7786 225.389 23.7661C226.834 24.7183 227.945 26.0231 228.721 27.6807C229.532 29.303 229.938 31.1016 229.938 33.0766C229.938 34.593 229.709 35.9861 229.25 37.2557C228.827 38.5253 228.192 39.601 227.346 40.4826C228.087 40.9058 228.669 41.5759 229.092 42.4928C229.515 43.3745 229.691 44.3091 229.621 45.2966C229.585 46.0372 229.391 46.7954 229.039 47.5713C228.686 48.3471 228.122 48.9996 227.346 49.5286C226.57 50.0225 225.53 50.2692 224.225 50.2692H217.612C217.401 50.2692 217.295 50.1634 217.295 49.9518V45.5082C217.295 44.2738 216.872 43.2511 216.025 42.4399C215.214 41.5935 214.156 41.1703 212.851 41.1703H205.181C204.969 41.1703 204.863 41.0645 204.863 40.8529C204.863 40.6413 204.969 40.5355 205.181 40.5355H212.851C214.297 40.5355 215.496 41.0293 216.449 42.0167C217.436 42.9689 217.93 44.1328 217.93 45.5082V49.6344H224.225C225.953 49.6344 227.17 49.1761 227.875 48.259C228.58 47.3068 228.95 46.3193 228.986 45.2966C229.056 44.3444 228.897 43.4627 228.51 42.6515C228.122 41.8404 227.575 41.2761 226.87 40.9587C225.706 42.0167 224.295 42.5986 222.638 42.7044C222.426 42.7044 222.32 42.5986 222.32 42.387C222.32 42.1754 222.426 42.0696 222.638 42.0696C223.449 41.9991 224.172 41.8228 224.807 41.5406C225.477 41.2232 226.076 40.8353 226.605 40.3768C227.487 39.5657 228.157 38.5253 228.616 37.2557C229.074 35.9861 229.303 34.593 229.303 33.0766C229.303 31.1721 228.933 29.4617 228.192 27.9452C227.487 26.3935 226.464 25.1767 225.124 24.2951C223.784 23.3781 222.179 22.9197 220.31 22.9197H199.626C197.828 22.9197 196.381 23.4839 195.288 24.6125C194.195 25.7057 193.648 27.0812 193.648 28.7387C193.648 29.832 193.877 30.8018 194.336 31.6482C194.83 32.4947 195.517 33.2529 196.399 33.923C197.034 33.3234 197.757 32.8473 198.568 32.4947C199.415 32.142 200.314 31.9657 201.266 31.9657C201.478 31.9657 201.583 32.0715 201.583 32.2831C201.583 32.4947 201.478 32.6005 201.266 32.6005C199.855 32.6005 198.603 33.006 197.51 33.8172C196.417 34.593 195.57 35.6158 194.971 36.8854C194.371 38.155 194.072 39.5657 194.072 41.1174C194.072 43.4803 194.724 45.4905 196.029 47.1481C197.369 48.8056 199.273 49.6344 201.742 49.6344H205.868C206.08 49.6344 206.186 49.7402 206.186 49.9518C206.186 50.1634 206.08 50.2692 205.868 50.2692H193.014C191.779 50.2692 190.739 50.6746 189.892 51.4859C189.046 52.2972 188.623 53.2667 188.623 54.3954V58.2043C188.623 59.3681 189.046 60.3554 189.892 61.1667C190.739 61.9424 191.779 62.3305 193.014 62.3305H230.626C231.86 62.3305 232.883 61.9424 233.694 61.1667C234.54 60.3554 234.964 59.3681 234.964 58.2043V54.3954C234.964 53.2316 234.628 52.2616 233.959 51.4859C233.288 50.6746 232.354 50.2692 231.155 50.2692C230.943 50.2692 230.837 50.1634 230.837 49.9518C230.837 49.7402 230.943 49.6344 231.155 49.6344C232.53 49.6344 233.606 50.1105 234.382 51.0627C235.193 51.9798 235.598 53.0907 235.598 54.3954V58.2043C235.598 59.509 235.105 60.6377 234.117 61.5899C233.129 62.507 231.966 62.9653 230.626 62.9653H193.014Z" fill="black"/>
<path d="M166.796 32.4893C169.376 31.2825 172.258 33.3778 171.946 36.1741L171.928 36.308C171.626 38.3595 169.677 39.7282 167.665 39.3484L167.471 39.3062L166.551 39.0808C165.937 38.9301 165.297 38.914 164.677 39.0333L164.552 39.0592L163.139 39.3733C161.316 39.7788 159.643 38.2998 159.784 36.4709L159.803 36.293C159.954 35.2194 160.718 34.3364 161.751 34.0288L161.852 34.0011L165.233 33.1313C165.445 33.0769 165.652 33.0079 165.854 32.9247L166.053 32.8369L166.796 32.4893Z" fill="black" stroke="black" stroke-width="1.3"/>
<path d="M28.0698 32.4658V49.7787" stroke="black" stroke-width="1.3" stroke-linecap="round"/>
<path d="M72.1346 20.6836C69.669 20.9241 68.1147 22.4373 67.5049 23.8095C66.8951 25.1817 67.715 26.197 67.7876 26.1283" stroke="black" stroke-width="1.3" stroke-linecap="round"/>
<path d="M110.546 54.3474C110.306 56.9924 111.793 57.5551 113.116 58.1962C114.439 58.8372 120.956 58.7415 120.886 58.6756" stroke="black" stroke-width="1.3" stroke-linecap="round"/>
<path d="M204.97 40.8206C202.812 41.0141 203.123 43.8413 203.122 44.9695C203.122 46.0978 203.122 46.1718 203.122 46.8932" stroke="black" stroke-width="1.3" stroke-linecap="round"/>
<path d="M61.7832 32.3L61.9198 32.3136C61.9674 32.3183 62.015 32.3249 62.0621 32.3333L62.2026 32.3643L69.297 34.218C69.5649 34.288 69.7923 34.4613 69.9318 34.697L69.9862 34.8017L70.0073 34.8492C70.0535 34.9525 70.0775 35.0643 70.0775 35.1775C70.0775 35.6266 69.7091 35.9884 69.26 35.9806L61.5764 35.8462C61.0763 35.8375 60.604 35.6183 60.2751 35.2456L60.2111 35.169C59.2714 33.9765 60.164 32.2567 61.6385 32.291L61.7832 32.3Z" fill="black" stroke="black" stroke-width="1.3"/>
<path d="M78.3254 26.9352C79.2872 32.7062 78.5658 37.9962 78.3254 38.4772M67.9858 26.2139C67.9858 26.2139 67.7453 28.378 66.3026 28.378C64.8598 28.378 64.3789 26.4543 64.3789 26.4543" stroke="black" stroke-width="1.3" stroke-linecap="round"/>
</svg>
