<svg width="632" height="621" viewBox="0 0 632 621" fill="none" xmlns="http://www.w3.org/2000/svg">
<path d="M77.0512 45.5582C130.374 2.68724 256.374 5.18707 367.874 10.1872C479.374 15.1874 467.312 -29.1077 563.843 45.2899C660.374 119.687 624.275 310.477 600.854 375.578C577.434 440.679 611.128 559.578 496.275 583.625C381.421 607.672 443.646 601.278 306.628 613.578C169.611 625.879 84.3736 614.687 26.7818 544.6C-30.8101 474.513 43.6674 329.078 46.92 265.183C50.1726 201.288 23.7289 88.4292 77.0512 45.5582Z" fill="white" fill-opacity="0.43"/>
<path d="M270.4 151.44C270.4 152.693 269.667 153.32 268.2 153.32C266.707 153.32 265.96 152.693 265.96 151.44V122.76C265.96 121.507 266.707 120.88 268.2 120.88C269.667 120.88 270.4 121.507 270.4 122.76V151.44ZM288.718 128.92C289.411 128.92 290.118 129.067 290.838 129.36C291.585 129.653 292.305 130.027 292.998 130.48H292.958C293.651 130.987 294.185 131.653 294.558 132.48C294.931 133.28 295.118 134.213 295.118 135.28V146.64C295.118 148.827 294.398 150.44 292.958 151.48C291.545 152.493 290.131 153 288.718 153H282.318C281.625 153 280.918 152.88 280.198 152.64C279.478 152.4 278.771 152.013 278.078 151.48C276.638 150.467 275.918 148.853 275.918 146.64V135.28C275.918 134.213 276.105 133.28 276.478 132.48C276.851 131.653 277.385 130.987 278.078 130.48H278.038C278.705 130.027 279.411 129.653 280.158 129.36C280.905 129.067 281.625 128.92 282.318 128.92H288.718ZM287.998 149.24C288.985 149.24 289.678 148.96 290.078 148.4C290.505 147.84 290.718 147.24 290.718 146.6V135.32C290.718 134.653 290.505 134.053 290.078 133.52C289.678 132.96 288.985 132.68 287.998 132.68H283.038C282.051 132.68 281.345 132.96 280.918 133.52C280.518 134.053 280.318 134.653 280.318 135.32V146.6C280.318 147.24 280.518 147.84 280.918 148.4C281.345 148.96 282.051 149.24 283.038 149.24H287.998ZM306.616 150.2C305.923 150.2 305.203 150.08 304.456 149.84C303.736 149.6 303.029 149.253 302.336 148.8C300.896 147.867 300.176 146.293 300.176 144.08V135.04C300.176 133.92 300.363 132.96 300.736 132.16C301.136 131.36 301.669 130.733 302.336 130.28C303.029 129.853 303.736 129.52 304.456 129.28C305.176 129.04 305.883 128.92 306.576 128.92H313.296C313.963 128.92 314.656 129.067 315.376 129.36C316.096 129.653 316.763 130.027 317.376 130.48C317.989 130.987 318.483 131.653 318.856 132.48C319.229 133.307 319.416 134.24 319.416 135.28V152.24C319.416 153.36 319.229 154.307 318.856 155.08C318.509 155.88 318.016 156.547 317.376 157.08C316.763 157.587 316.096 157.973 315.376 158.24C314.683 158.533 313.989 158.68 313.296 158.68H306.576C305.163 158.68 303.736 158.267 302.296 157.44C301.549 157.013 301.003 156.467 300.656 155.8C300.336 155.133 300.176 154.36 300.176 153.48V153C300.176 152.467 300.349 152.04 300.696 151.72C301.043 151.4 301.589 151.24 302.336 151.24C303.829 151.4 304.576 151.987 304.576 153V153.44C304.576 153.733 304.776 154.053 305.176 154.4C305.603 154.747 306.309 154.92 307.296 154.92H312.296C313.283 154.92 313.976 154.64 314.376 154.08C314.803 153.52 315.016 152.893 315.016 152.2V135.32C315.016 134.653 314.803 134.053 314.376 133.52C313.976 132.96 313.283 132.68 312.296 132.68H307.296C306.309 132.68 305.603 132.96 305.176 133.52C304.776 134.053 304.576 134.653 304.576 135.32V143.76C304.576 144.427 304.776 145.053 305.176 145.64C305.603 146.2 306.309 146.48 307.296 146.48H311.456C312.416 146.48 312.896 147.093 312.896 148.32C312.896 148.88 312.776 149.333 312.536 149.68C312.323 150.027 311.963 150.2 311.456 150.2H306.616ZM329.305 151.32C329.305 152.6 328.572 153.24 327.105 153.24C325.612 153.24 324.865 152.6 324.865 151.32V130.68C324.865 129.4 325.612 128.76 327.105 128.76C328.572 128.76 329.305 129.4 329.305 130.68V151.32ZM330.145 123.72C330.145 124.573 329.852 125.293 329.265 125.88C328.679 126.467 327.959 126.76 327.105 126.76C326.252 126.76 325.519 126.467 324.905 125.88C324.319 125.293 324.025 124.573 324.025 123.72C324.025 122.84 324.319 122.107 324.905 121.52C325.519 120.933 326.252 120.64 327.105 120.64C327.959 120.64 328.679 120.933 329.265 121.52C329.852 122.107 330.145 122.84 330.145 123.72ZM339.263 151.32C339.263 152.6 338.53 153.24 337.063 153.24C335.597 153.24 334.863 152.6 334.863 151.32V135.24C334.863 134.147 335.037 133.2 335.383 132.4C335.73 131.6 336.277 130.947 337.023 130.44C338.437 129.427 339.85 128.92 341.263 128.92H347.703C349.063 128.92 350.477 129.427 351.943 130.44C353.383 131.453 354.103 133.053 354.103 135.24V151.32C354.103 152.6 353.37 153.24 351.903 153.24C350.437 153.24 349.703 152.6 349.703 151.32V135.6C349.703 134.907 349.49 134.24 349.063 133.6L349.103 133.64C348.757 133 348.05 132.68 346.983 132.68H341.983C340.89 132.68 340.17 133 339.823 133.64C339.45 134.2 339.263 134.853 339.263 135.6V151.32Z" fill="white"/>
</svg>
