<svg width="622" height="574" viewBox="0 0 622 574" fill="none" xmlns="http://www.w3.org/2000/svg">
<path d="M563 0C595.585 0 622 26.4152 622 59V574H0V60C0 26.8629 26.8629 0 60 0L563 0Z" fill="url(#paint0_linear_78_2)" fill-opacity="0.36"/>
<path d="M201.243 106.196C200.702 106.196 200.221 106.131 199.801 106C199.391 105.869 199.027 105.697 198.709 105.482C198.392 105.258 198.117 105.02 197.883 104.768L198.667 103.732C198.975 104.031 199.325 104.292 199.717 104.516C200.109 104.74 200.571 104.852 201.103 104.852C201.495 104.852 201.836 104.787 202.125 104.656C202.415 104.516 202.639 104.32 202.797 104.068C202.965 103.816 203.049 103.508 203.049 103.144C203.049 102.771 202.956 102.444 202.769 102.164C202.592 101.875 202.279 101.655 201.831 101.506C201.393 101.347 200.786 101.268 200.011 101.268V100.064C200.693 100.064 201.225 99.9893 201.607 99.84C201.999 99.6813 202.279 99.4667 202.447 99.196C202.625 98.9253 202.713 98.6173 202.713 98.272C202.713 97.824 202.573 97.4693 202.293 97.208C202.013 96.9373 201.626 96.802 201.131 96.802C200.739 96.802 200.371 96.8907 200.025 97.068C199.689 97.236 199.372 97.4647 199.073 97.754L198.233 96.746C198.644 96.3727 199.092 96.074 199.577 95.85C200.063 95.6167 200.599 95.5 201.187 95.5C201.803 95.5 202.349 95.6073 202.825 95.822C203.301 96.0273 203.675 96.326 203.945 96.718C204.216 97.11 204.351 97.5907 204.351 98.16C204.351 98.748 204.188 99.2473 203.861 99.658C203.544 100.069 203.115 100.377 202.573 100.582V100.638C202.965 100.741 203.32 100.909 203.637 101.142C203.964 101.366 204.221 101.655 204.407 102.01C204.594 102.365 204.687 102.771 204.687 103.228C204.687 103.844 204.529 104.376 204.211 104.824C203.903 105.263 203.488 105.603 202.965 105.846C202.443 106.079 201.869 106.196 201.243 106.196ZM209.382 95.416H210.586V97.516C210.586 98.2907 210.502 99.0373 210.334 99.756C210.166 100.475 209.918 101.147 209.592 101.772C209.274 102.397 208.887 102.948 208.43 103.424C207.982 103.9 207.468 104.278 206.89 104.558L206.008 103.354C206.521 103.121 206.983 102.803 207.394 102.402C207.814 101.991 208.168 101.525 208.458 101.002C208.756 100.479 208.985 99.9193 209.144 99.322C209.302 98.7247 209.382 98.1227 209.382 97.516V95.416ZM209.648 95.416H210.852V97.516C210.852 98.104 210.926 98.6827 211.076 99.252C211.234 99.8213 211.458 100.358 211.748 100.862C212.037 101.366 212.387 101.809 212.798 102.192C213.208 102.575 213.661 102.883 214.156 103.116L213.302 104.292C212.732 104.021 212.224 103.657 211.776 103.2C211.328 102.743 210.945 102.215 210.628 101.618C210.31 101.021 210.068 100.372 209.9 99.672C209.732 98.972 209.648 98.2533 209.648 97.516V95.416ZM215.178 94.352H216.648V107.176H215.178V94.352ZM219.46 108.8L219.096 107.89C219.582 107.685 219.96 107.409 220.23 107.064C220.501 106.728 220.632 106.35 220.622 105.93L220.51 104.642L221.182 105.706C221.089 105.809 220.982 105.883 220.86 105.93C220.739 105.967 220.608 105.986 220.468 105.986C220.188 105.986 219.936 105.897 219.712 105.72C219.498 105.533 219.39 105.277 219.39 104.95C219.39 104.633 219.498 104.381 219.712 104.194C219.936 104.007 220.202 103.914 220.51 103.914C220.912 103.914 221.22 104.068 221.434 104.376C221.649 104.684 221.756 105.109 221.756 105.65C221.756 106.387 221.551 107.027 221.14 107.568C220.739 108.119 220.179 108.529 219.46 108.8ZM226.836 106.196C226.342 106.196 225.88 106.093 225.45 105.888C225.021 105.673 224.643 105.356 224.316 104.936C223.99 104.507 223.733 103.97 223.546 103.326C223.36 102.682 223.266 101.921 223.266 101.044C223.266 100.055 223.374 99.21 223.588 98.51C223.803 97.8007 224.092 97.2267 224.456 96.788C224.82 96.3493 225.236 96.0273 225.702 95.822C226.169 95.6073 226.654 95.5 227.158 95.5C227.737 95.5 228.236 95.6073 228.656 95.822C229.086 96.0367 229.445 96.298 229.734 96.606L228.852 97.586C228.666 97.362 228.428 97.18 228.138 97.04C227.849 96.8907 227.55 96.816 227.242 96.816C226.794 96.816 226.379 96.9513 225.996 97.222C225.623 97.4833 225.324 97.922 225.1 98.538C224.876 99.154 224.764 99.9893 224.764 101.044C224.764 101.931 224.848 102.663 225.016 103.242C225.184 103.811 225.422 104.241 225.73 104.53C226.038 104.81 226.398 104.95 226.808 104.95C227.116 104.95 227.387 104.861 227.62 104.684C227.863 104.507 228.054 104.259 228.194 103.942C228.334 103.615 228.404 103.233 228.404 102.794C228.404 102.355 228.339 101.982 228.208 101.674C228.078 101.366 227.886 101.133 227.634 100.974C227.392 100.815 227.088 100.736 226.724 100.736C226.416 100.736 226.085 100.834 225.73 101.03C225.385 101.226 225.054 101.562 224.736 102.038L224.68 100.862C224.876 100.582 225.105 100.349 225.366 100.162C225.628 99.966 225.898 99.8167 226.178 99.714C226.468 99.6113 226.743 99.56 227.004 99.56C227.583 99.56 228.087 99.6813 228.516 99.924C228.955 100.157 229.296 100.512 229.538 100.988C229.79 101.464 229.916 102.066 229.916 102.794C229.916 103.475 229.772 104.073 229.482 104.586C229.202 105.09 228.829 105.487 228.362 105.776C227.905 106.056 227.396 106.196 226.836 106.196ZM234.415 95.416H235.619V97.516C235.619 98.2907 235.535 99.0373 235.367 99.756C235.199 100.475 234.951 101.147 234.625 101.772C234.307 102.397 233.92 102.948 233.463 103.424C233.015 103.9 232.501 104.278 231.923 104.558L231.041 103.354C231.554 103.121 232.016 102.803 232.427 102.402C232.847 101.991 233.201 101.525 233.491 101.002C233.789 100.479 234.018 99.9193 234.177 99.322C234.335 98.7247 234.415 98.1227 234.415 97.516V95.416ZM234.681 95.416H235.885V97.516C235.885 98.104 235.959 98.6827 236.109 99.252C236.267 99.8213 236.491 100.358 236.781 100.862C237.07 101.366 237.42 101.809 237.831 102.192C238.241 102.575 238.694 102.883 239.189 103.116L238.335 104.292C237.765 104.021 237.257 103.657 236.809 103.2C236.361 102.743 235.978 102.215 235.661 101.618C235.343 101.021 235.101 100.372 234.933 99.672C234.765 98.972 234.681 98.2533 234.681 97.516V95.416ZM240.211 94.352H241.681V107.176H240.211V94.352ZM244.494 108.8L244.13 107.89C244.615 107.685 244.993 107.409 245.264 107.064C245.534 106.728 245.665 106.35 245.656 105.93L245.544 104.642L246.216 105.706C246.122 105.809 246.015 105.883 245.894 105.93C245.772 105.967 245.642 105.986 245.502 105.986C245.222 105.986 244.97 105.897 244.746 105.72C244.531 105.533 244.424 105.277 244.424 104.95C244.424 104.633 244.531 104.381 244.746 104.194C244.97 104.007 245.236 103.914 245.544 103.914C245.945 103.914 246.253 104.068 246.468 104.376C246.682 104.684 246.79 105.109 246.79 105.65C246.79 106.387 246.584 107.027 246.174 107.568C245.772 108.119 245.212 108.529 244.494 108.8ZM250.974 106.196C250.376 106.196 249.858 106.089 249.42 105.874C248.99 105.65 248.626 105.389 248.328 105.09L249.21 104.082C249.415 104.315 249.667 104.502 249.966 104.642C250.264 104.782 250.572 104.852 250.89 104.852C251.216 104.852 251.524 104.777 251.814 104.628C252.112 104.479 252.369 104.236 252.584 103.9C252.808 103.564 252.98 103.116 253.102 102.556C253.232 101.996 253.298 101.31 253.298 100.498C253.298 99.6393 253.214 98.9347 253.046 98.384C252.878 97.824 252.64 97.4133 252.332 97.152C252.033 96.8813 251.674 96.746 251.254 96.746C250.955 96.746 250.684 96.8347 250.442 97.012C250.199 97.18 250.008 97.4227 249.868 97.74C249.728 98.0573 249.658 98.44 249.658 98.888C249.658 99.3267 249.718 99.7 249.84 100.008C249.97 100.316 250.162 100.554 250.414 100.722C250.666 100.881 250.969 100.96 251.324 100.96C251.65 100.96 251.986 100.857 252.332 100.652C252.677 100.447 253.004 100.111 253.312 99.644L253.382 100.834C253.186 101.095 252.957 101.324 252.696 101.52C252.434 101.716 252.164 101.87 251.884 101.982C251.604 102.085 251.324 102.136 251.044 102.136C250.474 102.136 249.97 102.015 249.532 101.772C249.102 101.529 248.762 101.17 248.51 100.694C248.267 100.209 248.146 99.6067 248.146 98.888C248.146 98.2067 248.286 97.614 248.566 97.11C248.855 96.5967 249.233 96.2 249.7 95.92C250.166 95.64 250.675 95.5 251.226 95.5C251.72 95.5 252.182 95.6027 252.612 95.808C253.05 96.004 253.428 96.3073 253.746 96.718C254.072 97.1287 254.329 97.6467 254.516 98.272C254.702 98.8973 254.796 99.6393 254.796 100.498C254.796 101.506 254.693 102.374 254.488 103.102C254.282 103.821 253.998 104.409 253.634 104.866C253.27 105.314 252.859 105.65 252.402 105.874C251.944 106.089 251.468 106.196 250.974 106.196ZM259.448 95.416H260.652V97.516C260.652 98.2907 260.568 99.0373 260.4 99.756C260.232 100.475 259.985 101.147 259.658 101.772C259.341 102.397 258.953 102.948 258.496 103.424C258.048 103.9 257.535 104.278 256.956 104.558L256.074 103.354C256.587 103.121 257.049 102.803 257.46 102.402C257.88 101.991 258.235 101.525 258.524 101.002C258.823 100.479 259.051 99.9193 259.21 99.322C259.369 98.7247 259.448 98.1227 259.448 97.516V95.416ZM259.714 95.416H260.918V97.516C260.918 98.104 260.993 98.6827 261.142 99.252C261.301 99.8213 261.525 100.358 261.814 100.862C262.103 101.366 262.453 101.809 262.864 102.192C263.275 102.575 263.727 102.883 264.222 103.116L263.368 104.292C262.799 104.021 262.29 103.657 261.842 103.2C261.394 102.743 261.011 102.215 260.694 101.618C260.377 101.021 260.134 100.372 259.966 99.672C259.798 98.972 259.714 98.2533 259.714 97.516V95.416ZM265.244 94.352H266.714V107.176H265.244V94.352ZM269.527 108.8L269.163 107.89C269.648 107.685 270.026 107.409 270.297 107.064C270.568 106.728 270.698 106.35 270.689 105.93L270.577 104.642L271.249 105.706C271.156 105.809 271.048 105.883 270.927 105.93C270.806 105.967 270.675 105.986 270.535 105.986C270.255 105.986 270.003 105.897 269.779 105.72C269.564 105.533 269.457 105.277 269.457 104.95C269.457 104.633 269.564 104.381 269.779 104.194C270.003 104.007 270.269 103.914 270.577 103.914C270.978 103.914 271.286 104.068 271.501 104.376C271.716 104.684 271.823 105.109 271.823 105.65C271.823 106.387 271.618 107.027 271.207 107.568C270.806 108.119 270.246 108.529 269.527 108.8ZM273.781 106V104.67H276.049V97.502H274.201V96.48C274.686 96.396 275.106 96.2887 275.461 96.158C275.825 96.0273 276.156 95.8687 276.455 95.682H277.673V104.67H279.675V106H273.781ZM281.191 106V105.062C282.209 104.157 283.058 103.331 283.739 102.584C284.421 101.828 284.929 101.128 285.265 100.484C285.611 99.84 285.783 99.238 285.783 98.678C285.783 98.3047 285.718 97.978 285.587 97.698C285.466 97.4087 285.275 97.1893 285.013 97.04C284.761 96.8813 284.439 96.802 284.047 96.802C283.646 96.802 283.277 96.914 282.941 97.138C282.605 97.3527 282.297 97.6187 282.017 97.936L281.107 97.04C281.546 96.5547 282.008 96.1767 282.493 95.906C282.988 95.6353 283.576 95.5 284.257 95.5C284.883 95.5 285.429 95.6307 285.895 95.892C286.362 96.144 286.721 96.5033 286.973 96.97C287.235 97.4273 287.365 97.9687 287.365 98.594C287.365 99.2567 287.202 99.9287 286.875 100.61C286.549 101.282 286.101 101.963 285.531 102.654C284.962 103.335 284.313 104.026 283.585 104.726C283.856 104.698 284.141 104.675 284.439 104.656C284.747 104.628 285.023 104.614 285.265 104.614H287.855V106H281.191ZM292.466 95.416H293.67V97.516C293.67 98.2907 293.586 99.0373 293.418 99.756C293.25 100.475 293.002 101.147 292.676 101.772C292.358 102.397 291.971 102.948 291.514 103.424C291.066 103.9 290.552 104.278 289.974 104.558L289.092 103.354C289.605 103.121 290.067 102.803 290.478 102.402C290.898 101.991 291.252 101.525 291.542 101.002C291.84 100.479 292.069 99.9193 292.228 99.322C292.386 98.7247 292.466 98.1227 292.466 97.516V95.416ZM292.732 95.416H293.936V97.516C293.936 98.104 294.01 98.6827 294.16 99.252C294.318 99.8213 294.542 100.358 294.832 100.862C295.121 101.366 295.471 101.809 295.882 102.192C296.292 102.575 296.745 102.883 297.24 103.116L296.386 104.292C295.816 104.021 295.308 103.657 294.86 103.2C294.412 102.743 294.029 102.215 293.712 101.618C293.394 101.021 293.152 100.372 292.984 99.672C292.816 98.972 292.732 98.2533 292.732 97.516V95.416ZM298.262 94.352H299.732V107.176H298.262V94.352ZM302.544 108.8L302.18 107.89C302.666 107.685 303.044 107.409 303.314 107.064C303.585 106.728 303.716 106.35 303.706 105.93L303.594 104.642L304.266 105.706C304.173 105.809 304.066 105.883 303.944 105.93C303.823 105.967 303.692 105.986 303.552 105.986C303.272 105.986 303.02 105.897 302.796 105.72C302.582 105.533 302.474 105.277 302.474 104.95C302.474 104.633 302.582 104.381 302.796 104.194C303.02 104.007 303.286 103.914 303.594 103.914C303.996 103.914 304.304 104.068 304.518 104.376C304.733 104.684 304.84 105.109 304.84 105.65C304.84 106.387 304.635 107.027 304.224 107.568C303.823 108.119 303.263 108.529 302.544 108.8ZM306.798 106V104.67H309.066V97.502H307.218V96.48C307.704 96.396 308.124 96.2887 308.478 96.158C308.842 96.0273 309.174 95.8687 309.472 95.682H310.69V104.67H312.692V106H306.798ZM317.345 106.196C316.813 106.196 316.337 106.131 315.917 106C315.497 105.869 315.128 105.697 314.811 105.482C314.493 105.267 314.213 105.043 313.971 104.81L314.741 103.76C314.937 103.956 315.151 104.138 315.385 104.306C315.618 104.465 315.879 104.595 316.169 104.698C316.467 104.801 316.799 104.852 317.163 104.852C317.545 104.852 317.891 104.768 318.199 104.6C318.507 104.423 318.749 104.171 318.927 103.844C319.104 103.508 319.193 103.111 319.193 102.654C319.193 101.982 319.011 101.459 318.647 101.086C318.292 100.713 317.821 100.526 317.233 100.526C316.906 100.526 316.626 100.573 316.393 100.666C316.159 100.759 315.893 100.904 315.595 101.1L314.797 100.582L315.105 95.682H320.327V97.054H316.505L316.267 99.686C316.491 99.574 316.715 99.49 316.939 99.434C317.163 99.3687 317.41 99.336 317.681 99.336C318.259 99.336 318.787 99.4527 319.263 99.686C319.739 99.9193 320.117 100.279 320.397 100.764C320.677 101.24 320.817 101.856 320.817 102.612C320.817 103.368 320.653 104.017 320.327 104.558C320 105.09 319.571 105.496 319.039 105.776C318.516 106.056 317.951 106.196 317.345 106.196ZM325.483 95.416H326.687V97.516C326.687 98.2907 326.603 99.0373 326.435 99.756C326.267 100.475 326.02 101.147 325.693 101.772C325.376 102.397 324.988 102.948 324.531 103.424C324.083 103.9 323.57 104.278 322.991 104.558L322.109 103.354C322.622 103.121 323.084 102.803 323.495 102.402C323.915 101.991 324.27 101.525 324.559 101.002C324.858 100.479 325.086 99.9193 325.245 99.322C325.404 98.7247 325.483 98.1227 325.483 97.516V95.416ZM325.749 95.416H326.953V97.516C326.953 98.104 327.028 98.6827 327.177 99.252C327.336 99.8213 327.56 100.358 327.849 100.862C328.138 101.366 328.488 101.809 328.899 102.192C329.31 102.575 329.762 102.883 330.257 103.116L329.403 104.292C328.834 104.021 328.325 103.657 327.877 103.2C327.429 102.743 327.046 102.215 326.729 101.618C326.412 101.021 326.169 100.372 326.001 99.672C325.833 98.972 325.749 98.2533 325.749 97.516V95.416ZM331.279 94.352H332.749V107.176H331.279V94.352ZM335.562 108.8L335.198 107.89C335.683 107.685 336.061 107.409 336.332 107.064C336.603 106.728 336.733 106.35 336.724 105.93L336.612 104.642L337.284 105.706C337.191 105.809 337.083 105.883 336.962 105.93C336.841 105.967 336.71 105.986 336.57 105.986C336.29 105.986 336.038 105.897 335.814 105.72C335.599 105.533 335.492 105.277 335.492 104.95C335.492 104.633 335.599 104.381 335.814 104.194C336.038 104.007 336.304 103.914 336.612 103.914C337.013 103.914 337.321 104.068 337.536 104.376C337.751 104.684 337.858 105.109 337.858 105.65C337.858 106.387 337.653 107.027 337.242 107.568C336.841 108.119 336.281 108.529 335.562 108.8ZM339.816 106V104.67H342.084V97.502H340.236V96.48C340.721 96.396 341.141 96.2887 341.496 96.158C341.86 96.0273 342.191 95.8687 342.49 95.682H343.708V104.67H345.71V106H339.816ZM350.614 106.196C349.97 106.196 349.396 106.079 348.892 105.846C348.388 105.603 347.987 105.277 347.688 104.866C347.399 104.446 347.254 103.97 347.254 103.438C347.254 102.981 347.343 102.575 347.52 102.22C347.698 101.865 347.926 101.562 348.206 101.31C348.486 101.049 348.78 100.834 349.088 100.666V100.596C348.715 100.325 348.393 99.994 348.122 99.602C347.852 99.2007 347.716 98.7293 347.716 98.188C347.716 97.656 347.842 97.1893 348.094 96.788C348.356 96.3867 348.706 96.0787 349.144 95.864C349.592 95.64 350.101 95.528 350.67 95.528C351.268 95.528 351.781 95.6447 352.21 95.878C352.64 96.1113 352.971 96.4333 353.204 96.844C353.447 97.2453 353.568 97.7167 353.568 98.258C353.568 98.6033 353.498 98.93 353.358 99.238C353.218 99.546 353.046 99.826 352.84 100.078C352.644 100.321 352.434 100.521 352.21 100.68V100.75C352.528 100.918 352.817 101.128 353.078 101.38C353.34 101.623 353.55 101.917 353.708 102.262C353.867 102.607 353.946 103.013 353.946 103.48C353.946 103.984 353.806 104.441 353.526 104.852C353.256 105.263 352.868 105.589 352.364 105.832C351.87 106.075 351.286 106.196 350.614 106.196ZM351.3 100.274C351.599 99.9847 351.823 99.6813 351.972 99.364C352.131 99.0373 352.21 98.6967 352.21 98.342C352.21 98.034 352.15 97.754 352.028 97.502C351.907 97.25 351.725 97.054 351.482 96.914C351.249 96.7647 350.964 96.69 350.628 96.69C350.208 96.69 349.858 96.8253 349.578 97.096C349.298 97.3573 349.158 97.7213 349.158 98.188C349.158 98.5613 349.256 98.874 349.452 99.126C349.648 99.378 349.91 99.5927 350.236 99.77C350.563 99.9473 350.918 100.115 351.3 100.274ZM350.656 105.02C351.002 105.02 351.305 104.955 351.566 104.824C351.837 104.693 352.047 104.511 352.196 104.278C352.346 104.035 352.42 103.751 352.42 103.424C352.42 103.116 352.355 102.85 352.224 102.626C352.094 102.393 351.912 102.192 351.678 102.024C351.454 101.856 351.188 101.702 350.88 101.562C350.572 101.413 350.241 101.268 349.886 101.128C349.532 101.38 349.242 101.693 349.018 102.066C348.794 102.43 348.682 102.831 348.682 103.27C348.682 103.615 348.766 103.919 348.934 104.18C349.112 104.441 349.35 104.647 349.648 104.796C349.947 104.945 350.283 105.02 350.656 105.02ZM358.501 95.416H359.705V97.516C359.705 98.2907 359.621 99.0373 359.453 99.756C359.285 100.475 359.037 101.147 358.711 101.772C358.393 102.397 358.006 102.948 357.549 103.424C357.101 103.9 356.587 104.278 356.009 104.558L355.127 103.354C355.64 103.121 356.102 102.803 356.513 102.402C356.933 101.991 357.287 101.525 357.577 101.002C357.875 100.479 358.104 99.9193 358.263 99.322C358.421 98.7247 358.501 98.1227 358.501 97.516V95.416ZM358.767 95.416H359.971V97.516C359.971 98.104 360.045 98.6827 360.195 99.252C360.353 99.8213 360.577 100.358 360.867 100.862C361.156 101.366 361.506 101.809 361.917 102.192C362.327 102.575 362.78 102.883 363.275 103.116L362.421 104.292C361.851 104.021 361.343 103.657 360.895 103.2C360.447 102.743 360.064 102.215 359.747 101.618C359.429 101.021 359.187 100.372 359.019 99.672C358.851 98.972 358.767 98.2533 358.767 97.516V95.416ZM364.297 94.352H365.767V107.176H364.297V94.352ZM368.58 108.8L368.216 107.89C368.701 107.685 369.079 107.409 369.35 107.064C369.62 106.728 369.751 106.35 369.742 105.93L369.63 104.642L370.302 105.706C370.208 105.809 370.101 105.883 369.98 105.93C369.858 105.967 369.728 105.986 369.588 105.986C369.308 105.986 369.056 105.897 368.832 105.72C368.617 105.533 368.51 105.277 368.51 104.95C368.51 104.633 368.617 104.381 368.832 104.194C369.056 104.007 369.322 103.914 369.63 103.914C370.031 103.914 370.339 104.068 370.554 104.376C370.768 104.684 370.876 105.109 370.876 105.65C370.876 106.387 370.67 107.027 370.26 107.568C369.858 108.119 369.298 108.529 368.58 108.8ZM372.26 106V105.062C373.277 104.157 374.126 103.331 374.808 102.584C375.489 101.828 375.998 101.128 376.334 100.484C376.679 99.84 376.852 99.238 376.852 98.678C376.852 98.3047 376.786 97.978 376.656 97.698C376.534 97.4087 376.343 97.1893 376.082 97.04C375.83 96.8813 375.508 96.802 375.116 96.802C374.714 96.802 374.346 96.914 374.01 97.138C373.674 97.3527 373.366 97.6187 373.086 97.936L372.176 97.04C372.614 96.5547 373.076 96.1767 373.562 95.906C374.056 95.6353 374.644 95.5 375.326 95.5C375.951 95.5 376.497 95.6307 376.964 95.892C377.43 96.144 377.79 96.5033 378.042 96.97C378.303 97.4273 378.434 97.9687 378.434 98.594C378.434 99.2567 378.27 99.9287 377.944 100.61C377.617 101.282 377.169 101.963 376.6 102.654C376.03 103.335 375.382 104.026 374.654 104.726C374.924 104.698 375.209 104.675 375.508 104.656C375.816 104.628 376.091 104.614 376.334 104.614H378.924V106H372.26ZM380.818 106V104.67H383.086V97.502H381.238V96.48C381.723 96.396 382.143 96.2887 382.498 96.158C382.862 96.0273 383.193 95.8687 383.492 95.682H384.71V104.67H386.712V106H380.818ZM391.518 95.416H392.722V97.516C392.722 98.2907 392.638 99.0373 392.47 99.756C392.302 100.475 392.055 101.147 391.728 101.772C391.411 102.397 391.024 102.948 390.566 103.424C390.118 103.9 389.605 104.278 389.026 104.558L388.144 103.354C388.658 103.121 389.12 102.803 389.53 102.402C389.95 101.991 390.305 101.525 390.594 101.002C390.893 100.479 391.122 99.9193 391.28 99.322C391.439 98.7247 391.518 98.1227 391.518 97.516V95.416ZM391.784 95.416H392.988V97.516C392.988 98.104 393.063 98.6827 393.212 99.252C393.371 99.8213 393.595 100.358 393.884 100.862C394.174 101.366 394.524 101.809 394.934 102.192C395.345 102.575 395.798 102.883 396.292 103.116L395.438 104.292C394.869 104.021 394.36 103.657 393.912 103.2C393.464 102.743 393.082 102.215 392.764 101.618C392.447 101.021 392.204 100.372 392.036 99.672C391.868 98.972 391.784 98.2533 391.784 97.516V95.416ZM397.314 94.352H398.784V107.176H397.314V94.352ZM401.597 108.8L401.233 107.89C401.719 107.685 402.097 107.409 402.367 107.064C402.638 106.728 402.769 106.35 402.759 105.93L402.647 104.642L403.319 105.706C403.226 105.809 403.119 105.883 402.997 105.93C402.876 105.967 402.745 105.986 402.605 105.986C402.325 105.986 402.073 105.897 401.849 105.72C401.635 105.533 401.527 105.277 401.527 104.95C401.527 104.633 401.635 104.381 401.849 104.194C402.073 104.007 402.339 103.914 402.647 103.914C403.049 103.914 403.357 104.068 403.571 104.376C403.786 104.684 403.893 105.109 403.893 105.65C403.893 106.387 403.688 107.027 403.277 107.568C402.876 108.119 402.316 108.529 401.597 108.8ZM405.277 106V105.062C406.294 104.157 407.144 103.331 407.825 102.584C408.506 101.828 409.015 101.128 409.351 100.484C409.696 99.84 409.869 99.238 409.869 98.678C409.869 98.3047 409.804 97.978 409.673 97.698C409.552 97.4087 409.36 97.1893 409.099 97.04C408.847 96.8813 408.525 96.802 408.133 96.802C407.732 96.802 407.363 96.914 407.027 97.138C406.691 97.3527 406.383 97.6187 406.103 97.936L405.193 97.04C405.632 96.5547 406.094 96.1767 406.579 95.906C407.074 95.6353 407.662 95.5 408.343 95.5C408.968 95.5 409.514 95.6307 409.981 95.892C410.448 96.144 410.807 96.5033 411.059 96.97C411.32 97.4273 411.451 97.9687 411.451 98.594C411.451 99.2567 411.288 99.9287 410.961 100.61C410.634 101.282 410.186 101.963 409.617 102.654C409.048 103.335 408.399 104.026 407.671 104.726C407.942 104.698 408.226 104.675 408.525 104.656C408.833 104.628 409.108 104.614 409.351 104.614H411.941V106H405.277ZM417.392 106V99.28C417.392 99 417.401 98.6687 417.42 98.286C417.438 97.894 417.452 97.558 417.462 97.278H417.406C417.275 97.5393 417.14 97.8053 417 98.076C416.869 98.3467 416.729 98.6127 416.58 98.874L414.564 101.968H420.206V103.228H412.926V102.15L417.028 95.682H418.904V106H417.392ZM424.536 95.416H425.74V97.516C425.74 98.2907 425.656 99.0373 425.488 99.756C425.32 100.475 425.073 101.147 424.746 101.772C424.429 102.397 424.041 102.948 423.584 103.424C423.136 103.9 422.623 104.278 422.044 104.558L421.162 103.354C421.675 103.121 422.137 102.803 422.548 102.402C422.968 101.991 423.323 101.525 423.612 101.002C423.911 100.479 424.139 99.9193 424.298 99.322C424.457 98.7247 424.536 98.1227 424.536 97.516V95.416ZM424.802 95.416H426.006V97.516C426.006 98.104 426.081 98.6827 426.23 99.252C426.389 99.8213 426.613 100.358 426.902 100.862C427.191 101.366 427.541 101.809 427.952 102.192C428.363 102.575 428.815 102.883 429.31 103.116L428.456 104.292C427.887 104.021 427.378 103.657 426.93 103.2C426.482 102.743 426.099 102.215 425.782 101.618C425.465 101.021 425.222 100.372 425.054 99.672C424.886 98.972 424.802 98.2533 424.802 97.516V95.416ZM430.332 94.352H431.802V107.176H430.332V94.352ZM143.457 117.796H146.565V118.986H143.457V117.796ZM145.767 114.366H147.237V123.718H145.767V114.366ZM138.949 125.706H147.573V126.896H138.949V125.706ZM138.949 122.906H140.419V126.364H138.949V122.906ZM139.761 115.99H140.965V116.928C140.965 117.712 140.82 118.459 140.531 119.168C140.251 119.868 139.845 120.479 139.313 121.002C138.781 121.525 138.137 121.921 137.381 122.192L136.625 121.03C137.129 120.853 137.572 120.624 137.955 120.344C138.347 120.064 138.678 119.742 138.949 119.378C139.22 119.014 139.42 118.622 139.551 118.202C139.691 117.782 139.761 117.357 139.761 116.928V115.99ZM140.055 115.99H141.245V116.914C141.245 117.446 141.362 117.964 141.595 118.468C141.828 118.972 142.169 119.425 142.617 119.826C143.065 120.227 143.611 120.54 144.255 120.764L143.527 121.912C142.79 121.651 142.16 121.273 141.637 120.778C141.124 120.274 140.732 119.691 140.461 119.028C140.19 118.356 140.055 117.651 140.055 116.914V115.99ZM137.059 115.332H143.905V116.508H137.059V115.332ZM150.974 114.94H159.15V116.116H150.974V114.94ZM149.518 119.434H161.11V120.624H149.518V119.434ZM154.572 120.26H156.028V123.13H154.572V120.26ZM158.226 114.94H159.668V115.906C159.668 116.447 159.649 117.049 159.612 117.712C159.584 118.375 159.467 119.135 159.262 119.994L157.82 119.854C158.025 119.005 158.142 118.267 158.17 117.642C158.207 117.017 158.226 116.438 158.226 115.906V114.94ZM150.708 122.724H159.724V127.162H158.254V123.9H150.708V122.724ZM168.803 115.416H170.007V117.516C170.007 118.291 169.923 119.037 169.755 119.756C169.587 120.475 169.34 121.147 169.013 121.772C168.696 122.397 168.309 122.948 167.851 123.424C167.403 123.9 166.89 124.278 166.311 124.558L165.429 123.354C165.943 123.121 166.405 122.803 166.815 122.402C167.235 121.991 167.59 121.525 167.879 121.002C168.178 120.479 168.407 119.919 168.565 119.322C168.724 118.725 168.803 118.123 168.803 117.516V115.416ZM169.069 115.416H170.273V117.516C170.273 118.104 170.348 118.683 170.497 119.252C170.656 119.821 170.88 120.358 171.169 120.862C171.459 121.366 171.809 121.809 172.219 122.192C172.63 122.575 173.083 122.883 173.577 123.116L172.723 124.292C172.154 124.021 171.645 123.657 171.197 123.2C170.749 122.743 170.367 122.215 170.049 121.618C169.732 121.021 169.489 120.372 169.321 119.672C169.153 118.972 169.069 118.253 169.069 117.516V115.416ZM174.599 114.352H176.069V127.176H174.599V114.352ZM180.408 125.244C180.408 124.899 180.492 124.656 180.66 124.516C180.828 124.376 181.029 124.306 181.262 124.306C181.505 124.306 181.71 124.376 181.878 124.516C182.056 124.656 182.144 124.899 182.144 125.244C182.144 125.58 182.056 125.823 181.878 125.972C181.71 126.121 181.505 126.196 181.262 126.196C181.029 126.196 180.828 126.121 180.66 125.972C180.492 125.823 180.408 125.58 180.408 125.244ZM186.876 114.996H194.996V116.172H186.876V114.996ZM185.42 119.896H197.012V121.072H185.42V119.896ZM190.544 120.61H192.014V123.984H190.544V120.61ZM194.128 114.996H195.584V116.06C195.584 116.648 195.566 117.297 195.528 118.006C195.491 118.715 195.37 119.537 195.164 120.47L193.722 120.316C193.928 119.411 194.044 118.622 194.072 117.95C194.11 117.269 194.128 116.639 194.128 116.06V114.996ZM186.834 125.706H195.794V126.896H186.834V125.706ZM186.834 122.836H188.29V126H186.834V122.836ZM200.287 125.244C200.287 124.899 200.371 124.656 200.539 124.516C200.707 124.376 200.908 124.306 201.141 124.306C201.384 124.306 201.589 124.376 201.757 124.516C201.935 124.656 202.023 124.899 202.023 125.244C202.023 125.58 201.935 125.823 201.757 125.972C201.589 126.121 201.384 126.196 201.141 126.196C200.908 126.196 200.707 126.121 200.539 125.972C200.371 125.823 200.287 125.58 200.287 125.244ZM206.699 115.15H214.693V116.326H206.699V115.15ZM205.299 120.624H216.863V121.814H205.299V120.624ZM210.297 121.45H211.781V127.162H210.297V121.45ZM213.979 115.15H215.421V116.27C215.421 116.718 215.412 117.194 215.393 117.698C215.384 118.202 215.342 118.757 215.267 119.364C215.202 119.961 215.09 120.624 214.931 121.352L213.475 121.17C213.727 120.125 213.872 119.21 213.909 118.426C213.956 117.642 213.979 116.923 213.979 116.27V115.15ZM230.759 114.366H232.159V122.416H230.759V114.366ZM228.911 117.698H231.151V118.888H228.911V117.698ZM228.057 114.604H229.429V121.982H228.057V114.604ZM221.253 115.794H227.623V116.942H221.253V115.794ZM224.459 117.488C224.991 117.488 225.462 117.581 225.873 117.768C226.283 117.955 226.605 118.211 226.839 118.538C227.072 118.865 227.189 119.252 227.189 119.7C227.189 120.139 227.072 120.526 226.839 120.862C226.605 121.189 226.283 121.445 225.873 121.632C225.462 121.809 224.991 121.898 224.459 121.898C223.927 121.898 223.451 121.809 223.031 121.632C222.62 121.445 222.298 121.189 222.065 120.862C221.831 120.526 221.715 120.139 221.715 119.7C221.715 119.252 221.831 118.865 222.065 118.538C222.298 118.211 222.62 117.955 223.031 117.768C223.451 117.581 223.927 117.488 224.459 117.488ZM224.459 118.552C224.029 118.552 223.679 118.655 223.409 118.86C223.147 119.065 223.017 119.345 223.017 119.7C223.017 120.045 223.147 120.321 223.409 120.526C223.679 120.731 224.025 120.834 224.445 120.834C224.874 120.834 225.219 120.731 225.481 120.526C225.751 120.321 225.887 120.045 225.887 119.7C225.887 119.345 225.751 119.065 225.481 118.86C225.219 118.655 224.879 118.552 224.459 118.552ZM223.731 114.478H225.173V116.522H223.731V114.478ZM227.903 122.598C229.247 122.598 230.301 122.799 231.067 123.2C231.841 123.592 232.229 124.152 232.229 124.88C232.229 125.599 231.841 126.154 231.067 126.546C230.301 126.938 229.247 127.134 227.903 127.134C226.549 127.134 225.49 126.938 224.725 126.546C223.959 126.154 223.577 125.599 223.577 124.88C223.577 124.152 223.959 123.592 224.725 123.2C225.49 122.799 226.549 122.598 227.903 122.598ZM227.903 123.718C226.979 123.718 226.265 123.816 225.761 124.012C225.266 124.199 225.019 124.488 225.019 124.88C225.019 125.253 225.266 125.543 225.761 125.748C226.265 125.944 226.979 126.042 227.903 126.042C228.817 126.042 229.522 125.944 230.017 125.748C230.511 125.543 230.759 125.253 230.759 124.88C230.759 124.488 230.511 124.199 230.017 124.012C229.522 123.816 228.817 123.718 227.903 123.718ZM241.076 117.572H243.764V118.776H241.076V117.572ZM243.33 114.366H244.8V121.982H243.33V114.366ZM240.544 122.318C241.44 122.318 242.205 122.416 242.84 122.612C243.484 122.799 243.978 123.074 244.324 123.438C244.678 123.793 244.856 124.227 244.856 124.74C244.856 125.505 244.468 126.098 243.694 126.518C242.928 126.938 241.878 127.148 240.544 127.148C239.209 127.148 238.154 126.938 237.38 126.518C236.605 126.098 236.218 125.505 236.218 124.74C236.218 124.227 236.39 123.793 236.736 123.438C237.09 123.074 237.59 122.799 238.234 122.612C238.887 122.416 239.657 122.318 240.544 122.318ZM240.544 123.438C239.937 123.438 239.419 123.489 238.99 123.592C238.57 123.695 238.248 123.839 238.024 124.026C237.8 124.213 237.688 124.451 237.688 124.74C237.688 125.011 237.8 125.244 238.024 125.44C238.248 125.636 238.57 125.785 238.99 125.888C239.419 125.981 239.937 126.028 240.544 126.028C241.15 126.028 241.664 125.981 242.084 125.888C242.504 125.785 242.826 125.636 243.05 125.44C243.283 125.244 243.4 125.011 243.4 124.74C243.4 124.451 243.283 124.213 243.05 124.026C242.826 123.839 242.504 123.695 242.084 123.592C241.664 123.489 241.15 123.438 240.544 123.438ZM237.324 115.654H238.528V116.578C238.528 117.381 238.383 118.137 238.094 118.846C237.814 119.546 237.408 120.167 236.876 120.708C236.344 121.24 235.7 121.641 234.944 121.912L234.202 120.75C234.696 120.573 235.135 120.339 235.518 120.05C235.91 119.761 236.241 119.429 236.512 119.056C236.782 118.683 236.983 118.286 237.114 117.866C237.254 117.446 237.324 117.017 237.324 116.578V115.654ZM237.618 115.654H238.808V116.578C238.808 117.101 238.924 117.614 239.158 118.118C239.391 118.622 239.732 119.075 240.18 119.476C240.628 119.868 241.174 120.181 241.818 120.414L241.09 121.562C240.352 121.301 239.722 120.923 239.2 120.428C238.686 119.924 238.294 119.341 238.024 118.678C237.753 118.006 237.618 117.306 237.618 116.578V115.654ZM234.622 115.22H241.468V116.41H234.622V115.22ZM248.481 115.15H256.475V116.326H248.481V115.15ZM247.081 120.624H258.645V121.814H247.081V120.624ZM252.079 121.45H253.563V127.162H252.079V121.45ZM255.761 115.15H257.203V116.27C257.203 116.718 257.193 117.194 257.175 117.698C257.165 118.202 257.123 118.757 257.049 119.364C256.983 119.961 256.871 120.624 256.713 121.352L255.257 121.17C255.509 120.125 255.653 119.21 255.691 118.426C255.737 117.642 255.761 116.923 255.761 116.27V115.15ZM265.713 116.172H269.563V117.348H265.713V116.172ZM265.713 119H269.563V120.19H265.713V119ZM261.947 122.57H270.557V127.162H269.087V123.732H261.947V122.57ZM269.087 114.366H270.557V121.912H269.087V114.366ZM263.473 115.052C264.099 115.052 264.663 115.187 265.167 115.458C265.671 115.719 266.068 116.088 266.357 116.564C266.647 117.031 266.791 117.567 266.791 118.174C266.791 118.781 266.647 119.322 266.357 119.798C266.068 120.265 265.671 120.633 265.167 120.904C264.663 121.165 264.099 121.296 263.473 121.296C262.839 121.296 262.269 121.165 261.765 120.904C261.261 120.633 260.865 120.265 260.575 119.798C260.286 119.322 260.141 118.781 260.141 118.174C260.141 117.567 260.286 117.031 260.575 116.564C260.865 116.088 261.261 115.719 261.765 115.458C262.269 115.187 262.839 115.052 263.473 115.052ZM263.459 116.298C263.095 116.298 262.769 116.377 262.479 116.536C262.19 116.695 261.957 116.914 261.779 117.194C261.611 117.474 261.527 117.801 261.527 118.174C261.527 118.547 261.611 118.874 261.779 119.154C261.957 119.434 262.19 119.653 262.479 119.812C262.769 119.961 263.1 120.036 263.473 120.036C263.837 120.036 264.164 119.961 264.453 119.812C264.743 119.653 264.971 119.434 265.139 119.154C265.307 118.874 265.391 118.547 265.391 118.174C265.391 117.801 265.307 117.474 265.139 117.194C264.971 116.914 264.743 116.695 264.453 116.536C264.164 116.377 263.833 116.298 263.459 116.298ZM277.99 119.21H280.272V120.414H277.99V119.21ZM282.358 114.352H283.758V127.148H282.358V114.352ZM279.796 114.604H281.168V126.546H279.796V114.604ZM275.708 115.346C276.268 115.346 276.754 115.533 277.164 115.906C277.584 116.27 277.906 116.793 278.13 117.474C278.354 118.146 278.466 118.953 278.466 119.896C278.466 120.829 278.354 121.637 278.13 122.318C277.906 122.999 277.584 123.522 277.164 123.886C276.754 124.25 276.268 124.432 275.708 124.432C275.158 124.432 274.677 124.25 274.266 123.886C273.856 123.522 273.538 122.999 273.314 122.318C273.09 121.637 272.978 120.829 272.978 119.896C272.978 118.953 273.09 118.146 273.314 117.474C273.538 116.793 273.856 116.27 274.266 115.906C274.686 115.533 275.167 115.346 275.708 115.346ZM275.708 116.732C275.428 116.732 275.181 116.853 274.966 117.096C274.752 117.339 274.588 117.698 274.476 118.174C274.364 118.641 274.308 119.215 274.308 119.896C274.308 120.559 274.364 121.128 274.476 121.604C274.588 122.08 274.752 122.444 274.966 122.696C275.181 122.939 275.428 123.06 275.708 123.06C276.007 123.06 276.259 122.939 276.464 122.696C276.679 122.444 276.842 122.08 276.954 121.604C277.066 121.128 277.122 120.559 277.122 119.896C277.122 119.215 277.066 118.641 276.954 118.174C276.842 117.698 276.679 117.339 276.464 117.096C276.259 116.853 276.007 116.732 275.708 116.732ZM298.382 114.352H299.782V127.148H298.382V114.352ZM296.562 119.35H298.872V120.526H296.562V119.35ZM295.568 114.604H296.94V126.546H295.568V114.604ZM289.282 115.766H294.224V123.83H289.282V115.766ZM292.866 116.914H290.654V122.682H292.866V116.914ZM305.003 115.416H306.207V117.516C306.207 118.291 306.123 119.037 305.955 119.756C305.787 120.475 305.539 121.147 305.213 121.772C304.895 122.397 304.508 122.948 304.051 123.424C303.603 123.9 303.089 124.278 302.511 124.558L301.629 123.354C302.142 123.121 302.604 122.803 303.015 122.402C303.435 121.991 303.789 121.525 304.079 121.002C304.377 120.479 304.606 119.919 304.765 119.322C304.923 118.725 305.003 118.123 305.003 117.516V115.416ZM305.269 115.416H306.473V117.516C306.473 118.104 306.547 118.683 306.697 119.252C306.855 119.821 307.079 120.358 307.369 120.862C307.658 121.366 308.008 121.809 308.419 122.192C308.829 122.575 309.282 122.883 309.777 123.116L308.923 124.292C308.353 124.021 307.845 123.657 307.397 123.2C306.949 122.743 306.566 122.215 306.249 121.618C305.931 121.021 305.689 120.372 305.521 119.672C305.353 118.972 305.269 118.253 305.269 117.516V115.416ZM310.799 114.352H312.269V127.176H310.799V114.352ZM323.132 114.366H324.602V123.62H323.132V114.366ZM324.168 118.104H326.408V119.308H324.168V118.104ZM319.604 115.332H321.172C321.172 116.461 320.934 117.479 320.458 118.384C319.982 119.289 319.296 120.069 318.4 120.722C317.513 121.375 316.444 121.889 315.194 122.262L314.578 121.086C315.642 120.778 316.547 120.372 317.294 119.868C318.05 119.364 318.624 118.785 319.016 118.132C319.408 117.479 319.604 116.774 319.604 116.018V115.332ZM315.124 115.332H320.374V116.522H315.124V115.332ZM316.496 125.706H325.106V126.896H316.496V125.706ZM316.496 122.682H317.966V126.224H316.496V122.682ZM333.667 115.136H334.871V116.62C334.871 117.46 334.731 118.244 334.451 118.972C334.18 119.691 333.779 120.316 333.247 120.848C332.715 121.38 332.071 121.786 331.315 122.066L330.517 120.918C331.208 120.685 331.786 120.353 332.253 119.924C332.72 119.485 333.07 118.981 333.303 118.412C333.546 117.843 333.667 117.245 333.667 116.62V115.136ZM333.947 115.136H335.137V116.662C335.137 117.082 335.202 117.493 335.333 117.894C335.473 118.295 335.669 118.673 335.921 119.028C336.182 119.383 336.5 119.695 336.873 119.966C337.256 120.237 337.694 120.456 338.189 120.624L337.447 121.786C336.7 121.515 336.066 121.128 335.543 120.624C335.02 120.12 334.624 119.527 334.353 118.846C334.082 118.155 333.947 117.427 333.947 116.662V115.136ZM339.169 114.352H340.625V123.76H339.169V114.352ZM340.191 118.188H342.431V119.406H340.191V118.188ZM332.561 125.706H341.143V126.896H332.561V125.706ZM332.561 122.864H334.031V126.322H332.561V122.864ZM348.562 120.512H350.018V122.402H348.562V120.512ZM345.02 114.548H346.476V115.598H352.132V114.548H353.588V118.804H345.02V114.548ZM346.476 116.69V117.698H352.132V116.69H346.476ZM343.522 119.686H355.086V120.848H343.522V119.686ZM344.88 121.898H353.63V124.922H346.35V126.322H344.908V123.886H352.188V122.99H344.88V121.898ZM344.908 125.916H353.994V127.036H344.908V125.916ZM360.559 114.912C361.203 114.912 361.772 115.029 362.267 115.262C362.771 115.486 363.163 115.799 363.443 116.2C363.732 116.601 363.877 117.068 363.877 117.6C363.877 118.123 363.732 118.585 363.443 118.986C363.163 119.387 362.771 119.705 362.267 119.938C361.772 120.162 361.203 120.274 360.559 120.274C359.924 120.274 359.36 120.162 358.865 119.938C358.37 119.705 357.978 119.387 357.689 118.986C357.409 118.585 357.269 118.123 357.269 117.6C357.269 117.068 357.409 116.601 357.689 116.2C357.978 115.799 358.37 115.486 358.865 115.262C359.36 115.029 359.924 114.912 360.559 114.912ZM360.559 116.116C360.195 116.116 359.868 116.177 359.579 116.298C359.299 116.419 359.075 116.592 358.907 116.816C358.748 117.031 358.669 117.292 358.669 117.6C358.669 117.899 358.748 118.16 358.907 118.384C359.075 118.599 359.299 118.767 359.579 118.888C359.868 119.009 360.195 119.07 360.559 119.07C360.932 119.07 361.259 119.009 361.539 118.888C361.828 118.767 362.052 118.599 362.211 118.384C362.379 118.16 362.463 117.899 362.463 117.6C362.463 117.292 362.379 117.031 362.211 116.816C362.052 116.592 361.828 116.419 361.539 116.298C361.259 116.177 360.932 116.116 360.559 116.116ZM359.887 121.632H361.371V126.756H359.887V121.632ZM365.529 114.366H366.985V127.162H365.529V114.366ZM356.583 122.416L356.401 121.212C357.176 121.212 358.03 121.203 358.963 121.184C359.896 121.165 360.853 121.123 361.833 121.058C362.822 120.993 363.774 120.89 364.689 120.75L364.787 121.842C363.854 122.019 362.897 122.15 361.917 122.234C360.946 122.318 360.004 122.369 359.089 122.388C358.184 122.407 357.348 122.416 356.583 122.416ZM378.408 114.366H379.878V122.094H378.408V114.366ZM376.518 118.174H379.038V119.378H376.518V118.174ZM371.478 122.71H379.878V126.994H371.478V122.71ZM378.45 123.886H372.92V125.832H378.45V123.886ZM369.308 115.598H376.742V116.76H369.308V115.598ZM373.018 117.32C373.606 117.32 374.124 117.418 374.572 117.614C375.029 117.801 375.384 118.067 375.636 118.412C375.897 118.757 376.028 119.154 376.028 119.602C376.028 120.059 375.897 120.461 375.636 120.806C375.384 121.142 375.029 121.408 374.572 121.604C374.124 121.791 373.606 121.884 373.018 121.884C372.439 121.884 371.921 121.791 371.464 121.604C371.016 121.408 370.661 121.142 370.4 120.806C370.148 120.461 370.022 120.059 370.022 119.602C370.022 119.154 370.148 118.757 370.4 118.412C370.661 118.067 371.016 117.801 371.464 117.614C371.921 117.418 372.439 117.32 373.018 117.32ZM373.032 118.412C372.714 118.412 372.434 118.463 372.192 118.566C371.949 118.659 371.758 118.795 371.618 118.972C371.487 119.149 371.422 119.359 371.422 119.602C371.422 119.845 371.487 120.059 371.618 120.246C371.758 120.423 371.949 120.559 372.192 120.652C372.434 120.745 372.71 120.792 373.018 120.792C373.335 120.792 373.615 120.745 373.858 120.652C374.1 120.559 374.287 120.423 374.418 120.246C374.558 120.059 374.628 119.845 374.628 119.602C374.628 119.359 374.558 119.149 374.418 118.972C374.287 118.795 374.1 118.659 373.858 118.566C373.615 118.463 373.34 118.412 373.032 118.412ZM372.29 114.24H373.76V116.424H372.29V114.24ZM388.271 115.038H389.489V116.27C389.489 117.101 389.349 117.88 389.069 118.608C388.799 119.327 388.397 119.957 387.865 120.498C387.343 121.039 386.708 121.445 385.961 121.716L385.177 120.554C385.849 120.321 386.414 119.985 386.871 119.546C387.338 119.107 387.688 118.608 387.921 118.048C388.155 117.479 388.271 116.886 388.271 116.27V115.038ZM388.565 115.038H389.755V116.396C389.755 116.807 389.821 117.208 389.951 117.6C390.082 117.983 390.273 118.347 390.525 118.692C390.787 119.028 391.104 119.327 391.477 119.588C391.851 119.849 392.275 120.059 392.751 120.218L391.981 121.366C391.263 121.105 390.647 120.727 390.133 120.232C389.629 119.737 389.242 119.163 388.971 118.51C388.701 117.847 388.565 117.143 388.565 116.396V115.038ZM393.829 114.366H395.285V122.038H393.829V114.366ZM394.893 117.516H397.091V118.734H394.893V117.516ZM391.169 122.36C392.056 122.36 392.812 122.453 393.437 122.64C394.072 122.827 394.562 123.102 394.907 123.466C395.253 123.821 395.425 124.25 395.425 124.754C395.425 125.249 395.253 125.673 394.907 126.028C394.562 126.392 394.072 126.667 393.437 126.854C392.812 127.041 392.056 127.134 391.169 127.134C390.292 127.134 389.531 127.041 388.887 126.854C388.253 126.667 387.763 126.392 387.417 126.028C387.081 125.673 386.913 125.249 386.913 124.754C386.913 124.25 387.081 123.821 387.417 123.466C387.763 123.102 388.253 122.827 388.887 122.64C389.531 122.453 390.292 122.36 391.169 122.36ZM391.169 123.508C390.581 123.508 390.077 123.555 389.657 123.648C389.237 123.741 388.915 123.881 388.691 124.068C388.467 124.255 388.355 124.483 388.355 124.754C388.355 125.015 388.467 125.239 388.691 125.426C388.915 125.613 389.237 125.757 389.657 125.86C390.077 125.953 390.581 126 391.169 126C391.767 126 392.271 125.953 392.681 125.86C393.101 125.757 393.423 125.613 393.647 125.426C393.871 125.239 393.983 125.015 393.983 124.754C393.983 124.483 393.871 124.255 393.647 124.068C393.423 123.881 393.101 123.741 392.681 123.648C392.271 123.555 391.767 123.508 391.169 123.508ZM406.736 114.366H408.192V123.018H406.736V114.366ZM407.632 118.118H409.956V119.322H407.632V118.118ZM404.02 123.172C405.364 123.172 406.409 123.345 407.156 123.69C407.912 124.026 408.29 124.516 408.29 125.16C408.29 125.804 407.912 126.294 407.156 126.63C406.409 126.975 405.364 127.148 404.02 127.148C402.667 127.148 401.617 126.975 400.87 126.63C400.123 126.294 399.75 125.804 399.75 125.16C399.75 124.516 400.123 124.026 400.87 123.69C401.617 123.345 402.667 123.172 404.02 123.172ZM404.02 124.236C403.096 124.236 402.401 124.315 401.934 124.474C401.467 124.633 401.234 124.861 401.234 125.16C401.234 125.468 401.467 125.701 401.934 125.86C402.401 126.009 403.096 126.084 404.02 126.084C404.935 126.084 405.625 126.009 406.092 125.86C406.568 125.701 406.806 125.468 406.806 125.16C406.806 124.861 406.568 124.633 406.092 124.474C405.625 124.315 404.935 124.236 404.02 124.236ZM401.332 120.106H402.788V121.912H401.332V120.106ZM398.252 122.556L398.07 121.422C398.835 121.422 399.671 121.417 400.576 121.408C401.481 121.389 402.405 121.352 403.348 121.296C404.291 121.24 405.196 121.156 406.064 121.044L406.162 122.038C405.266 122.197 404.351 122.313 403.418 122.388C402.485 122.463 401.575 122.509 400.688 122.528C399.811 122.547 398.999 122.556 398.252 122.556ZM398.392 115.388H405.7V116.452H398.392V115.388ZM402.046 116.886C402.97 116.886 403.707 117.049 404.258 117.376C404.818 117.693 405.098 118.141 405.098 118.72C405.098 119.28 404.818 119.723 404.258 120.05C403.707 120.377 402.975 120.54 402.06 120.54C401.136 120.54 400.394 120.377 399.834 120.05C399.283 119.723 399.008 119.28 399.008 118.72C399.008 118.141 399.283 117.693 399.834 117.376C400.394 117.049 401.131 116.886 402.046 116.886ZM402.046 117.866C401.533 117.866 401.127 117.941 400.828 118.09C400.539 118.239 400.394 118.445 400.394 118.706C400.394 118.986 400.539 119.201 400.828 119.35C401.127 119.49 401.533 119.56 402.046 119.56C402.559 119.56 402.961 119.49 403.25 119.35C403.549 119.201 403.698 118.986 403.698 118.706C403.698 118.445 403.549 118.239 403.25 118.09C402.961 117.941 402.559 117.866 402.046 117.866ZM401.332 114.268H402.788V115.822H401.332V114.268ZM416.843 114.562C418.28 114.562 419.396 114.753 420.189 115.136C420.992 115.509 421.393 116.051 421.393 116.76C421.393 117.469 420.992 118.015 420.189 118.398C419.396 118.781 418.28 118.972 416.843 118.972C415.406 118.972 414.286 118.781 413.483 118.398C412.68 118.015 412.279 117.469 412.279 116.76C412.279 116.051 412.68 115.509 413.483 115.136C414.286 114.753 415.406 114.562 416.843 114.562ZM416.829 115.654C416.176 115.654 415.62 115.696 415.163 115.78C414.715 115.864 414.374 115.99 414.141 116.158C413.917 116.317 413.805 116.517 413.805 116.76C413.805 117.003 413.917 117.208 414.141 117.376C414.374 117.544 414.715 117.67 415.163 117.754C415.62 117.838 416.176 117.88 416.829 117.88C417.501 117.88 418.061 117.838 418.509 117.754C418.957 117.67 419.298 117.544 419.531 117.376C419.764 117.208 419.881 117.003 419.881 116.76C419.881 116.517 419.764 116.317 419.531 116.158C419.298 115.99 418.957 115.864 418.509 115.78C418.061 115.696 417.501 115.654 416.829 115.654ZM411.061 119.714H422.625V120.876H411.061V119.714ZM412.419 121.8H421.169V124.866H413.889V126.224H412.447V123.83H419.727V122.906H412.419V121.8ZM412.447 125.916H421.533V127.036H412.447V125.916ZM436.59 114.352H437.99V127.148H436.59V114.352ZM432.124 118.86H434.434V120.05H432.124V118.86ZM434.028 114.618H435.4V126.532H434.028V114.618ZM429.548 116.382H430.654V117.88C430.654 118.58 430.594 119.275 430.472 119.966C430.36 120.647 430.183 121.287 429.94 121.884C429.707 122.481 429.408 123.023 429.044 123.508C428.68 123.984 428.256 124.371 427.77 124.67L426.874 123.592C427.49 123.209 427.994 122.719 428.386 122.122C428.778 121.515 429.068 120.848 429.254 120.12C429.45 119.383 429.548 118.636 429.548 117.88V116.382ZM429.856 116.382H430.962V117.88C430.962 118.608 431.056 119.322 431.242 120.022C431.429 120.722 431.714 121.357 432.096 121.926C432.488 122.486 432.983 122.943 433.58 123.298L432.712 124.362C432.068 123.97 431.536 123.443 431.116 122.78C430.696 122.108 430.379 121.352 430.164 120.512C429.959 119.672 429.856 118.795 429.856 117.88V116.382ZM427.28 115.752H433.062V116.956H427.28V115.752ZM445.689 122.388C446.604 122.388 447.397 122.486 448.069 122.682C448.741 122.869 449.259 123.139 449.623 123.494C449.997 123.849 450.183 124.273 450.183 124.768C450.183 125.263 449.997 125.687 449.623 126.042C449.259 126.397 448.741 126.667 448.069 126.854C447.397 127.041 446.604 127.134 445.689 127.134C444.775 127.134 443.981 127.041 443.309 126.854C442.637 126.667 442.115 126.397 441.741 126.042C441.377 125.687 441.195 125.263 441.195 124.768C441.195 124.273 441.377 123.849 441.741 123.494C442.115 123.139 442.637 122.869 443.309 122.682C443.981 122.486 444.775 122.388 445.689 122.388ZM445.689 123.508C445.064 123.508 444.523 123.555 444.065 123.648C443.617 123.741 443.272 123.886 443.029 124.082C442.787 124.269 442.665 124.497 442.665 124.768C442.665 125.029 442.787 125.253 443.029 125.44C443.272 125.627 443.617 125.771 444.065 125.874C444.523 125.977 445.064 126.028 445.689 126.028C446.324 126.028 446.865 125.977 447.313 125.874C447.761 125.771 448.107 125.627 448.349 125.44C448.601 125.253 448.727 125.029 448.727 124.768C448.727 124.497 448.601 124.269 448.349 124.082C448.107 123.886 447.761 123.741 447.313 123.648C446.865 123.555 446.324 123.508 445.689 123.508ZM441.307 114.968H449.483V116.144H441.307V114.968ZM439.977 120.204H451.513V121.38H439.977V120.204ZM444.513 117.852H445.969V120.526H444.513V117.852ZM448.629 114.968H450.085V116.046C450.085 116.559 450.071 117.091 450.043 117.642C450.015 118.183 449.913 118.785 449.735 119.448L448.293 119.294C448.461 118.631 448.559 118.048 448.587 117.544C448.615 117.04 448.629 116.541 448.629 116.046V114.968ZM461.368 114.366H462.824V121.814H461.368V114.366ZM462.222 117.544H464.63V118.762H462.222V117.544ZM454.662 122.36H456.118V123.536H461.382V122.36H462.824V126.994H454.662V122.36ZM456.118 124.656V125.832H461.382V124.656H456.118ZM452.856 115.584H460.402V116.76H452.856V115.584ZM456.636 117.236C457.252 117.236 457.789 117.329 458.246 117.516C458.713 117.693 459.077 117.955 459.338 118.3C459.6 118.636 459.73 119.028 459.73 119.476C459.73 119.933 459.6 120.335 459.338 120.68C459.077 121.016 458.713 121.277 458.246 121.464C457.789 121.651 457.252 121.744 456.636 121.744C456.02 121.744 455.479 121.651 455.012 121.464C454.546 121.277 454.182 121.016 453.92 120.68C453.659 120.335 453.528 119.933 453.528 119.476C453.528 119.028 453.659 118.636 453.92 118.3C454.182 117.955 454.546 117.693 455.012 117.516C455.479 117.329 456.02 117.236 456.636 117.236ZM456.636 118.314C456.123 118.314 455.708 118.421 455.39 118.636C455.082 118.841 454.928 119.126 454.928 119.49C454.928 119.854 455.082 120.139 455.39 120.344C455.708 120.549 456.123 120.652 456.636 120.652C457.14 120.652 457.546 120.549 457.854 120.344C458.162 120.139 458.316 119.854 458.316 119.49C458.316 119.126 458.162 118.841 457.854 118.636C457.546 118.421 457.14 118.314 456.636 118.314ZM455.894 114.254H457.364V116.228H455.894V114.254ZM474.821 114.352H476.291V127.148H474.821V114.352ZM466.463 115.598H467.919V123.536H466.463V115.598ZM466.463 122.668H467.555C468.516 122.668 469.506 122.626 470.523 122.542C471.54 122.458 472.581 122.304 473.645 122.08L473.813 123.326C472.712 123.55 471.643 123.704 470.607 123.788C469.571 123.872 468.554 123.914 467.555 123.914H466.463V122.668ZM487.042 114.352H488.512V127.176H487.042V114.352ZM488.19 119.266H490.5V120.484H488.19V119.266ZM479.118 122.808H480.154C480.919 122.808 481.624 122.799 482.268 122.78C482.912 122.752 483.537 122.71 484.144 122.654C484.751 122.589 485.367 122.5 485.992 122.388L486.146 123.606C485.502 123.727 484.867 123.821 484.242 123.886C483.626 123.942 482.982 123.984 482.31 124.012C481.647 124.031 480.929 124.04 480.154 124.04H479.118V122.808ZM479.118 115.57H485.068V116.76H480.574V123.382H479.118V115.57ZM492.921 126.196C492.622 126.196 492.366 126.089 492.151 125.874C491.946 125.65 491.843 125.375 491.843 125.048C491.843 124.712 491.946 124.441 492.151 124.236C492.366 124.021 492.622 123.914 492.921 123.914C493.229 123.914 493.486 124.021 493.691 124.236C493.906 124.441 494.013 124.712 494.013 125.048C494.013 125.375 493.906 125.65 493.691 125.874C493.486 126.089 493.229 126.196 492.921 126.196Z" fill="black"/>
<rect x="67" y="290" width="145" height="141" rx="5" fill="black" fill-opacity="0.59"/>
<rect x="244" y="288" width="145" height="141" rx="5" fill="black" fill-opacity="0.59"/>
<rect x="421" y="286" width="145" height="141" rx="5" fill="black" fill-opacity="0.59"/>
<path d="M123.302 322.582C123.573 323.03 123.475 323.399 123.008 323.688C122.541 323.968 122.182 323.903 121.93 323.492L119.62 319.95L116.918 325.984C116.731 326.413 116.381 326.535 115.868 326.348C115.355 326.152 115.201 325.811 115.406 325.326L118.598 318.186H116.218C115.873 318.186 115.695 317.953 115.686 317.486C115.686 317.01 115.863 316.772 116.218 316.772H122.77C123.134 316.772 123.311 317.01 123.302 317.486C123.302 317.953 123.125 318.186 122.77 318.186H120.446L123.302 322.582ZM120.222 328.686C119.886 328.686 119.653 328.597 119.522 328.42C119.401 328.252 119.34 328.061 119.34 327.846V324.388C119.34 323.94 119.615 323.716 120.166 323.716C120.726 323.716 121.006 323.94 121.006 324.388V327.132C121.006 327.169 121.011 327.202 121.02 327.23C121.029 327.258 121.067 327.272 121.132 327.272H127.432C127.777 327.272 127.95 327.51 127.95 327.986C127.959 328.453 127.787 328.686 127.432 328.686H120.222ZM126.648 324.388C126.648 324.836 126.368 325.06 125.808 325.06C125.257 325.06 124.982 324.836 124.982 324.388V317.136C124.982 316.688 125.257 316.464 125.808 316.464C126.368 316.464 126.648 316.688 126.648 317.136V324.388ZM133.664 325.83C133.664 326.045 133.599 326.241 133.468 326.418C133.347 326.586 133.118 326.67 132.782 326.67H129.058C128.704 326.67 128.526 326.437 128.526 325.97C128.536 325.494 128.713 325.256 129.058 325.256H131.872C131.938 325.256 131.975 325.242 131.984 325.214C131.994 325.186 131.998 325.153 131.998 325.116V324.22C131.438 324.099 130.948 323.847 130.528 323.464C129.922 322.904 129.618 322.241 129.618 321.476C129.618 320.701 129.922 320.039 130.528 319.488C130.575 319.451 130.626 319.409 130.682 319.362H129.324C128.979 319.362 128.802 319.129 128.792 318.662C128.792 318.186 128.97 317.948 129.324 317.948H131.998V317.066C131.998 316.618 132.274 316.394 132.824 316.394C133.384 316.394 133.664 316.618 133.664 317.066V317.948H136.212C136.576 317.948 136.754 318.186 136.744 318.662C136.744 319.129 136.567 319.362 136.212 319.362H134.854C134.91 319.409 134.962 319.451 135.008 319.488C135.615 320.039 135.918 320.701 135.918 321.476C135.918 322.241 135.615 322.904 135.008 323.464C134.616 323.819 134.168 324.061 133.664 324.192V325.83ZM139.082 327.692C139.082 328.14 138.802 328.364 138.242 328.364C137.692 328.364 137.416 328.14 137.416 327.692V317.136C137.416 316.688 137.692 316.464 138.242 316.464C138.802 316.464 139.082 316.688 139.082 317.136V327.692ZM134.28 321.406C134.28 320.995 134.131 320.65 133.832 320.37C133.543 320.081 133.193 319.936 132.782 319.936C132.362 319.936 132.008 320.081 131.718 320.37C131.429 320.65 131.284 320.995 131.284 321.406C131.284 321.817 131.429 322.167 131.718 322.456C132.008 322.736 132.362 322.876 132.782 322.876C133.193 322.876 133.543 322.736 133.832 322.456C134.131 322.167 134.28 321.817 134.28 321.406ZM141.7 321.602C141.7 321.901 141.593 322.157 141.378 322.372C141.173 322.577 140.921 322.68 140.622 322.68C140.324 322.68 140.067 322.577 139.852 322.372C139.647 322.157 139.544 321.901 139.544 321.602C139.544 321.303 139.647 321.051 139.852 320.846C140.067 320.631 140.324 320.524 140.622 320.524C140.921 320.524 141.173 320.631 141.378 320.846C141.593 321.051 141.7 321.303 141.7 321.602ZM156.056 326.642C156.056 327.379 155.758 328.014 155.16 328.546C154.572 329.078 153.854 329.344 153.004 329.344C152.146 329.344 151.418 329.078 150.82 328.546C150.223 328.023 149.924 327.389 149.924 326.642C149.924 325.895 150.223 325.261 150.82 324.738C151.166 324.43 151.562 324.211 152.01 324.08V323.478C152.01 323.441 152.006 323.408 151.996 323.38C151.987 323.352 151.95 323.338 151.884 323.338H146.9C146.555 323.338 146.378 323.105 146.368 322.638C146.368 322.162 146.546 321.924 146.9 321.924H152.794C153.13 321.924 153.359 322.013 153.48 322.19C153.611 322.358 153.676 322.549 153.676 322.764V324.01C154.236 324.113 154.731 324.355 155.16 324.738C155.758 325.261 156.056 325.895 156.056 326.642ZM156.728 320.272C157.111 320.524 157.144 320.846 156.826 321.238C156.509 321.621 156.164 321.686 155.79 321.434L152.164 318.956L148.538 321.434C148.165 321.686 147.82 321.621 147.502 321.238C147.185 320.846 147.218 320.524 147.6 320.272L150.764 318.186H148.23C147.885 318.186 147.708 317.953 147.698 317.486C147.698 317.01 147.876 316.772 148.23 316.772H156.098C156.462 316.772 156.64 317.01 156.63 317.486C156.63 317.953 156.453 318.186 156.098 318.186H153.55L156.728 320.272ZM154.39 326.642C154.39 326.287 154.255 325.989 153.984 325.746C153.714 325.494 153.387 325.368 153.004 325.368C152.622 325.368 152.295 325.494 152.024 325.746C151.754 325.989 151.618 326.287 151.618 326.642C151.618 326.987 151.754 327.286 152.024 327.538C152.295 327.79 152.622 327.916 153.004 327.916C153.387 327.916 153.714 327.79 153.984 327.538C154.255 327.286 154.39 326.987 154.39 326.642Z" fill="white"/>
<path d="M293.302 322.582C293.573 323.03 293.475 323.399 293.008 323.688C292.541 323.968 292.182 323.903 291.93 323.492L289.62 319.95L286.918 325.984C286.731 326.413 286.381 326.535 285.868 326.348C285.355 326.152 285.201 325.811 285.406 325.326L288.598 318.186H286.218C285.873 318.186 285.695 317.953 285.686 317.486C285.686 317.01 285.863 316.772 286.218 316.772H292.77C293.134 316.772 293.311 317.01 293.302 317.486C293.302 317.953 293.125 318.186 292.77 318.186H290.446L293.302 322.582ZM290.222 328.686C289.886 328.686 289.653 328.597 289.522 328.42C289.401 328.252 289.34 328.061 289.34 327.846V324.388C289.34 323.94 289.615 323.716 290.166 323.716C290.726 323.716 291.006 323.94 291.006 324.388V327.132C291.006 327.169 291.011 327.202 291.02 327.23C291.029 327.258 291.067 327.272 291.132 327.272H297.432C297.777 327.272 297.95 327.51 297.95 327.986C297.959 328.453 297.787 328.686 297.432 328.686H290.222ZM296.648 324.388C296.648 324.836 296.368 325.06 295.808 325.06C295.257 325.06 294.982 324.836 294.982 324.388V317.136C294.982 316.688 295.257 316.464 295.808 316.464C296.368 316.464 296.648 316.688 296.648 317.136V324.388ZM303.664 325.83C303.664 326.045 303.599 326.241 303.468 326.418C303.347 326.586 303.118 326.67 302.782 326.67H299.058C298.704 326.67 298.526 326.437 298.526 325.97C298.536 325.494 298.713 325.256 299.058 325.256H301.872C301.938 325.256 301.975 325.242 301.984 325.214C301.994 325.186 301.998 325.153 301.998 325.116V324.22C301.438 324.099 300.948 323.847 300.528 323.464C299.922 322.904 299.618 322.241 299.618 321.476C299.618 320.701 299.922 320.039 300.528 319.488C300.575 319.451 300.626 319.409 300.682 319.362H299.324C298.979 319.362 298.802 319.129 298.792 318.662C298.792 318.186 298.97 317.948 299.324 317.948H301.998V317.066C301.998 316.618 302.274 316.394 302.824 316.394C303.384 316.394 303.664 316.618 303.664 317.066V317.948H306.212C306.576 317.948 306.754 318.186 306.744 318.662C306.744 319.129 306.567 319.362 306.212 319.362H304.854C304.91 319.409 304.962 319.451 305.008 319.488C305.615 320.039 305.918 320.701 305.918 321.476C305.918 322.241 305.615 322.904 305.008 323.464C304.616 323.819 304.168 324.061 303.664 324.192V325.83ZM309.082 327.692C309.082 328.14 308.802 328.364 308.242 328.364C307.692 328.364 307.416 328.14 307.416 327.692V317.136C307.416 316.688 307.692 316.464 308.242 316.464C308.802 316.464 309.082 316.688 309.082 317.136V327.692ZM304.28 321.406C304.28 320.995 304.131 320.65 303.832 320.37C303.543 320.081 303.193 319.936 302.782 319.936C302.362 319.936 302.008 320.081 301.718 320.37C301.429 320.65 301.284 320.995 301.284 321.406C301.284 321.817 301.429 322.167 301.718 322.456C302.008 322.736 302.362 322.876 302.782 322.876C303.193 322.876 303.543 322.736 303.832 322.456C304.131 322.167 304.28 321.817 304.28 321.406ZM311.7 321.602C311.7 321.901 311.593 322.157 311.378 322.372C311.173 322.577 310.921 322.68 310.622 322.68C310.324 322.68 310.067 322.577 309.852 322.372C309.647 322.157 309.544 321.901 309.544 321.602C309.544 321.303 309.647 321.051 309.852 320.846C310.067 320.631 310.324 320.524 310.622 320.524C310.921 320.524 311.173 320.631 311.378 320.846C311.593 321.051 311.7 321.303 311.7 321.602ZM321.506 324.15C321.506 324.29 321.478 324.425 321.422 324.556C321.562 324.463 321.754 324.416 321.996 324.416C322.556 324.416 322.836 324.64 322.836 325.088V327.132C322.836 327.169 322.841 327.202 322.85 327.23C322.86 327.258 322.897 327.272 322.962 327.272H328.982C329.328 327.272 329.5 327.51 329.5 327.986C329.51 328.453 329.337 328.686 328.982 328.686H322.052C321.716 328.686 321.483 328.597 321.352 328.42C321.231 328.252 321.17 328.061 321.17 327.846V325.088C321.17 325.004 321.18 324.925 321.198 324.85C321.068 324.943 320.876 324.99 320.624 324.99H316.9C316.546 324.99 316.368 324.757 316.368 324.29C316.378 323.814 316.555 323.576 316.9 323.576H319.714C319.78 323.576 319.817 323.562 319.826 323.534C319.836 323.506 319.84 323.473 319.84 323.436V322.582C319.206 322.47 318.646 322.199 318.16 321.77C317.498 321.173 317.166 320.449 317.166 319.6C317.166 318.741 317.498 318.018 318.16 317.43C318.832 316.842 319.649 316.548 320.61 316.548C321.562 316.548 322.37 316.851 323.032 317.458C323.695 318.055 324.026 318.769 324.026 319.6C324.026 320.431 323.695 321.149 323.032 321.756C322.584 322.157 322.076 322.423 321.506 322.554V324.15ZM326.924 325.088C326.924 325.536 326.644 325.76 326.084 325.76C325.534 325.76 325.258 325.536 325.258 325.088V317.136C325.258 316.688 325.534 316.464 326.084 316.464C326.644 316.464 326.924 316.688 326.924 317.136V325.088ZM322.36 319.6C322.36 319.133 322.192 318.746 321.856 318.438C321.52 318.121 321.105 317.962 320.61 317.962C320.116 317.962 319.7 318.121 319.364 318.438C319.028 318.746 318.86 319.133 318.86 319.6C318.86 320.057 319.028 320.445 319.364 320.762C319.7 321.079 320.116 321.238 320.61 321.238C321.105 321.238 321.52 321.079 321.856 320.762C322.192 320.445 322.36 320.057 322.36 319.6ZM329.542 320.482C329.542 320.781 329.435 321.037 329.22 321.252C329.015 321.457 328.763 321.56 328.464 321.56C328.166 321.56 327.909 321.457 327.694 321.252C327.489 321.037 327.386 320.781 327.386 320.482C327.386 320.183 327.489 319.931 327.694 319.726C327.909 319.511 328.166 319.404 328.464 319.404C328.763 319.404 329.015 319.511 329.22 319.726C329.435 319.931 329.542 320.183 329.542 320.482ZM335.24 326.18C335.24 326.395 335.175 326.591 335.044 326.768C334.923 326.936 334.694 327.02 334.358 327.02H330.9C330.546 327.02 330.368 326.787 330.368 326.32C330.378 325.844 330.555 325.606 330.9 325.606H333.448C333.514 325.606 333.551 325.592 333.56 325.564C333.57 325.536 333.574 325.503 333.574 325.466V324.164C333.574 323.716 333.85 323.492 334.4 323.492C334.96 323.492 335.24 323.716 335.24 324.164V326.18ZM338.796 326.39C338.796 326.838 338.516 327.062 337.956 327.062C337.406 327.062 337.13 326.838 337.13 326.39V324.164C337.13 323.716 337.406 323.492 337.956 323.492C338.516 323.492 338.796 323.716 338.796 324.164V326.39ZM340.14 319.88C340.14 320.095 340.075 320.291 339.944 320.468C339.823 320.636 339.594 320.72 339.258 320.72H333.616C333.551 320.72 333.514 320.734 333.504 320.762C333.495 320.79 333.49 320.823 333.49 320.86V321.714C333.49 321.751 333.495 321.784 333.504 321.812C333.514 321.84 333.551 321.854 333.616 321.854H339.972C340.327 321.854 340.5 322.092 340.49 322.568C340.49 323.035 340.318 323.268 339.972 323.268H332.706C332.37 323.268 332.137 323.184 332.006 323.016C331.885 322.839 331.824 322.643 331.824 322.428V320.146C331.824 319.931 331.885 319.74 332.006 319.572C332.137 319.395 332.37 319.306 332.706 319.306H338.348C338.414 319.306 338.451 319.292 338.46 319.264C338.47 319.236 338.474 319.203 338.474 319.166V318.312C338.474 318.275 338.47 318.242 338.46 318.214C338.451 318.186 338.414 318.172 338.348 318.172H332.342C331.997 318.172 331.82 317.939 331.81 317.472C331.81 316.996 331.988 316.758 332.342 316.758H339.258C339.594 316.758 339.823 316.847 339.944 317.024C340.075 317.192 340.14 317.383 340.14 317.598V319.88Z" fill="white"/>
<path d="M461.896 322.848C462.045 323.277 461.859 323.581 461.336 323.758C460.813 323.935 460.477 323.809 460.328 323.38L458.522 317.906L455.834 325.984C455.685 326.413 455.349 326.539 454.826 326.362C454.303 326.185 454.117 325.881 454.266 325.452L457.01 317.192C457.159 316.763 457.495 316.641 458.018 316.828C458.251 316.912 458.419 317.019 458.522 317.15C458.625 317.019 458.793 316.912 459.026 316.828C459.549 316.641 459.885 316.763 460.034 317.192L461.896 322.848ZM459.894 328.686C459.558 328.686 459.325 328.597 459.194 328.42C459.073 328.252 459.012 328.061 459.012 327.846V324.528C459.012 324.08 459.287 323.856 459.838 323.856C460.398 323.856 460.678 324.08 460.678 324.528V327.132C460.678 327.169 460.683 327.202 460.692 327.23C460.701 327.258 460.739 327.272 460.804 327.272H467.104C467.449 327.272 467.622 327.51 467.622 327.986C467.631 328.453 467.459 328.686 467.104 328.686H459.894ZM464.766 324.388C464.766 324.836 464.486 325.06 463.926 325.06C463.375 325.06 463.1 324.836 463.1 324.388V317.136C463.1 316.688 463.375 316.464 463.926 316.464C464.486 316.464 464.766 316.688 464.766 317.136V324.388ZM467.384 320.342C467.384 320.641 467.277 320.897 467.062 321.112C466.857 321.317 466.605 321.42 466.306 321.42C466.007 321.42 465.751 321.317 465.536 321.112C465.331 320.897 465.228 320.641 465.228 320.342C465.228 320.043 465.331 319.791 465.536 319.586C465.751 319.371 466.007 319.264 466.306 319.264C466.605 319.264 466.857 319.371 467.062 319.586C467.277 319.791 467.384 320.043 467.384 320.342ZM471.556 329.022C471.22 329.022 470.987 328.933 470.856 328.756C470.735 328.588 470.674 328.397 470.674 328.182V326.558C470.674 326.343 470.735 326.152 470.856 325.984C470.987 325.807 471.22 325.718 471.556 325.718H477.198C477.263 325.718 477.301 325.704 477.31 325.676C477.319 325.648 477.324 325.615 477.324 325.578V325.256C477.324 325.219 477.319 325.186 477.31 325.158C477.301 325.13 477.263 325.116 477.198 325.116H471.122C470.777 325.116 470.599 324.892 470.59 324.444C470.59 323.987 470.767 323.758 471.122 323.758H473.992V323.352C473.992 323.315 473.987 323.282 473.978 323.254C473.969 323.226 473.931 323.212 473.866 323.212H468.742C468.397 323.212 468.219 322.988 468.21 322.54C468.21 322.083 468.387 321.854 468.742 321.854H474.776C475.112 321.854 475.341 321.943 475.462 322.12C475.593 322.288 475.658 322.479 475.658 322.694V323.758H478.108C478.444 323.758 478.673 323.847 478.794 324.024C478.925 324.192 478.99 324.383 478.99 324.598V326.236C478.99 326.451 478.925 326.647 478.794 326.824C478.673 326.992 478.444 327.076 478.108 327.076H472.466C472.401 327.076 472.363 327.09 472.354 327.118C472.345 327.146 472.34 327.179 472.34 327.216V327.524C472.34 327.561 472.345 327.594 472.354 327.622C472.363 327.65 472.401 327.664 472.466 327.664H478.794C479.158 327.664 479.335 327.888 479.326 328.336C479.326 328.793 479.149 329.022 478.794 329.022H471.556ZM470.688 321.322C470.352 321.322 470.119 321.238 469.988 321.07C469.867 320.893 469.806 320.697 469.806 320.482V317.304C469.806 316.856 470.081 316.632 470.632 316.632C471.192 316.632 471.472 316.856 471.472 317.304V319.796C471.472 319.833 471.477 319.866 471.486 319.894C471.495 319.922 471.533 319.936 471.598 319.936H475.588C475.952 319.936 476.129 320.169 476.12 320.636C476.12 321.093 475.943 321.322 475.588 321.322H470.688ZM476.456 317.304C476.456 316.856 476.731 316.632 477.282 316.632C477.842 316.632 478.122 316.856 478.122 317.304V320.636C478.122 321.084 477.842 321.313 477.282 321.322C476.731 321.322 476.456 321.093 476.456 320.636V319.264H472.284C471.939 319.264 471.761 319.035 471.752 318.578C471.752 318.111 471.929 317.878 472.284 317.878H476.456V317.304ZM489.816 325.83C489.816 326.045 489.75 326.241 489.62 326.418C489.498 326.586 489.27 326.67 488.934 326.67H484.93C484.575 326.67 484.398 326.437 484.398 325.97C484.407 325.494 484.584 325.256 484.93 325.256H488.024C488.089 325.256 488.126 325.242 488.136 325.214C488.145 325.186 488.15 325.153 488.15 325.116V323.114C487.459 322.983 486.857 322.68 486.344 322.204C485.653 321.56 485.308 320.781 485.308 319.866C485.308 318.951 485.653 318.172 486.344 317.528C487.044 316.884 487.902 316.562 488.92 316.562C489.918 316.562 490.763 316.889 491.454 317.542C492.154 318.186 492.504 318.961 492.504 319.866C492.504 320.771 492.154 321.551 491.454 322.204C490.978 322.643 490.432 322.937 489.816 323.086V325.83ZM495.836 327.692C495.836 328.14 495.556 328.364 494.996 328.364C494.445 328.364 494.17 328.14 494.17 327.692V317.136C494.17 316.688 494.445 316.464 494.996 316.464C495.556 316.464 495.836 316.688 495.836 317.136V327.692ZM490.838 319.866C490.838 319.334 490.656 318.886 490.292 318.522C489.928 318.158 489.47 317.976 488.92 317.976C488.369 317.976 487.912 318.158 487.548 318.522C487.184 318.886 487.002 319.334 487.002 319.866C487.002 320.398 487.184 320.846 487.548 321.21C487.912 321.574 488.369 321.756 488.92 321.756C489.47 321.756 489.928 321.574 490.292 321.21C490.656 320.846 490.838 320.398 490.838 319.866ZM512.271 320.272C512.654 320.524 512.687 320.846 512.369 321.238C512.052 321.621 511.707 321.686 511.333 321.434L507.707 318.956L504.081 321.434C503.708 321.686 503.363 321.621 503.045 321.238C502.728 320.846 502.761 320.524 503.143 320.272L506.307 318.186H503.773C503.428 318.186 503.251 317.953 503.241 317.486C503.241 317.01 503.419 316.772 503.773 316.772H511.641C512.005 316.772 512.183 317.01 512.173 317.486C512.173 317.953 511.996 318.186 511.641 318.186H509.093L512.271 320.272ZM511.599 326.642C511.599 327.379 511.301 328.014 510.703 328.546C510.115 329.078 509.397 329.344 508.547 329.344C507.689 329.344 506.961 329.078 506.363 328.546C505.766 328.023 505.467 327.389 505.467 326.642C505.467 325.895 505.766 325.261 506.363 324.738C506.961 324.206 507.689 323.94 508.547 323.94C509.397 323.94 510.115 324.206 510.703 324.738C511.301 325.261 511.599 325.895 511.599 326.642ZM508.533 322.736C508.533 322.951 508.468 323.147 508.337 323.324C508.216 323.492 507.987 323.576 507.651 323.576H502.443C502.089 323.576 501.911 323.343 501.911 322.876C501.921 322.4 502.098 322.162 502.443 322.162H506.741C506.807 322.162 506.844 322.171 506.853 322.19C506.863 322.209 506.867 322.199 506.867 322.162V320.846C506.867 320.398 507.143 320.174 507.693 320.174C508.253 320.174 508.533 320.398 508.533 320.846V322.736ZM509.933 326.642C509.933 326.287 509.798 325.989 509.527 325.746C509.257 325.494 508.93 325.368 508.547 325.368C508.165 325.368 507.838 325.494 507.567 325.746C507.297 325.989 507.161 326.287 507.161 326.642C507.161 326.987 507.297 327.286 507.567 327.538C507.838 327.79 508.165 327.916 508.547 327.916C508.93 327.916 509.257 327.79 509.527 327.538C509.798 327.286 509.933 326.987 509.933 326.642ZM518.773 326.18C518.773 326.395 518.708 326.591 518.577 326.768C518.456 326.936 518.227 327.02 517.891 327.02H514.433C514.079 327.02 513.901 326.787 513.901 326.32C513.911 325.844 514.088 325.606 514.433 325.606H516.981C517.047 325.606 517.084 325.592 517.093 325.564C517.103 325.536 517.107 325.503 517.107 325.466V324.164C517.107 323.716 517.383 323.492 517.933 323.492C518.493 323.492 518.773 323.716 518.773 324.164V326.18ZM522.329 326.39C522.329 326.838 522.049 327.062 521.489 327.062C520.939 327.062 520.663 326.838 520.663 326.39V324.164C520.663 323.716 520.939 323.492 521.489 323.492C522.049 323.492 522.329 323.716 522.329 324.164V326.39ZM523.673 319.88C523.673 320.095 523.608 320.291 523.477 320.468C523.356 320.636 523.127 320.72 522.791 320.72H517.149C517.084 320.72 517.047 320.734 517.037 320.762C517.028 320.79 517.023 320.823 517.023 320.86V321.714C517.023 321.751 517.028 321.784 517.037 321.812C517.047 321.84 517.084 321.854 517.149 321.854H523.505C523.86 321.854 524.033 322.092 524.023 322.568C524.023 323.035 523.851 323.268 523.505 323.268H516.239C515.903 323.268 515.67 323.184 515.539 323.016C515.418 322.839 515.357 322.643 515.357 322.428V320.146C515.357 319.931 515.418 319.74 515.539 319.572C515.67 319.395 515.903 319.306 516.239 319.306H521.881C521.947 319.306 521.984 319.292 521.993 319.264C522.003 319.236 522.007 319.203 522.007 319.166V318.312C522.007 318.275 522.003 318.242 521.993 318.214C521.984 318.186 521.947 318.172 521.881 318.172H515.875C515.53 318.172 515.353 317.939 515.343 317.472C515.343 316.996 515.521 316.758 515.875 316.758H522.791C523.127 316.758 523.356 316.847 523.477 317.024C523.608 317.192 523.673 317.383 523.673 317.598V319.88Z" fill="white"/>
<path d="M125.784 363.592C126.317 363.592 126.883 363.709 127.48 363.944C128.077 364.179 128.653 364.477 129.208 364.84H129.176C129.731 365.245 130.157 365.779 130.456 366.44C130.755 367.08 130.904 367.827 130.904 368.68V383.88C130.904 384.776 130.755 385.544 130.456 386.184C130.157 386.803 129.731 387.325 129.176 387.752C128.621 388.157 128.056 388.477 127.48 388.712C126.904 388.925 126.339 389.032 125.784 389.032H122.424C121.869 389.032 121.293 388.925 120.696 388.712C120.12 388.477 119.555 388.157 119 387.752C118.445 387.325 118.008 386.803 117.688 386.184C117.389 385.544 117.24 384.776 117.24 383.88V368.68C117.24 367.827 117.389 367.08 117.688 366.44C118.008 365.779 118.445 365.245 119 364.84H118.968C119.523 364.477 120.099 364.179 120.696 363.944C121.293 363.709 121.869 363.592 122.424 363.592H125.784ZM124.952 385.8C125.741 385.8 126.296 385.576 126.616 385.128C126.957 384.68 127.128 384.179 127.128 383.624V368.968C127.128 368.435 126.957 367.944 126.616 367.496C126.296 367.048 125.741 366.824 124.952 366.824H123.192C122.403 366.824 121.837 367.048 121.496 367.496C121.176 367.944 121.016 368.435 121.016 368.968V383.624C121.016 384.179 121.176 384.68 121.496 385.128C121.837 385.576 122.403 385.8 123.192 385.8H124.952ZM145.092 390.568C144.324 390.568 143.791 390.365 143.492 389.96C143.215 389.576 143.076 389.139 143.076 388.648V380.744C143.076 379.72 143.706 379.208 144.964 379.208C146.244 379.208 146.884 379.72 146.884 380.744V387.016C146.884 387.101 146.895 387.176 146.916 387.24C146.938 387.304 147.023 387.336 147.172 387.336H161.252C162.042 387.336 162.436 387.88 162.436 388.968C162.458 390.035 162.063 390.568 161.252 390.568H145.092ZM149.444 369.352C149.444 371.208 148.484 373.437 146.564 376.04C144.666 378.643 141.37 380.733 136.676 382.312C135.46 382.717 134.628 382.429 134.18 381.448C133.754 380.445 133.967 379.795 134.82 379.496C137.21 378.643 139.61 377.245 142.02 375.304C144.431 373.341 145.636 371.24 145.636 369V366.888C145.636 366.803 145.626 366.728 145.604 366.664C145.583 366.6 145.498 366.568 145.348 366.568H135.94C135.151 366.568 134.746 366.035 134.724 364.968C134.724 363.88 135.13 363.336 135.94 363.336H147.428C148.196 363.336 148.719 363.539 148.996 363.944C149.295 364.328 149.444 364.765 149.444 365.256V369.352ZM159.78 380.744C159.78 381.768 159.14 382.28 157.86 382.28C156.602 382.28 155.972 381.768 155.972 380.744V364.168C155.972 363.144 156.602 362.632 157.86 362.632C159.14 362.632 159.78 363.144 159.78 364.168V380.744ZM155.204 371.496C155.204 372.179 154.959 372.765 154.468 373.256C153.999 373.725 153.423 373.96 152.74 373.96C152.058 373.96 151.471 373.725 150.98 373.256C150.511 372.765 150.276 372.179 150.276 371.496C150.276 370.813 150.511 370.237 150.98 369.768C151.471 369.277 152.058 369.032 152.74 369.032C153.423 369.032 153.999 369.277 154.468 369.768C154.959 370.237 155.204 370.813 155.204 371.496Z" fill="white"/>
<path d="M298.784 363.592C299.317 363.592 299.883 363.709 300.48 363.944C301.077 364.179 301.653 364.477 302.208 364.84H302.176C302.731 365.245 303.157 365.779 303.456 366.44C303.755 367.08 303.904 367.827 303.904 368.68V383.88C303.904 384.776 303.755 385.544 303.456 386.184C303.157 386.803 302.731 387.325 302.176 387.752C301.621 388.157 301.056 388.477 300.48 388.712C299.904 388.925 299.339 389.032 298.784 389.032H295.424C294.869 389.032 294.293 388.925 293.696 388.712C293.12 388.477 292.555 388.157 292 387.752C291.445 387.325 291.008 386.803 290.688 386.184C290.389 385.544 290.24 384.776 290.24 383.88V368.68C290.24 367.827 290.389 367.08 290.688 366.44C291.008 365.779 291.445 365.245 292 364.84H291.968C292.523 364.477 293.099 364.179 293.696 363.944C294.293 363.709 294.869 363.592 295.424 363.592H298.784ZM297.952 385.8C298.741 385.8 299.296 385.576 299.616 385.128C299.957 384.68 300.128 384.179 300.128 383.624V368.968C300.128 368.435 299.957 367.944 299.616 367.496C299.296 367.048 298.741 366.824 297.952 366.824H296.192C295.403 366.824 294.837 367.048 294.496 367.496C294.176 367.944 294.016 368.435 294.016 368.968V383.624C294.016 384.179 294.176 384.68 294.496 385.128C294.837 385.576 295.403 385.8 296.192 385.8H297.952ZM318.092 390.568C317.324 390.568 316.791 390.365 316.492 389.96C316.215 389.576 316.076 389.139 316.076 388.648V380.744C316.076 379.72 316.706 379.208 317.964 379.208C319.244 379.208 319.884 379.72 319.884 380.744V387.016C319.884 387.101 319.895 387.176 319.916 387.24C319.938 387.304 320.023 387.336 320.172 387.336H334.252C335.042 387.336 335.436 387.88 335.436 388.968C335.458 390.035 335.063 390.568 334.252 390.568H318.092ZM322.444 369.352C322.444 371.208 321.484 373.437 319.564 376.04C317.666 378.643 314.37 380.733 309.676 382.312C308.46 382.717 307.628 382.429 307.18 381.448C306.754 380.445 306.967 379.795 307.82 379.496C310.21 378.643 312.61 377.245 315.02 375.304C317.431 373.341 318.636 371.24 318.636 369V366.888C318.636 366.803 318.626 366.728 318.604 366.664C318.583 366.6 318.498 366.568 318.348 366.568H308.94C308.151 366.568 307.746 366.035 307.724 364.968C307.724 363.88 308.13 363.336 308.94 363.336H320.428C321.196 363.336 321.719 363.539 321.996 363.944C322.295 364.328 322.444 364.765 322.444 365.256V369.352ZM332.78 380.744C332.78 381.768 332.14 382.28 330.86 382.28C329.602 382.28 328.972 381.768 328.972 380.744V364.168C328.972 363.144 329.602 362.632 330.86 362.632C332.14 362.632 332.78 363.144 332.78 364.168V380.744ZM328.204 371.496C328.204 372.179 327.959 372.765 327.468 373.256C326.999 373.725 326.423 373.96 325.74 373.96C325.058 373.96 324.471 373.725 323.98 373.256C323.511 372.765 323.276 372.179 323.276 371.496C323.276 370.813 323.511 370.237 323.98 369.768C324.471 369.277 325.058 369.032 325.74 369.032C326.423 369.032 326.999 369.277 327.468 369.768C327.959 370.237 328.204 370.813 328.204 371.496Z" fill="white"/>
<path d="M475.784 363.592C476.317 363.592 476.883 363.709 477.48 363.944C478.077 364.179 478.653 364.477 479.208 364.84H479.176C479.731 365.245 480.157 365.779 480.456 366.44C480.755 367.08 480.904 367.827 480.904 368.68V383.88C480.904 384.776 480.755 385.544 480.456 386.184C480.157 386.803 479.731 387.325 479.176 387.752C478.621 388.157 478.056 388.477 477.48 388.712C476.904 388.925 476.339 389.032 475.784 389.032H472.424C471.869 389.032 471.293 388.925 470.696 388.712C470.12 388.477 469.555 388.157 469 387.752C468.445 387.325 468.008 386.803 467.688 386.184C467.389 385.544 467.24 384.776 467.24 383.88V368.68C467.24 367.827 467.389 367.08 467.688 366.44C468.008 365.779 468.445 365.245 469 364.84H468.968C469.523 364.477 470.099 364.179 470.696 363.944C471.293 363.709 471.869 363.592 472.424 363.592H475.784ZM474.952 385.8C475.741 385.8 476.296 385.576 476.616 385.128C476.957 384.68 477.128 384.179 477.128 383.624V368.968C477.128 368.435 476.957 367.944 476.616 367.496C476.296 367.048 475.741 366.824 474.952 366.824H473.192C472.403 366.824 471.837 367.048 471.496 367.496C471.176 367.944 471.016 368.435 471.016 368.968V383.624C471.016 384.179 471.176 384.68 471.496 385.128C471.837 385.576 472.403 385.8 473.192 385.8H474.952ZM495.092 390.568C494.324 390.568 493.791 390.365 493.492 389.96C493.215 389.576 493.076 389.139 493.076 388.648V380.744C493.076 379.72 493.706 379.208 494.964 379.208C496.244 379.208 496.884 379.72 496.884 380.744V387.016C496.884 387.101 496.895 387.176 496.916 387.24C496.938 387.304 497.023 387.336 497.172 387.336H511.252C512.042 387.336 512.436 387.88 512.436 388.968C512.458 390.035 512.063 390.568 511.252 390.568H495.092ZM499.444 369.352C499.444 371.208 498.484 373.437 496.564 376.04C494.666 378.643 491.37 380.733 486.676 382.312C485.46 382.717 484.628 382.429 484.18 381.448C483.754 380.445 483.967 379.795 484.82 379.496C487.21 378.643 489.61 377.245 492.02 375.304C494.431 373.341 495.636 371.24 495.636 369V366.888C495.636 366.803 495.626 366.728 495.604 366.664C495.583 366.6 495.498 366.568 495.348 366.568H485.94C485.151 366.568 484.746 366.035 484.724 364.968C484.724 363.88 485.13 363.336 485.94 363.336H497.428C498.196 363.336 498.719 363.539 498.996 363.944C499.295 364.328 499.444 364.765 499.444 365.256V369.352ZM509.78 380.744C509.78 381.768 509.14 382.28 507.86 382.28C506.602 382.28 505.972 381.768 505.972 380.744V364.168C505.972 363.144 506.602 362.632 507.86 362.632C509.14 362.632 509.78 363.144 509.78 364.168V380.744ZM505.204 371.496C505.204 372.179 504.959 372.765 504.468 373.256C503.999 373.725 503.423 373.96 502.74 373.96C502.058 373.96 501.471 373.725 500.98 373.256C500.511 372.765 500.276 372.179 500.276 371.496C500.276 370.813 500.511 370.237 500.98 369.768C501.471 369.277 502.058 369.032 502.74 369.032C503.423 369.032 503.999 369.277 504.468 369.768C504.959 370.237 505.204 370.813 505.204 371.496Z" fill="white"/>
<path d="M236.536 66.168C236.792 66.904 236.472 67.424 235.576 67.728C234.68 68.032 234.104 67.816 233.848 67.08L230.752 57.696L226.144 71.544C225.888 72.28 225.312 72.496 224.416 72.192C223.52 71.888 223.2 71.368 223.456 70.632L228.16 56.472C228.416 55.736 228.992 55.528 229.888 55.848C230.288 55.992 230.576 56.176 230.752 56.4C230.928 56.176 231.216 55.992 231.616 55.848C232.512 55.528 233.088 55.736 233.344 56.472L236.536 66.168ZM233.104 76.176C232.528 76.176 232.128 76.024 231.904 75.72C231.696 75.432 231.592 75.104 231.592 74.736V69.048C231.592 68.28 232.064 67.896 233.008 67.896C233.968 67.896 234.448 68.28 234.448 69.048V73.512C234.448 73.576 234.456 73.632 234.472 73.68C234.488 73.728 234.552 73.752 234.664 73.752H245.464C246.056 73.752 246.352 74.16 246.352 74.976C246.368 75.776 246.072 76.176 245.464 76.176H233.104ZM241.456 68.808C241.456 69.576 240.976 69.96 240.016 69.96C239.072 69.96 238.6 69.576 238.6 68.808V56.376C238.6 55.608 239.072 55.224 240.016 55.224C240.976 55.224 241.456 55.608 241.456 56.376V68.808ZM245.944 61.872C245.944 62.384 245.76 62.824 245.392 63.192C245.04 63.544 244.608 63.72 244.096 63.72C243.584 63.72 243.144 63.544 242.776 63.192C242.424 62.824 242.248 62.384 242.248 61.872C242.248 61.36 242.424 60.928 242.776 60.576C243.144 60.208 243.584 60.024 244.096 60.024C244.608 60.024 245.04 60.208 245.392 60.576C245.76 60.928 245.944 61.36 245.944 61.872ZM253.096 76.752C252.52 76.752 252.12 76.6 251.896 76.296C251.688 76.008 251.584 75.68 251.584 75.312V72.528C251.584 72.16 251.688 71.832 251.896 71.544C252.12 71.24 252.52 71.088 253.096 71.088H262.768C262.88 71.088 262.944 71.064 262.96 71.016C262.976 70.968 262.984 70.912 262.984 70.848V70.296C262.984 70.232 262.976 70.176 262.96 70.128C262.944 70.08 262.88 70.056 262.768 70.056H252.352C251.76 70.056 251.456 69.672 251.44 68.904C251.44 68.12 251.744 67.728 252.352 67.728H257.272V67.032C257.272 66.968 257.264 66.912 257.248 66.864C257.232 66.816 257.168 66.792 257.056 66.792H248.272C247.68 66.792 247.376 66.408 247.36 65.64C247.36 64.856 247.664 64.464 248.272 64.464H258.616C259.192 64.464 259.584 64.616 259.792 64.92C260.016 65.208 260.128 65.536 260.128 65.904V67.728H264.328C264.904 67.728 265.296 67.88 265.504 68.184C265.728 68.472 265.84 68.8 265.84 69.168V71.976C265.84 72.344 265.728 72.68 265.504 72.984C265.296 73.272 264.904 73.416 264.328 73.416H254.656C254.544 73.416 254.48 73.44 254.464 73.488C254.448 73.536 254.44 73.592 254.44 73.656V74.184C254.44 74.248 254.448 74.304 254.464 74.352C254.48 74.4 254.544 74.424 254.656 74.424H265.504C266.128 74.424 266.432 74.808 266.416 75.576C266.416 76.36 266.112 76.752 265.504 76.752H253.096ZM251.608 63.552C251.032 63.552 250.632 63.408 250.408 63.12C250.2 62.816 250.096 62.48 250.096 62.112V56.664C250.096 55.896 250.568 55.512 251.512 55.512C252.472 55.512 252.952 55.896 252.952 56.664V60.936C252.952 61 252.96 61.056 252.976 61.104C252.992 61.152 253.056 61.176 253.168 61.176H260.008C260.632 61.176 260.936 61.576 260.92 62.376C260.92 63.16 260.616 63.552 260.008 63.552H251.608ZM261.496 56.664C261.496 55.896 261.968 55.512 262.912 55.512C263.872 55.512 264.352 55.896 264.352 56.664V62.376C264.352 63.144 263.872 63.536 262.912 63.552C261.968 63.552 261.496 63.16 261.496 62.376V60.024H254.344C253.752 60.024 253.448 59.632 253.432 58.848C253.432 58.048 253.736 57.648 254.344 57.648H261.496V56.664ZM287.523 74.472C287.523 75.24 287.043 75.624 286.083 75.624C285.139 75.624 284.667 75.24 284.667 74.472V56.376C284.667 55.608 285.139 55.224 286.083 55.224C287.043 55.224 287.523 55.608 287.523 56.376V74.472ZM278.091 74.472C278.091 75.24 277.611 75.624 276.651 75.624C275.707 75.624 275.235 75.24 275.235 74.472V68.928C275.235 68.864 275.227 68.808 275.211 68.76C275.195 68.712 275.131 68.688 275.019 68.688H268.827C268.235 68.688 267.931 68.288 267.915 67.488C267.915 66.672 268.219 66.264 268.827 66.264H276.579C277.155 66.264 277.547 66.416 277.755 66.72C277.979 67.008 278.091 67.336 278.091 67.704V74.472ZM281.475 60.312C281.475 61.672 280.931 62.84 279.843 63.816C278.771 64.792 277.459 65.28 275.907 65.28C274.339 65.28 273.011 64.8 271.923 63.84C270.835 62.88 270.291 61.704 270.291 60.312C270.291 58.92 270.835 57.744 271.923 56.784C273.011 55.824 274.339 55.344 275.907 55.344C277.459 55.344 278.771 55.832 279.843 56.808C280.931 57.784 281.475 58.952 281.475 60.312ZM278.619 60.312C278.619 59.56 278.355 58.944 277.827 58.464C277.299 57.984 276.659 57.744 275.907 57.744C275.139 57.744 274.491 57.984 273.963 58.464C273.451 58.944 273.195 59.56 273.195 60.312C273.195 61.048 273.451 61.664 273.963 62.16C274.491 62.64 275.139 62.88 275.907 62.88C276.659 62.88 277.299 62.64 277.827 62.16C278.355 61.664 278.619 61.048 278.619 60.312ZM303.007 64.728C303.007 65.944 302.599 67.016 301.783 67.944H310.567C311.143 67.944 311.535 68.096 311.743 68.4C311.967 68.688 312.079 69.016 312.079 69.384V75.024C312.079 75.392 311.967 75.72 311.743 76.008C311.535 76.312 311.143 76.464 310.567 76.464H299.335C298.759 76.464 298.359 76.312 298.135 76.008C297.927 75.72 297.823 75.392 297.823 75.024V69.864C297.695 69.864 297.575 69.864 297.463 69.864C295.911 69.864 294.591 69.36 293.503 68.352C292.415 67.344 291.871 66.136 291.871 64.728C291.871 63.304 292.415 62.096 293.503 61.104C293.903 60.736 294.335 60.432 294.799 60.192H291.871C291.279 60.192 290.975 59.792 290.959 58.992C290.959 58.176 291.263 57.768 291.871 57.768H296.047V56.136C296.047 55.368 296.519 54.984 297.463 54.984C298.423 54.984 298.903 55.368 298.903 56.136V57.768H302.911C303.535 57.768 303.839 58.176 303.823 58.992C303.823 59.792 303.519 60.192 302.911 60.192H300.079C300.543 60.432 300.975 60.744 301.375 61.128C302.463 62.136 303.007 63.336 303.007 64.728ZM310.351 66.264C310.351 67.032 309.871 67.416 308.911 67.416C307.967 67.416 307.495 67.032 307.495 66.264V56.376C307.495 55.608 307.967 55.224 308.911 55.224C309.871 55.224 310.351 55.608 310.351 56.376V66.264ZM309.223 70.608C309.223 70.544 309.215 70.488 309.199 70.44C309.183 70.392 309.119 70.368 309.007 70.368H300.895C300.783 70.368 300.719 70.392 300.703 70.44C300.687 70.488 300.679 70.544 300.679 70.608V73.8C300.679 73.864 300.687 73.92 300.703 73.968C300.719 74.016 300.783 74.04 300.895 74.04H309.007C309.119 74.04 309.183 74.016 309.199 73.968C309.215 73.92 309.223 73.864 309.223 73.8V70.608ZM300.175 64.584C300.175 63.768 299.903 63.08 299.359 62.52C298.831 61.96 298.199 61.68 297.463 61.68C296.727 61.68 296.087 61.96 295.543 62.52C295.015 63.08 294.751 63.768 294.751 64.584C294.751 65.4 295.015 66.088 295.543 66.648C296.087 67.208 296.727 67.488 297.463 67.488C298.199 67.488 298.831 67.208 299.359 66.648C299.903 66.088 300.175 65.4 300.175 64.584ZM307.159 61.632C307.159 62.144 306.975 62.584 306.607 62.952C306.255 63.304 305.823 63.48 305.311 63.48C304.799 63.48 304.359 63.304 303.991 62.952C303.639 62.584 303.463 62.144 303.463 61.632C303.463 61.12 303.639 60.688 303.991 60.336C304.359 59.968 304.799 59.784 305.311 59.784C305.823 59.784 306.255 59.968 306.607 60.336C306.975 60.688 307.159 61.12 307.159 61.632ZM329.579 74.472C329.579 75.24 329.099 75.624 328.139 75.624C327.195 75.624 326.723 75.24 326.723 74.472V68.448H324.803C324.611 68.448 324.451 68.408 324.323 68.328C324.131 68.92 323.899 69.48 323.627 70.008C322.747 71.688 321.435 72.528 319.691 72.528C317.915 72.528 316.587 71.696 315.707 70.032C314.827 68.368 314.387 66.36 314.387 64.008C314.387 61.656 314.827 59.648 315.707 57.984C316.587 56.32 317.915 55.488 319.691 55.488C321.435 55.488 322.747 56.328 323.627 58.008C323.867 58.472 324.075 58.96 324.251 59.472C324.395 59.36 324.579 59.304 324.803 59.304H326.723V56.376C326.723 55.608 327.195 55.224 328.139 55.224C329.099 55.224 329.579 55.608 329.579 56.376V74.472ZM334.331 74.472C334.331 75.24 333.851 75.624 332.891 75.624C331.947 75.624 331.475 75.24 331.475 74.472V56.376C331.475 55.608 331.947 55.224 332.891 55.224C333.851 55.224 334.331 55.608 334.331 56.376V74.472ZM322.115 64.008C322.115 62.296 321.931 60.856 321.563 59.688C321.211 58.504 320.587 57.912 319.691 57.912C318.763 57.912 318.123 58.504 317.771 59.688C317.419 60.856 317.243 62.296 317.243 64.008C317.243 65.72 317.427 67.168 317.795 68.352C318.163 69.52 318.795 70.104 319.691 70.104C320.571 70.104 321.195 69.52 321.563 68.352C321.931 67.168 322.115 65.72 322.115 64.008ZM324.947 64.008C324.947 64.712 324.907 65.384 324.827 66.024H326.723V61.728H324.803H324.779C324.891 62.448 324.947 63.208 324.947 64.008ZM340.418 67.416C339.842 67.416 339.442 67.272 339.218 66.984C339.01 66.68 338.906 66.344 338.906 65.976V56.664C338.906 55.896 339.378 55.512 340.322 55.512C341.282 55.512 341.762 55.896 341.762 56.664V64.752C341.762 64.816 341.77 64.872 341.786 64.92C341.802 64.968 341.866 64.992 341.978 64.992H346.562C347.138 64.992 347.53 65.144 347.738 65.448C347.962 65.736 348.074 66.064 348.074 66.432V70.896H354.242C354.866 70.896 355.17 71.304 355.154 72.12C355.154 72.92 354.85 73.32 354.242 73.32H337.874C337.282 73.32 336.978 72.92 336.962 72.12C336.962 71.304 337.266 70.896 337.874 70.896H345.218V67.656C345.218 67.592 345.21 67.536 345.194 67.488C345.178 67.44 345.114 67.416 345.002 67.416H340.418ZM350.306 56.664C350.306 55.896 350.778 55.512 351.722 55.512C352.682 55.512 353.162 55.896 353.162 56.664V65.76C353.162 66.528 352.682 66.92 351.722 66.936C350.778 66.936 350.306 66.544 350.306 65.76V61.704H343.154C342.562 61.704 342.258 61.304 342.242 60.504C342.242 59.688 342.546 59.28 343.154 59.28H350.306V56.664ZM369.197 65.232C369.709 65.984 369.557 66.608 368.741 67.104C367.941 67.584 367.309 67.48 366.845 66.792L363.173 61.248L358.733 71.544C358.413 72.28 357.813 72.488 356.933 72.168C356.053 71.832 355.789 71.248 356.141 70.416L361.397 58.176H357.533C356.941 58.176 356.637 57.776 356.621 56.976C356.621 56.16 356.925 55.752 357.533 55.752H368.285C368.909 55.752 369.213 56.16 369.197 56.976C369.197 57.776 368.893 58.176 368.285 58.176H364.565L369.197 65.232ZM376.565 72.288C376.565 73.664 376.013 74.84 374.909 75.816C373.805 76.808 372.461 77.304 370.877 77.304C369.277 77.304 367.917 76.816 366.797 75.84C365.693 74.864 365.141 73.68 365.141 72.288C365.141 70.896 365.693 69.712 366.797 68.736C367.917 67.76 369.277 67.272 370.877 67.272C372.461 67.272 373.805 67.768 374.909 68.76C376.013 69.736 376.565 70.912 376.565 72.288ZM375.413 65.976C375.413 66.744 374.933 67.128 373.973 67.128C373.029 67.128 372.557 66.744 372.557 65.976V56.376C372.557 55.608 373.029 55.224 373.973 55.224C374.933 55.224 375.413 55.608 375.413 56.376V65.976ZM373.709 72.288C373.709 71.568 373.429 70.96 372.869 70.464C372.325 69.968 371.661 69.72 370.877 69.72C370.093 69.72 369.421 69.968 368.861 70.464C368.317 70.96 368.045 71.568 368.045 72.288C368.045 73.008 368.317 73.616 368.861 74.112C369.421 74.608 370.093 74.856 370.877 74.856C371.661 74.856 372.325 74.608 372.869 74.112C373.429 73.616 373.709 73.008 373.709 72.288ZM372.221 60.912C372.221 61.424 372.037 61.864 371.669 62.232C371.317 62.584 370.885 62.76 370.373 62.76C369.861 62.76 369.421 62.584 369.053 62.232C368.701 61.864 368.525 61.424 368.525 60.912C368.525 60.4 368.701 59.968 369.053 59.616C369.421 59.248 369.861 59.064 370.373 59.064C370.885 59.064 371.317 59.248 371.669 59.616C372.037 59.968 372.221 60.4 372.221 60.912ZM382.089 67.416C381.513 67.416 381.113 67.272 380.889 66.984C380.681 66.68 380.577 66.344 380.577 65.976V56.664C380.577 55.896 381.049 55.512 381.993 55.512C382.953 55.512 383.433 55.896 383.433 56.664V64.752C383.433 64.816 383.441 64.872 383.457 64.92C383.473 64.968 383.537 64.992 383.649 64.992H388.233C388.809 64.992 389.201 65.144 389.409 65.448C389.633 65.736 389.745 66.064 389.745 66.432V70.896H395.913C396.537 70.896 396.841 71.304 396.825 72.12C396.825 72.92 396.521 73.32 395.913 73.32H379.545C378.953 73.32 378.649 72.92 378.633 72.12C378.633 71.304 378.937 70.896 379.545 70.896H386.889V67.656C386.889 67.592 386.881 67.536 386.865 67.488C386.849 67.44 386.785 67.416 386.673 67.416H382.089ZM391.977 56.664C391.977 55.896 392.449 55.512 393.393 55.512C394.353 55.512 394.833 55.896 394.833 56.664V65.76C394.833 66.528 394.353 66.92 393.393 66.936C392.449 66.936 391.977 66.544 391.977 65.76V61.704H384.825C384.233 61.704 383.929 61.304 383.913 60.504C383.913 59.688 384.217 59.28 384.825 59.28H391.977V56.664Z" fill="black"/>
<defs>
<linearGradient id="paint0_linear_78_2" x1="311" y1="0" x2="311" y2="574" gradientUnits="userSpaceOnUse">
<stop offset="0.250019" stop-color="#95BF95" stop-opacity="0.8"/>
<stop offset="0.543296" stop-color="#252525"/>
<stop offset="1" stop-opacity="0"/>
</linearGradient>
</defs>
</svg>
