<svg width="626" height="710" viewBox="0 0 626 710" fill="none" xmlns="http://www.w3.org/2000/svg">
<path d="M79.1642 55.0067C177 -19.0001 295.506 6.95204 371.753 19.071C448 31.19 448 11.4998 537 52.4999C626 93.5 620.508 256 620.508 274.506C620.508 293.013 638.621 511.463 507 636C375.379 760.537 277 678 217.517 683.971C158.034 689.943 87.0703 664.753 55.1642 627.006C23.2582 589.26 0.571147 381.081 3.69797 305.457C6.8248 229.832 -18.6715 129.014 79.1642 55.0067Z" fill="white" fill-opacity="0.43"/>
<path d="M259.377 134.691C260.07 134.691 260.79 134.838 261.537 135.131C262.284 135.424 263.004 135.811 263.697 136.291H263.657C264.35 136.771 264.884 137.424 265.257 138.251C265.63 139.078 265.817 140.024 265.817 141.091V146.571C265.817 148.731 265.097 150.344 263.657 151.411C262.964 151.918 262.244 152.318 261.497 152.611C260.777 152.878 260.07 153.011 259.377 153.011H250.657C249.964 153.011 249.244 152.878 248.497 152.611C247.777 152.318 247.07 151.918 246.377 151.411C244.937 150.344 244.217 148.731 244.217 146.571V143.931C244.217 142.678 245.004 142.051 246.577 142.051C248.177 142.051 248.977 142.678 248.977 143.931V146.251C248.977 146.944 249.177 147.571 249.577 148.131C249.977 148.691 250.67 148.971 251.657 148.971H258.377C259.364 148.971 260.057 148.691 260.457 148.131C260.857 147.571 261.057 146.944 261.057 146.251V141.411C261.057 140.744 260.857 140.131 260.457 139.571C260.057 138.984 259.364 138.691 258.377 138.691H250.657C249.27 138.691 247.844 138.184 246.377 137.171C244.937 136.051 244.217 134.438 244.217 132.331V127.571C244.217 126.504 244.404 125.571 244.777 124.771C245.15 123.944 245.684 123.278 246.377 122.771H246.337C247.03 122.318 247.75 121.944 248.497 121.651C249.244 121.358 249.964 121.211 250.657 121.211H259.377C260.07 121.211 260.79 121.358 261.537 121.651C262.284 121.944 263.004 122.318 263.697 122.771H263.657C264.35 123.278 264.884 123.944 265.257 124.771C265.63 125.571 265.817 126.504 265.817 127.571V129.931C265.817 131.184 265.017 131.811 263.417 131.811C261.844 131.811 261.057 131.184 261.057 129.931V127.931C261.057 127.264 260.857 126.651 260.457 126.091C260.057 125.531 259.364 125.251 258.377 125.251H251.657C250.67 125.251 249.977 125.531 249.577 126.091C249.177 126.651 248.977 127.264 248.977 127.931V132.011C248.977 132.704 249.177 133.331 249.577 133.891C249.977 134.424 250.67 134.691 251.657 134.691H259.377ZM276.268 151.291C276.268 152.571 275.534 153.211 274.068 153.211C272.574 153.211 271.828 152.571 271.828 151.291V130.651C271.828 129.371 272.574 128.731 274.068 128.731C275.534 128.731 276.268 129.371 276.268 130.651V151.291ZM277.108 123.691C277.108 124.544 276.814 125.264 276.228 125.851C275.641 126.438 274.921 126.731 274.068 126.731C273.214 126.731 272.481 126.438 271.868 125.851C271.281 125.264 270.988 124.544 270.988 123.691C270.988 122.811 271.281 122.078 271.868 121.491C272.481 120.904 273.214 120.611 274.068 120.611C274.921 120.611 275.641 120.904 276.228 121.491C276.814 122.078 277.108 122.811 277.108 123.691ZM288.266 150.171C287.572 150.171 286.852 150.051 286.106 149.811C285.386 149.571 284.679 149.224 283.986 148.771C282.546 147.838 281.826 146.264 281.826 144.051V135.011C281.826 133.891 282.012 132.931 282.386 132.131C282.786 131.331 283.319 130.704 283.986 130.251C284.679 129.824 285.386 129.491 286.106 129.251C286.826 129.011 287.532 128.891 288.226 128.891H294.946C295.612 128.891 296.306 129.038 297.026 129.331C297.746 129.624 298.412 129.998 299.026 130.451C299.639 130.958 300.132 131.624 300.506 132.451C300.879 133.278 301.066 134.211 301.066 135.251V152.211C301.066 153.331 300.879 154.278 300.506 155.051C300.159 155.851 299.666 156.518 299.026 157.051C298.412 157.558 297.746 157.944 297.026 158.211C296.332 158.504 295.639 158.651 294.946 158.651H288.226C286.812 158.651 285.386 158.238 283.946 157.411C283.199 156.984 282.652 156.438 282.306 155.771C281.986 155.104 281.826 154.331 281.826 153.451V152.971C281.826 152.438 281.999 152.011 282.346 151.691C282.692 151.371 283.239 151.211 283.986 151.211C285.479 151.371 286.226 151.958 286.226 152.971V153.411C286.226 153.704 286.426 154.024 286.826 154.371C287.252 154.718 287.959 154.891 288.946 154.891H293.946C294.932 154.891 295.626 154.611 296.026 154.051C296.452 153.491 296.666 152.864 296.666 152.171V135.291C296.666 134.624 296.452 134.024 296.026 133.491C295.626 132.931 294.932 132.651 293.946 132.651H288.946C287.959 132.651 287.252 132.931 286.826 133.491C286.426 134.024 286.226 134.624 286.226 135.291V143.731C286.226 144.398 286.426 145.024 286.826 145.611C287.252 146.171 287.959 146.451 288.946 146.451H293.106C294.066 146.451 294.546 147.064 294.546 148.291C294.546 148.851 294.426 149.304 294.186 149.651C293.972 149.998 293.612 150.171 293.106 150.171H288.266ZM310.835 151.291C310.835 152.571 310.102 153.211 308.635 153.211C307.168 153.211 306.435 152.571 306.435 151.291V135.211C306.435 134.118 306.608 133.171 306.955 132.371C307.302 131.571 307.848 130.918 308.595 130.411C310.008 129.398 311.422 128.891 312.835 128.891H319.275C320.635 128.891 322.048 129.398 323.515 130.411C324.955 131.424 325.675 133.024 325.675 135.211V151.291C325.675 152.571 324.942 153.211 323.475 153.211C322.008 153.211 321.275 152.571 321.275 151.291V135.571C321.275 134.878 321.062 134.211 320.635 133.571L320.675 133.611C320.328 132.971 319.622 132.651 318.555 132.651H313.555C312.462 132.651 311.742 132.971 311.395 133.611C311.022 134.171 310.835 134.824 310.835 135.571V151.291ZM352.769 146.571C352.769 148.731 352.049 150.344 350.609 151.411C349.916 151.918 349.196 152.318 348.449 152.611C347.729 152.878 347.022 153.011 346.329 153.011H337.609C336.916 153.011 336.196 152.878 335.449 152.611C334.729 152.318 334.022 151.918 333.329 151.411C332.636 150.878 332.102 150.224 331.729 149.451C331.356 148.651 331.169 147.691 331.169 146.571V122.931C331.169 121.651 331.956 121.011 333.529 121.011C335.129 121.011 335.929 121.651 335.929 122.931V146.251C335.929 146.944 336.129 147.571 336.529 148.131C336.929 148.691 337.622 148.971 338.609 148.971H345.329C346.316 148.971 347.009 148.691 347.409 148.131C347.809 147.571 348.009 146.944 348.009 146.251V122.931C348.009 121.651 348.796 121.011 350.369 121.011C351.969 121.011 352.769 121.651 352.769 122.931V146.571ZM366.624 152.971C365.664 152.971 365.158 152.344 365.104 151.091C365.104 149.838 365.611 149.211 366.624 149.211H370.664C371.651 149.211 372.344 148.931 372.744 148.371C373.171 147.811 373.384 147.211 373.384 146.571V135.291C373.384 134.624 373.171 134.011 372.744 133.451C372.344 132.864 371.638 132.598 370.624 132.651H362.944V156.691C362.944 157.944 362.211 158.571 360.744 158.571C359.278 158.571 358.544 157.931 358.544 156.651V131.251C358.544 130.318 358.784 129.691 359.264 129.371C359.744 129.051 360.331 128.891 361.024 128.891H371.384C372.078 128.891 372.771 129.011 373.464 129.251C374.184 129.491 374.918 129.824 375.664 130.251C376.304 130.704 376.811 131.344 377.184 132.171C377.584 132.971 377.784 133.918 377.784 135.011V146.851C377.784 149.038 377.078 150.598 375.664 151.531C374.171 152.491 372.744 152.971 371.384 152.971H366.624Z" fill="white"/>
</svg>
