<svg width="505" height="247" viewBox="0 0 505 247" fill="none" xmlns="http://www.w3.org/2000/svg">
<g filter="url(#filter0_dd_89_2)">
<g filter="url(#filter1_d_89_2)">
<path d="M55.02 49.12C55.02 46.26 55.9 43.9133 57.66 42.08C59.4933 40.1733 61.73 39.22 64.37 39.22H73.06C75.7 39.22 77.9 40.1367 79.66 41.97C81.42 43.8033 82.3 46.0767 82.3 48.79V72.55H90.88C91.32 72.55 91.54 72.77 91.54 73.21C91.54 73.65 91.32 73.87 90.88 73.87H81.64C81.2 73.87 80.98 73.65 80.98 73.21V48.79C80.98 46.4433 80.21 44.5 78.67 42.96C77.2033 41.3467 75.3333 40.54 73.06 40.54H64.37C62.0967 40.54 60.19 41.3467 58.65 42.96C57.11 44.5733 56.34 46.6267 56.34 49.12C56.34 49.56 56.12 49.78 55.68 49.78C55.24 49.78 55.02 49.56 55.02 49.12ZM91.32 136.13C91.32 135.69 91.54 135.47 91.98 135.47C94.3267 135.47 96.2333 134.7 97.7 133.16C99.1667 131.62 99.9 129.677 99.9 127.33V49.23C99.9 46.8833 99.1667 44.94 97.7 43.4C96.2333 41.7867 94.3267 40.98 91.98 40.98C91.54 40.98 91.32 40.76 91.32 40.32C91.32 39.88 91.54 39.66 91.98 39.66C94.6933 39.66 96.8933 40.5767 98.58 42.41C100.34 44.2433 101.22 46.48 101.22 49.12V127.44C101.22 130.153 100.303 132.39 98.47 134.15C96.71 135.91 94.5467 136.79 91.98 136.79C91.54 136.79 91.32 136.57 91.32 136.13ZM63.93 136.9C61.29 136.9 59.09 135.947 57.33 134.04C55.57 132.133 54.69 129.787 54.69 127V116.88C51.3167 116.807 47.98 116 44.68 114.46C41.38 112.92 38.4833 110.537 35.99 107.31C33.35 110.463 30.6733 112.663 27.96 113.91C25.2467 115.157 22.3133 115.633 19.16 115.34C14.4667 114.9 10.8 113.177 8.16 110.17C5.52 107.09 4.2 103.24 4.2 98.62C4.2 95.76 4.67667 93.45 5.63 91.69C6.58333 89.8567 7.86667 88.3533 9.48 87.18C11.0933 85.9333 12.89 84.76 14.87 83.66C17.6567 82.12 19.4167 80.14 20.15 77.72C20.8833 75.3 21.25 72.6967 21.25 69.91L21.36 55.06C21.36 51.8333 22.3867 48.9733 24.44 46.48C26.5667 43.9867 29.8667 42.74 34.34 42.74C38.6667 42.74 41.8933 43.84 44.02 46.04C46.22 48.24 47.3567 50.88 47.43 53.96C47.43 54.3267 47.21 54.51 46.77 54.51C46.33 54.51 46.11 54.3267 46.11 53.96C46.0367 51.2467 45.0467 48.9367 43.14 47.03C41.3067 45.05 38.3733 44.06 34.34 44.06C31.5533 44.06 29.28 44.61 27.52 45.71C25.8333 46.81 24.5867 48.2033 23.78 49.89C22.9733 51.5033 22.57 53.2267 22.57 55.06V69.91C22.57 72.8433 22.13 75.6667 21.25 78.38C20.4433 81.02 18.5 83.1833 15.42 84.87C13.5133 85.8967 11.8267 86.96 10.36 88.06C8.89333 89.16 7.72 90.5167 6.84 92.13C6.03333 93.7433 5.59333 95.9067 5.52 98.62C5.44667 102.8 6.62 106.32 9.04 109.18C11.46 111.967 14.8333 113.58 19.16 114.02C22.24 114.313 25.1 113.837 27.74 112.59C30.38 111.27 32.9467 109.033 35.44 105.88C35.5867 105.66 35.77 105.55 35.99 105.55C36.2833 105.55 36.4667 105.66 36.54 105.88C38.96 109.253 41.82 111.71 45.12 113.25C48.4933 114.79 51.9033 115.56 55.35 115.56C55.79 115.56 56.01 115.78 56.01 116.22V127C56.01 129.493 56.7433 131.547 58.21 133.16C59.75 134.773 61.6567 135.58 63.93 135.58H73.06C75.3333 135.58 77.24 134.773 78.78 133.16C80.32 131.62 81.09 129.64 81.09 127.22V99.83C81.09 99.6833 81.1267 99.5 81.2 99.28C81.2733 99.06 81.42 98.95 81.64 98.95C83.9867 98.6567 85.7833 98.18 87.03 97.52C88.35 96.7867 89.4867 95.6867 90.44 94.22C90.7333 93.8533 91.0633 93.78 91.43 94C91.7967 94.22 91.8333 94.55 91.54 94.99C90.5867 96.3833 89.4133 97.52 88.02 98.4C86.6267 99.28 84.7567 99.8667 82.41 100.16V127.22C82.41 129.933 81.4933 132.207 79.66 134.04C77.8267 135.947 75.6267 136.9 73.06 136.9H63.93ZM177.75 112.04C177.31 112.04 177.09 111.82 177.09 111.38C177.09 110.94 177.31 110.72 177.75 110.72C180.463 110.72 182.81 109.877 184.79 108.19C186.77 106.503 187.76 103.863 187.76 100.27C187.76 97.2633 186.917 94.66 185.23 92.46C183.617 90.26 181.087 89.16 177.64 89.16H171.48C171.04 89.16 170.783 88.9767 170.71 88.61C169.537 84.9433 167.813 82.3033 165.54 80.69C163.267 79.0033 160.37 78.05 156.85 77.83C155.457 80.3233 153.403 82.12 150.69 83.22C147.977 84.2467 145.263 84.76 142.55 84.76H125.06C123.153 84.76 121.283 85.2 119.45 86.08C117.69 86.96 116.26 88.2433 115.16 89.93C114.06 91.5433 113.51 93.45 113.51 95.65V95.87C113.51 99.9033 114.61 102.91 116.81 104.89C119.083 106.87 121.87 107.86 125.17 107.86H138.92C139.36 107.86 139.58 108.08 139.58 108.52C139.58 108.96 139.36 109.18 138.92 109.18H125.17C121.503 109.18 118.423 108.08 115.93 105.88C113.437 103.607 112.19 100.27 112.19 95.87V95.65C112.19 93.0833 112.85 90.8833 114.17 89.05C115.563 87.1433 117.213 85.7133 119.12 84.76H117.14C113.4 84.76 110.173 83.6233 107.46 81.35C104.82 79.0033 103.5 76.0333 103.5 72.44V53.52C103.5 48.9733 104.857 45.49 107.57 43.07C110.357 40.5767 113.693 39.33 117.58 39.33C121.687 39.33 125.097 40.5033 127.81 42.85C130.523 45.1967 131.99 48.4233 132.21 52.53C132.21 52.97 131.99 53.19 131.55 53.19C131.11 53.19 130.89 52.97 130.89 52.53C130.67 48.79 129.35 45.8933 126.93 43.84C124.51 41.7133 121.393 40.65 117.58 40.65C113.987 40.65 110.943 41.7867 108.45 44.06C106.03 46.26 104.82 49.4133 104.82 53.52V72.44C104.82 75.74 105.993 78.4167 108.34 80.47C110.76 82.45 113.693 83.44 117.14 83.44H142.55C144.677 83.44 146.767 83.11 148.82 82.45C150.947 81.7167 152.78 80.6167 154.32 79.15C155.86 77.61 156.813 75.5933 157.18 73.1C157.327 72.66 157.547 72.44 157.84 72.44C158.427 72.44 158.647 72.7333 158.5 73.32C158.28 74.42 157.95 75.4833 157.51 76.51C160.443 76.73 163.23 77.6833 165.87 79.37C168.51 80.9833 170.49 83.8067 171.81 87.84H179.18C181.747 87.84 183.727 87.07 185.12 85.53C186.513 83.9167 187.21 81.9733 187.21 79.7V49.89C187.21 47.3967 186.403 45.16 184.79 43.18C183.25 41.1267 181.307 40.1 178.96 40.1H169.83C167.337 40.1 165.283 40.9067 163.67 42.52C162.057 44.06 161.25 46.0767 161.25 48.57V53.74C161.25 54.18 161.03 54.4 160.59 54.4C160.15 54.4 159.93 54.18 159.93 53.74V53.41C159.93 50.11 158.867 47.4333 156.74 45.38C154.613 43.2533 151.717 42.19 148.05 42.19C147.61 42.19 147.39 41.97 147.39 41.53C147.39 41.09 147.61 40.87 148.05 40.87C150.91 40.87 153.367 41.4933 155.42 42.74C157.473 43.9867 158.977 45.71 159.93 47.91C160.077 45.27 161.067 43.1067 162.9 41.42C164.807 39.66 167.117 38.78 169.83 38.78H178.96C180.793 38.78 182.407 39.33 183.8 40.43C185.267 41.53 186.403 42.9233 187.21 44.61C188.09 46.2967 188.53 48.0567 188.53 49.89V79.7C188.53 81.7533 187.98 83.6233 186.88 85.31C185.853 86.9233 184.35 88.0233 182.37 88.61C184.643 89.71 186.33 91.2867 187.43 93.34C188.53 95.32 189.08 97.63 189.08 100.27C189.08 104.23 187.907 107.2 185.56 109.18C183.287 111.087 180.683 112.04 177.75 112.04ZM113.73 124.8C113.73 124.213 113.767 123.553 113.84 122.82C113.987 122.013 114.17 121.28 114.39 120.62C114.537 120.18 114.793 119.96 115.16 119.96C115.453 119.96 115.637 120.07 115.71 120.29C115.783 120.51 115.783 120.693 115.71 120.84C115.27 122.16 115.05 123.48 115.05 124.8C115.05 128.173 116.553 130.96 119.56 133.16C122.64 135.36 126.527 136.533 131.22 136.68C133.42 136.68 135.767 136.533 138.26 136.24C140.753 136.02 143.247 135.25 145.74 133.93C148.233 132.61 150.543 130.447 152.67 127.44C152.89 127.147 153.11 127 153.33 127C153.55 127 153.77 127.147 153.99 127.44C156.557 130.593 159.233 132.83 162.02 134.15C164.807 135.47 167.483 136.24 170.05 136.46C172.69 136.753 175 136.9 176.98 136.9C181.16 136.9 184.46 135.763 186.88 133.49C189.373 131.217 190.62 128.393 190.62 125.02C190.62 122.013 189.887 119.557 188.42 117.65C188.347 117.503 188.31 117.32 188.31 117.1C188.383 116.807 188.567 116.66 188.86 116.66C189.08 116.66 189.3 116.77 189.52 116.99C190.327 117.943 190.913 119.19 191.28 120.73C191.72 122.197 191.94 123.627 191.94 125.02C191.94 128.76 190.583 131.84 187.87 134.26C185.23 136.753 181.6 138.073 176.98 138.22C175 138.22 172.617 138.073 169.83 137.78C167.117 137.487 164.293 136.643 161.36 135.25C158.5 133.93 155.823 131.73 153.33 128.65C151.277 131.51 149.003 133.6 146.51 134.92C144.017 136.313 141.45 137.157 138.81 137.45C136.243 137.817 133.713 138 131.22 138C127.92 137.927 124.95 137.303 122.31 136.13C119.67 134.957 117.58 133.38 116.04 131.4C114.5 129.493 113.73 127.293 113.73 124.8ZM234.92 136.9C229.933 136.9 225.35 136.13 221.17 134.59C217.063 133.05 213.763 130.593 211.27 127.22C208.85 123.92 207.64 119.557 207.64 114.13V97.3C207.64 95.1733 208.117 93.0833 209.07 91.03C210.097 88.9767 211.417 87.3267 213.03 86.08C211.857 86.2267 210.683 86.3 209.51 86.3C208.337 86.3 207.127 86.1533 205.88 85.86C202.507 85.0533 199.83 83.4767 197.85 81.13C195.87 78.7833 194.88 75.7767 194.88 72.11C194.88 68.6633 195.687 65.9133 197.3 63.86C198.913 61.7333 201.113 60.12 203.9 59.02C206.467 57.9933 208.263 56.71 209.29 55.17C210.317 53.5567 210.977 51.7967 211.27 49.89C211.637 47.9833 212.26 46.15 213.14 44.39C214.093 42.63 215.523 41.1633 217.43 39.99C219.337 38.8167 221.867 38.23 225.02 38.23C227.807 38.23 230.153 38.8167 232.06 39.99C234.04 41.09 235.58 42.52 236.68 44.28C237.78 46.04 238.367 47.8733 238.44 49.78C238.44 50.22 238.22 50.44 237.78 50.44C237.34 50.44 237.12 50.22 237.12 49.78C236.973 47.2133 235.873 44.8667 233.82 42.74C231.767 40.6133 228.833 39.55 225.02 39.55C222.16 39.55 219.85 40.0633 218.09 41.09C216.403 42.1167 215.12 43.4367 214.24 45.05C213.433 46.6633 212.883 48.35 212.59 50.11C212.297 52.1633 211.527 54.1067 210.28 55.94C209.107 57.7733 207.127 59.24 204.34 60.34C201.773 61.3667 199.757 62.7967 198.29 64.63C196.897 66.4633 196.2 68.9567 196.2 72.11C196.2 75.41 197.08 78.16 198.84 80.36C200.6 82.4867 203.02 83.88 206.1 84.54C209.767 85.3467 213.25 85.09 216.55 83.77C219.923 82.45 222.637 80.3233 224.69 77.39C224.91 77.0967 225.13 76.95 225.35 76.95C225.497 76.95 225.68 77.0967 225.9 77.39C227.807 80.3233 229.97 82.4133 232.39 83.66C234.81 84.9067 238.257 85.53 242.73 85.53H244.71C245.15 85.53 245.37 85.75 245.37 86.19C245.37 86.63 245.15 86.85 244.71 86.85H242.73C238.257 86.85 234.7 86.2633 232.06 85.09C229.493 83.8433 227.22 81.7533 225.24 78.82C223.04 81.8267 220.18 83.9533 216.66 85.2C214.24 86.3 212.333 88.0233 210.94 90.37C209.62 92.6433 208.96 95.0267 208.96 97.52V114.13C208.96 119.19 210.097 123.297 212.37 126.45C214.717 129.603 217.833 131.913 221.72 133.38C225.68 134.847 230.08 135.58 234.92 135.58H262.86C268.067 135.58 272.833 134.443 277.16 132.17C281.56 129.897 284.64 126.743 286.4 122.71C286.547 122.417 286.767 122.27 287.06 122.27C287.353 122.27 287.537 122.38 287.61 122.6C287.683 122.82 287.683 123.003 287.61 123.15C286.363 126.083 284.457 128.577 281.89 130.63C279.397 132.683 276.5 134.223 273.2 135.25C269.9 136.35 266.453 136.9 262.86 136.9H234.92ZM254.28 90.7C254.28 90.26 254.5 90.04 254.94 90.04C255.38 90.04 255.6 90.26 255.6 90.7C255.6 92.9733 256.333 94.88 257.8 96.42C259.267 97.96 261.32 98.73 263.96 98.73H272.87C275.51 98.73 277.563 97.96 279.03 96.42C280.497 94.88 281.23 92.9733 281.23 90.7V85.75C281.23 85.1633 281.523 84.87 282.11 84.87H288.49C290.983 84.87 293.11 84.0267 294.87 82.34C296.63 80.6533 297.51 78.5267 297.51 75.96V61.33H281.78C281.34 61.33 281.12 61.11 281.12 60.67V49.45C281.12 46.9567 280.35 44.8667 278.81 43.18C277.27 41.42 275.29 40.54 272.87 40.54H264.07C261.503 40.54 259.45 41.4567 257.91 43.29C256.37 45.05 255.6 47.2133 255.6 49.78V50.33C255.6 50.77 255.38 50.99 254.94 50.99C254.5 50.99 254.28 50.77 254.28 50.33V49.78C254.28 46.8467 255.16 44.3533 256.92 42.3C258.753 40.2467 261.137 39.22 264.07 39.22H272.87C275.657 39.22 277.93 40.2467 279.69 42.3C281.523 44.28 282.44 46.6633 282.44 49.45V60.01H298.17C298.61 60.01 298.83 60.23 298.83 60.67V75.96C298.83 78.8933 297.803 81.35 295.75 83.33C293.77 85.2367 291.35 86.19 288.49 86.19H282.55V90.7C282.55 93.34 281.67 95.5767 279.91 97.41C278.223 99.17 275.877 100.05 272.87 100.05H263.96C261.027 100.05 258.68 99.17 256.92 97.41C255.16 95.5767 254.28 93.34 254.28 90.7ZM303.31 126.56C300.45 126.56 297.993 125.607 295.94 123.7C293.886 121.72 292.86 119.373 292.86 116.66V108.74C292.86 106.027 293.886 103.717 295.94 101.81C297.993 99.83 300.45 98.84 303.31 98.84C303.75 98.84 303.97 99.06 303.97 99.5C303.97 99.94 303.75 100.16 303.31 100.16C300.743 100.16 298.58 101.003 296.82 102.69C295.06 104.377 294.18 106.393 294.18 108.74V116.66C294.18 119.08 295.06 121.133 296.82 122.82C298.58 124.433 300.743 125.24 303.31 125.24H381.52C384.086 125.24 386.213 124.433 387.9 122.82C389.66 121.133 390.54 119.08 390.54 116.66V108.74C390.54 106.393 389.66 104.377 387.9 102.69C386.213 101.003 384.086 100.16 381.52 100.16H363.48C363.04 100.16 362.82 99.94 362.82 99.5C362.82 99.2067 363.003 98.9867 363.37 98.84C366.303 98.3267 369.09 97.0433 371.73 94.99C374.37 92.9367 376.496 90.1867 378.11 86.74C379.796 83.2933 380.566 79.2233 380.42 74.53C380.346 69.03 379.1 64.08 376.68 59.68C374.26 55.2067 370.703 51.65 366.01 49.01C361.39 46.37 355.633 45.0133 348.74 44.94L335.98 44.83C328.72 44.7567 322.706 46.04 317.94 48.68C313.173 51.2467 309.616 54.6933 307.27 59.02C304.923 63.3467 303.75 68.0767 303.75 73.21C303.75 79.7367 305.4 85.2367 308.7 89.71C312 94.11 317.28 97.1533 324.54 98.84C324.906 98.9867 325.09 99.2067 325.09 99.5C325.09 100.087 324.833 100.307 324.32 100.16C316.766 98.4 311.23 95.1733 307.71 90.48C304.19 85.7133 302.43 79.9567 302.43 73.21C302.43 67.93 303.64 63.0167 306.06 58.47C308.553 53.9233 312.293 50.2933 317.28 47.58C322.266 44.7933 328.5 43.4367 335.98 43.51L348.74 43.62C355.853 43.6933 361.83 45.1233 366.67 47.91C371.583 50.6967 375.286 54.4367 377.78 59.13C380.346 63.75 381.666 68.8833 381.74 74.53C381.886 78.6367 381.3 82.34 379.98 85.64C378.733 88.8667 377.046 91.6167 374.92 93.89C372.793 96.09 370.446 97.74 367.88 98.84H381.52C384.306 98.84 386.726 99.83 388.78 101.81C390.833 103.717 391.86 106.027 391.86 108.74V116.66C391.86 119.373 390.833 121.72 388.78 123.7C386.726 125.607 384.306 126.56 381.52 126.56H303.31ZM398.98 129.42C396.12 129.42 393.663 128.467 391.61 126.56C389.556 124.58 388.53 122.233 388.53 119.52V111.6C388.53 108.887 389.556 106.577 391.61 104.67C393.663 102.69 396.12 101.7 398.98 101.7H410.2C406.9 100.307 404.333 98.0333 402.5 94.88C400.74 91.6533 399.86 88.0233 399.86 83.99C399.86 78.4167 401.583 73.7233 405.03 69.91C403.196 68.4433 401.73 66.7567 400.63 64.85C399.53 62.87 398.98 60.67 398.98 58.25C398.98 54.5833 400.263 51.43 402.83 48.79C405.396 46.15 408.696 44.83 412.73 44.83H455.74C459.846 44.83 463.366 45.8567 466.3 47.91C469.306 49.89 471.616 52.6033 473.23 56.05C474.916 59.4233 475.76 63.1633 475.76 67.27C475.76 70.4233 475.283 73.32 474.33 75.96C473.45 78.6 472.13 80.8367 470.37 82.67C471.91 83.55 473.12 84.9433 474 86.85C474.88 88.6833 475.246 90.6267 475.1 92.68C475.026 94.22 474.623 95.7967 473.89 97.41C473.156 99.0233 471.983 100.38 470.37 101.48C468.756 102.507 466.593 103.02 463.88 103.02H450.13C449.69 103.02 449.47 102.8 449.47 102.36V93.12C449.47 90.5533 448.59 88.4267 446.83 86.74C445.143 84.98 442.943 84.1 440.23 84.1H424.28C423.84 84.1 423.62 83.88 423.62 83.44C423.62 83 423.84 82.78 424.28 82.78H440.23C443.236 82.78 445.73 83.8067 447.71 85.86C449.763 87.84 450.79 90.26 450.79 93.12V101.7H463.88C467.473 101.7 470.003 100.747 471.47 98.84C472.936 96.86 473.706 94.8067 473.78 92.68C473.926 90.7 473.596 88.8667 472.79 87.18C471.983 85.4933 470.846 84.32 469.38 83.66C466.96 85.86 464.026 87.07 460.58 87.29C460.14 87.29 459.92 87.07 459.92 86.63C459.92 86.19 460.14 85.97 460.58 85.97C462.266 85.8233 463.77 85.4567 465.09 84.87C466.483 84.21 467.73 83.4033 468.83 82.45C470.663 80.7633 472.056 78.6 473.01 75.96C473.963 73.32 474.44 70.4233 474.44 67.27C474.44 63.31 473.67 59.7533 472.13 56.6C470.663 53.3733 468.536 50.8433 465.75 49.01C462.963 47.1033 459.626 46.15 455.74 46.15H412.73C408.99 46.15 405.983 47.3233 403.71 49.67C401.436 51.9433 400.3 54.8033 400.3 58.25C400.3 60.5233 400.776 62.54 401.73 64.3C402.756 66.06 404.186 67.6367 406.02 69.03C407.34 67.7833 408.843 66.7933 410.53 66.06C412.29 65.3267 414.16 64.96 416.14 64.96C416.58 64.96 416.8 65.18 416.8 65.62C416.8 66.06 416.58 66.28 416.14 66.28C413.206 66.28 410.603 67.1233 408.33 68.81C406.056 70.4233 404.296 72.55 403.05 75.19C401.803 77.83 401.18 80.7633 401.18 83.99C401.18 88.9033 402.536 93.0833 405.25 96.53C408.036 99.9767 411.996 101.7 417.13 101.7H425.71C426.15 101.7 426.37 101.92 426.37 102.36C426.37 102.8 426.15 103.02 425.71 103.02H398.98C396.413 103.02 394.25 103.863 392.49 105.55C390.73 107.237 389.85 109.253 389.85 111.6V119.52C389.85 121.94 390.73 123.993 392.49 125.68C394.25 127.293 396.413 128.1 398.98 128.1H477.19C479.756 128.1 481.883 127.293 483.57 125.68C485.33 123.993 486.21 121.94 486.21 119.52V111.6C486.21 109.18 485.513 107.163 484.12 105.55C482.726 103.863 480.783 103.02 478.29 103.02C477.85 103.02 477.63 102.8 477.63 102.36C477.63 101.92 477.85 101.7 478.29 101.7C481.15 101.7 483.386 102.69 485 104.67C486.686 106.577 487.53 108.887 487.53 111.6V119.52C487.53 122.233 486.503 124.58 484.45 126.56C482.396 128.467 479.976 129.42 477.19 129.42H398.98Z" fill="#C7F688"/>
</g>
<g filter="url(#filter2_d_89_2)">
<path d="M329.281 73.8678C329.64 71.3025 331.512 69.2076 334.021 68.5625L341.052 66.7545C341.599 66.6137 342.133 66.4223 342.645 66.1828L344.19 65.46C350.109 62.6912 356.731 67.6187 355.779 74.0837C355.075 78.8663 350.408 82.0055 345.713 80.8548L343.8 80.3861C342.534 80.0757 341.213 80.0615 339.94 80.3446L337.002 80.9981C332.645 81.967 328.661 78.2877 329.281 73.8678Z" fill="#C7F688"/>
<path d="M344.465 66.0488C349.915 63.4995 356.012 68.0367 355.136 73.9893C354.487 78.3927 350.19 81.2831 345.867 80.2236L343.955 79.7549C342.592 79.4207 341.169 79.4052 339.799 79.71L336.86 80.3633C332.946 81.2336 329.367 77.9286 329.924 73.958C330.247 71.6535 331.929 69.772 334.183 69.1924L341.214 67.3838C341.8 67.233 342.371 67.028 342.92 66.7715L344.465 66.0488Z" stroke="#A2FF25" stroke-width="1.3"/>
</g>
<g filter="url(#filter3_d_89_2)">
<path d="M56 66V102" stroke="#A2FF25" stroke-width="1.3" stroke-linecap="round"/>
</g>
</g>
<g filter="url(#filter4_d_89_2)">
<path d="M147.627 41.5C142.5 42 139.268 45.1467 138 48C136.732 50.8533 138.437 52.9644 138.588 52.8216" stroke="#A2FF25" stroke-width="1.3" stroke-linecap="round"/>
</g>
<g filter="url(#filter5_dd_89_2)">
<path d="M227.5 111.5C227 117 230.092 118.17 232.843 119.503C235.594 120.836 249.146 120.637 249 120.5" stroke="#A2FF25" stroke-width="1.3" stroke-linecap="round"/>
</g>
<g filter="url(#filter6_d_89_2)">
<path d="M423.842 83.3727C419.356 83.7751 420.001 89.654 420 92C419.999 94.346 420 94.5 420 96" stroke="#A2FF25" stroke-width="1.3" stroke-linecap="round"/>
</g>
<g filter="url(#filter7_d_89_2)">
<path d="M126.451 65.0368C126.683 65.0598 126.913 65.1011 127.139 65.1601L141.891 69.015C142.718 69.2313 143.403 69.8113 143.753 70.5921L143.797 70.6902C143.931 70.9886 144 71.3119 144 71.6388C144 72.9361 142.936 73.9814 141.639 73.9587L125.661 73.6789C124.357 73.6561 123.132 73.0484 122.324 72.0237C119.952 69.014 122.353 64.6302 126.166 65.0086L126.451 65.0368Z" fill="#C7F688"/>
<path d="M126.103 65.6553L126.387 65.6836C126.585 65.7033 126.782 65.7387 126.975 65.7891L141.727 69.6436C142.364 69.8101 142.891 70.2566 143.16 70.8574L143.204 70.9561C143.3 71.1708 143.35 71.4034 143.35 71.6387C143.35 72.5725 142.584 73.3249 141.65 73.3086L125.673 73.0293C124.563 73.0099 123.521 72.4925 122.834 71.6211C120.817 69.0615 122.86 65.3335 126.103 65.6553Z" stroke="#A2FF25" stroke-width="1.3"/>
</g>
<g filter="url(#filter8_d_89_2)">
<path d="M160.5 54.5C162.5 66.5 161 77.5 160.5 78.5M139 53C139 53 138.5 57.5 135.5 57.5C132.5 57.5 131.5 53.5 131.5 53.5" stroke="#A2FF25" stroke-width="1.3" stroke-linecap="round"/>
</g>
<g filter="url(#filter9_d_89_2)">
<line x1="251" y1="169" x2="251" y2="204" stroke="url(#paint0_linear_89_2)" stroke-width="2"/>
</g>
<g filter="url(#filter10_d_89_2)">
<path d="M7.41587 231.957C-9.28626 193.541 509.155 194.568 490.927 234.521" stroke="url(#paint1_linear_89_2)" stroke-width="2"/>
</g>
<defs>
<filter id="filter0_dd_89_2" x="0.200195" y="38.23" width="491.33" height="107.99" filterUnits="userSpaceOnUse" color-interpolation-filters="sRGB">
<feFlood flood-opacity="0" result="BackgroundImageFix"/>
<feColorMatrix in="SourceAlpha" type="matrix" values="0 0 0 0 0 0 0 0 0 0 0 0 0 0 0 0 0 0 127 0" result="hardAlpha"/>
<feOffset dy="4"/>
<feGaussianBlur stdDeviation="2"/>
<feComposite in2="hardAlpha" operator="out"/>
<feColorMatrix type="matrix" values="0 0 0 0 0 0 0 0 0 0 0 0 0 0 0 0 0 0 0.25 0"/>
<feBlend mode="normal" in2="BackgroundImageFix" result="effect1_dropShadow_89_2"/>
<feColorMatrix in="SourceAlpha" type="matrix" values="0 0 0 0 0 0 0 0 0 0 0 0 0 0 0 0 0 0 127 0" result="hardAlpha"/>
<feOffset dy="4"/>
<feGaussianBlur stdDeviation="2"/>
<feComposite in2="hardAlpha" operator="out"/>
<feColorMatrix type="matrix" values="0 0 0 0 0 0 0 0 0 0 0 0 0 0 0 0 0 0 0.25 0"/>
<feBlend mode="normal" in2="effect1_dropShadow_89_2" result="effect2_dropShadow_89_2"/>
<feBlend mode="normal" in="SourceGraphic" in2="effect2_dropShadow_89_2" result="shape"/>
</filter>
<filter id="filter1_d_89_2" x="4.2002" y="38.23" width="487.33" height="111.99" filterUnits="userSpaceOnUse" color-interpolation-filters="sRGB">
<feFlood flood-opacity="0" result="BackgroundImageFix"/>
<feColorMatrix in="SourceAlpha" type="matrix" values="0 0 0 0 0 0 0 0 0 0 0 0 0 0 0 0 0 0 127 0" result="hardAlpha"/>
<feOffset dx="2" dy="10"/>
<feGaussianBlur stdDeviation="1"/>
<feComposite in2="hardAlpha" operator="out"/>
<feColorMatrix type="matrix" values="0 0 0 0 0.0629906 0 0 0 0 0.0744441 0 0 0 0 0.00476832 0 0 0 1 0"/>
<feBlend mode="normal" in2="BackgroundImageFix" result="effect1_dropShadow_89_2"/>
<feBlend mode="normal" in="SourceGraphic" in2="effect1_dropShadow_89_2" result="shape"/>
</filter>
<filter id="filter2_d_89_2" x="329.217" y="64.6726" width="30.6543" height="28.4817" filterUnits="userSpaceOnUse" color-interpolation-filters="sRGB">
<feFlood flood-opacity="0" result="BackgroundImageFix"/>
<feColorMatrix in="SourceAlpha" type="matrix" values="0 0 0 0 0 0 0 0 0 0 0 0 0 0 0 0 0 0 127 0" result="hardAlpha"/>
<feOffset dx="2" dy="10"/>
<feGaussianBlur stdDeviation="1"/>
<feComposite in2="hardAlpha" operator="out"/>
<feColorMatrix type="matrix" values="0 0 0 0 0.117647 0 0 0 0 0.117647 0 0 0 0 0.117647 0 0 0 1 0"/>
<feBlend mode="normal" in2="BackgroundImageFix" result="effect1_dropShadow_89_2"/>
<feBlend mode="normal" in="SourceGraphic" in2="effect1_dropShadow_89_2" result="shape"/>
</filter>
<filter id="filter3_d_89_2" x="55.3501" y="65.3501" width="5.2998" height="49.2998" filterUnits="userSpaceOnUse" color-interpolation-filters="sRGB">
<feFlood flood-opacity="0" result="BackgroundImageFix"/>
<feColorMatrix in="SourceAlpha" type="matrix" values="0 0 0 0 0 0 0 0 0 0 0 0 0 0 0 0 0 0 127 0" result="hardAlpha"/>
<feOffset dx="2" dy="10"/>
<feGaussianBlur stdDeviation="1"/>
<feComposite in2="hardAlpha" operator="out"/>
<feColorMatrix type="matrix" values="0 0 0 0 0.117647 0 0 0 0 0.117647 0 0 0 0 0.117647 0 0 0 1 0"/>
<feBlend mode="normal" in2="BackgroundImageFix" result="effect1_dropShadow_89_2"/>
<feBlend mode="normal" in="SourceGraphic" in2="effect1_dropShadow_89_2" result="shape"/>
</filter>
<filter id="filter4_d_89_2" x="136.884" y="40.8499" width="15.3931" height="24.6287" filterUnits="userSpaceOnUse" color-interpolation-filters="sRGB">
<feFlood flood-opacity="0" result="BackgroundImageFix"/>
<feColorMatrix in="SourceAlpha" type="matrix" values="0 0 0 0 0 0 0 0 0 0 0 0 0 0 0 0 0 0 127 0" result="hardAlpha"/>
<feOffset dx="2" dy="10"/>
<feGaussianBlur stdDeviation="1"/>
<feComposite in2="hardAlpha" operator="out"/>
<feColorMatrix type="matrix" values="0 0 0 0 0.0629906 0 0 0 0 0.0744441 0 0 0 0 0.00476832 0 0 0 1 0"/>
<feBlend mode="normal" in2="BackgroundImageFix" result="effect1_dropShadow_89_2"/>
<feBlend mode="normal" in="SourceGraphic" in2="effect1_dropShadow_89_2" result="shape"/>
</filter>
<filter id="filter5_dd_89_2" x="222.796" y="106.85" width="30.855" height="20.3987" filterUnits="userSpaceOnUse" color-interpolation-filters="sRGB">
<feFlood flood-opacity="0" result="BackgroundImageFix"/>
<feColorMatrix in="SourceAlpha" type="matrix" values="0 0 0 0 0 0 0 0 0 0 0 0 0 0 0 0 0 0 127 0" result="hardAlpha"/>
<feOffset dy="4"/>
<feGaussianBlur stdDeviation="1"/>
<feComposite in2="hardAlpha" operator="out"/>
<feColorMatrix type="matrix" values="0 0 0 0 0 0 0 0 0 0 0 0 0 0 0 0 0 0 0.7 0"/>
<feBlend mode="normal" in2="BackgroundImageFix" result="effect1_dropShadow_89_2"/>
<feColorMatrix in="SourceAlpha" type="matrix" values="0 0 0 0 0 0 0 0 0 0 0 0 0 0 0 0 0 0 127 0" result="hardAlpha"/>
<feOffset/>
<feGaussianBlur stdDeviation="2"/>
<feComposite in2="hardAlpha" operator="out"/>
<feColorMatrix type="matrix" values="0 0 0 0 0.279136 0 0 0 0 0.393267 0 0 0 0 0.126963 0 0 0 1 0"/>
<feBlend mode="normal" in2="effect1_dropShadow_89_2" result="effect2_dropShadow_89_2"/>
<feBlend mode="normal" in="SourceGraphic" in2="effect2_dropShadow_89_2" result="shape"/>
</filter>
<filter id="filter6_d_89_2" x="417.318" y="82.7227" width="9.17383" height="19.9272" filterUnits="userSpaceOnUse" color-interpolation-filters="sRGB">
<feFlood flood-opacity="0" result="BackgroundImageFix"/>
<feColorMatrix in="SourceAlpha" type="matrix" values="0 0 0 0 0 0 0 0 0 0 0 0 0 0 0 0 0 0 127 0" result="hardAlpha"/>
<feOffset dy="4"/>
<feGaussianBlur stdDeviation="1"/>
<feComposite in2="hardAlpha" operator="out"/>
<feColorMatrix type="matrix" values="0 0 0 0 0 0 0 0 0 0 0 0 0 0 0 0 0 0 0.7 0"/>
<feBlend mode="normal" in2="BackgroundImageFix" result="effect1_dropShadow_89_2"/>
<feBlend mode="normal" in="SourceGraphic" in2="effect1_dropShadow_89_2" result="shape"/>
</filter>
<filter id="filter7_d_89_2" x="119.38" y="64.9856" width="26.6201" height="14.9734" filterUnits="userSpaceOnUse" color-interpolation-filters="sRGB">
<feFlood flood-opacity="0" result="BackgroundImageFix"/>
<feColorMatrix in="SourceAlpha" type="matrix" values="0 0 0 0 0 0 0 0 0 0 0 0 0 0 0 0 0 0 127 0" result="hardAlpha"/>
<feOffset dy="4"/>
<feGaussianBlur stdDeviation="1"/>
<feComposite in2="hardAlpha" operator="out"/>
<feColorMatrix type="matrix" values="0 0 0 0 0 0 0 0 0 0 0 0 0 0 0 0 0 0 0.7 0"/>
<feBlend mode="normal" in2="BackgroundImageFix" result="effect1_dropShadow_89_2"/>
<feBlend mode="normal" in="SourceGraphic" in2="effect1_dropShadow_89_2" result="shape"/>
</filter>
<filter id="filter8_d_89_2" x="130.85" y="52.3499" width="35.311" height="38.8003" filterUnits="userSpaceOnUse" color-interpolation-filters="sRGB">
<feFlood flood-opacity="0" result="BackgroundImageFix"/>
<feColorMatrix in="SourceAlpha" type="matrix" values="0 0 0 0 0 0 0 0 0 0 0 0 0 0 0 0 0 0 127 0" result="hardAlpha"/>
<feOffset dx="2" dy="10"/>
<feGaussianBlur stdDeviation="1"/>
<feComposite in2="hardAlpha" operator="out"/>
<feColorMatrix type="matrix" values="0 0 0 0 0.0629906 0 0 0 0 0.0744441 0 0 0 0 0.00476832 0 0 0 1 0"/>
<feBlend mode="normal" in2="BackgroundImageFix" result="effect1_dropShadow_89_2"/>
<feBlend mode="normal" in="SourceGraphic" in2="effect1_dropShadow_89_2" result="shape"/>
</filter>
<filter id="filter9_d_89_2" x="250" y="169" width="6" height="47" filterUnits="userSpaceOnUse" color-interpolation-filters="sRGB">
<feFlood flood-opacity="0" result="BackgroundImageFix"/>
<feColorMatrix in="SourceAlpha" type="matrix" values="0 0 0 0 0 0 0 0 0 0 0 0 0 0 0 0 0 0 127 0" result="hardAlpha"/>
<feOffset dx="2" dy="10"/>
<feGaussianBlur stdDeviation="1"/>
<feComposite in2="hardAlpha" operator="out"/>
<feColorMatrix type="matrix" values="0 0 0 0 0.236328 0 0 0 0 0.236328 0 0 0 0 0.236328 0 0 0 1 0"/>
<feBlend mode="normal" in2="BackgroundImageFix" result="effect1_dropShadow_89_2"/>
<feBlend mode="normal" in="SourceGraphic" in2="effect1_dropShadow_89_2" result="shape"/>
</filter>
<filter id="filter10_d_89_2" x="6.02051" y="202.835" width="490.376" height="44.1006" filterUnits="userSpaceOnUse" color-interpolation-filters="sRGB">
<feFlood flood-opacity="0" result="BackgroundImageFix"/>
<feColorMatrix in="SourceAlpha" type="matrix" values="0 0 0 0 0 0 0 0 0 0 0 0 0 0 0 0 0 0 127 0" result="hardAlpha"/>
<feOffset dx="2" dy="10"/>
<feGaussianBlur stdDeviation="1"/>
<feComposite in2="hardAlpha" operator="out"/>
<feColorMatrix type="matrix" values="0 0 0 0 0 0 0 0 0 0 0 0 0 0 0 0 0 0 0.76 0"/>
<feBlend mode="normal" in2="BackgroundImageFix" result="effect1_dropShadow_89_2"/>
<feBlend mode="normal" in="SourceGraphic" in2="effect1_dropShadow_89_2" result="shape"/>
</filter>
<linearGradient id="paint0_linear_89_2" x1="249.5" y1="169" x2="249.5" y2="204" gradientUnits="userSpaceOnUse">
<stop stop-color="#C7F688"/>
<stop offset="1" stop-color="#74904F"/>
</linearGradient>
<linearGradient id="paint1_linear_89_2" x1="7.17722" y1="216.476" x2="491.517" y2="222.024" gradientUnits="userSpaceOnUse">
<stop stop-color="#C7F688"/>
<stop offset="1" stop-color="#74904F"/>
</linearGradient>
</defs>
</svg>
